<svg width="48" height="48" viewBox="0 0 48 48" fill="none" xmlns="http://www.w3.org/2000/svg">
<g clip-path="url(#clip0)">
<path d="M39.9875 47.2344L39.9875 47.2344L31.7826 39.031L31.4291 38.6775L31.0756 39.031L27.0985 43.0081C26.8785 43.2281 26.5573 43.3205 26.249 43.2497C25.9426 43.1766 25.6976 42.952 25.5988 42.6547L25.5987 42.6542L17.6432 18.7891L17.6431 18.7887C17.5343 18.4633 17.6192 18.104 17.8616 17.8616C18.1052 17.6181 18.4652 17.5322 18.7854 17.6419L18.7892 17.6432L42.6543 25.5986L42.6547 25.5987C42.9524 25.6977 43.177 25.9429 43.2499 26.2497C43.3215 26.555 43.2303 26.8763 43.0082 27.0984L39.0311 31.0755L38.6776 31.429L39.0311 31.7826L47.2345 39.9873L47.2345 39.9873C47.5885 40.3413 47.5885 40.9147 47.2345 41.2687L41.2689 47.2343L41.2689 47.2344C40.9147 47.5885 40.3415 47.5885 39.9875 47.2344Z" fill="white" stroke="black"/>
<path d="M18.2812 11C17.642 11 17.125 10.483 17.125 9.84375V1.40625C17.125 0.76704 17.642 0.25 18.2812 0.25C18.9205 0.25 19.4375 0.76704 19.4375 1.40625V9.84375C19.4375 10.483 18.9205 11 18.2812 11Z" fill="white" stroke="black" stroke-width="0.5"/>
<path d="M13.1331 13.1331L13.1331 13.1331C12.6815 13.5848 11.9499 13.5848 11.4982 13.1332L5.53124 7.16619C5.07959 6.71454 5.07959 5.98286 5.53124 5.53121C5.98289 5.07956 6.71457 5.07956 7.16622 5.53121L13.1331 11.4981C13.5848 11.9498 13.5848 12.6814 13.1331 13.1331Z" fill="white" stroke="black" stroke-width="0.5"/>
<path d="M5.53123 31.0313C5.07959 30.5796 5.0796 29.8479 5.53124 29.3963L11.4981 23.4294C11.9498 22.9777 12.6815 22.9777 13.1331 23.4294C13.5848 23.881 13.5848 24.6127 13.1331 25.0644L7.16622 31.0313C6.71458 31.4829 5.98298 31.4829 5.53123 31.0313Z" fill="white" stroke="black" stroke-width="0.5"/>
<path d="M23.4293 13.1332C22.9777 12.6815 22.9777 11.9499 23.4293 11.4982L29.3962 5.53131C29.8479 5.07966 30.5795 5.07966 31.0312 5.53131C31.4828 5.98296 31.4828 6.71464 31.0312 7.16629L25.0643 13.1332C24.6127 13.5848 23.8811 13.5849 23.4293 13.1332Z" fill="white" stroke="black" stroke-width="0.5"/>
<path d="M9.84375 19.4375H1.40625C0.76704 19.4375 0.25 18.9205 0.25 18.2812C0.25 17.642 0.76704 17.125 1.40625 17.125H9.84375C10.483 17.125 11 17.642 11 18.2812C11 18.9205 10.483 19.4375 9.84375 19.4375Z" fill="white" stroke="black" stroke-width="0.5"/>
</g>
<defs>
<clipPath id="clip0">
<rect width="48" height="48" fill="white"/>
</clipPath>
</defs>
</svg>
