<svg width="32" height="47" viewBox="0 0 66 92" fill="none" xmlns="http://www.w3.org/2000/svg">
<g id="Fueguito">
<path id="Vector" d="M63.9571 47.3582C62.1102 39.0332 58.6653 31.1458 53.8134 24.1334L53.7648 24.0629C53.5012 23.6855 53.1501 23.3777 52.7414 23.1657C52.3329 22.9537 51.8789 22.8438 51.4186 22.8456C50.7685 22.8596 50.1421 23.0922 49.6403 23.5059C49.1387 23.9196 48.791 24.4902 48.6533 25.1258C48.6533 25.2051 48.6533 25.2977 48.6224 25.4124C48.4073 27.1955 47.5133 28.8272 46.1262 29.9683C44.8036 30.9792 43.1726 31.5026 41.5087 31.4501C40.3779 31.4338 39.2734 31.1074 38.3155 30.5064C37.6027 30.0227 36.9963 29.3984 36.5336 28.6719C36.071 27.9453 35.7619 27.1317 35.6252 26.2812L35.4533 3.04771V2.3597C35.3523 1.69756 35.0156 1.09418 34.505 0.660625C33.9945 0.227071 33.3445 -0.00747067 32.6747 0.0001815C32.2969 -0.00147962 31.9225 0.0721628 31.5734 0.216794C31.2244 0.361425 30.9076 0.574147 30.6416 0.842553L30.377 1.1601C23.3312 9.38249 16.8551 18.0764 10.9937 27.1809C8.14904 31.6222 4.9251 36.9675 2.6141 44.2179C1.82734 46.6504 1.20554 49.1332 0.752929 51.6494C0.327589 53.9553 0.0842605 56.2911 0.0252176 58.6352C-0.0321165 61.5461 -0.120319 65.9388 1.37919 70.5872C5.65719 83.8181 19.5982 89.4414 20.1891 89.6707C24.3226 91.2137 28.6993 92.0024 33.1113 91.9993C38.4976 92.034 43.8059 90.713 48.5474 88.1579C57.324 83.3904 63.1764 74.7152 65.0244 63.7248C66.127 57.2593 65.02 52.2271 63.9571 47.3582ZM59.7982 62.8913C58.2104 72.2985 53.2973 79.6813 45.9543 83.6726C35.2019 89.5163 24.2334 85.7234 22.1385 84.9031C21.6666 84.7135 9.96166 80.0033 6.43341 69.0657C5.18971 65.2155 5.26467 61.4756 5.31759 58.7455C5.48158 54.328 6.27307 49.9562 7.66829 45.7615C9.80288 39.0844 12.7093 34.2683 15.4966 29.911C20.0244 22.85 24.9391 16.0449 30.2182 9.52646L30.3418 26.6649V26.8325C30.5137 28.0542 31.3914 32.2352 35.3827 34.7711C37.1689 35.9029 39.2312 36.5237 41.3454 36.566C44.2645 36.6573 47.1244 35.7295 49.4339 33.942C50.449 33.1472 51.3226 32.187 52.0184 31.1018C55.148 36.4862 57.4214 42.3247 58.7573 48.4078C59.7982 53.0342 60.7464 57.3828 59.7982 62.8913Z" fill="#D2E568"/>
<path id="Vector_2" d="M19.9467 48.7783L10.5042 58.0488L20.1628 66.6268L23.2809 63.3455L16.8903 57.8724L23.3118 51.7816L19.9467 48.7783Z" fill="#D2E568"/>
<path id="Vector_3" d="M25.768 69.405H30.39L39.6913 48.2002H35.0693L25.768 69.405Z" fill="#D2E568"/>
<path id="Vector_4" d="M42.1654 51.7816L48.5824 57.8724L42.1963 63.3455L45.31 66.6268L54.973 58.0488L45.5305 48.7783L42.1654 51.7816Z" fill="#D2E568"/>
</g>
</svg>
