<svg width="231" height="252" viewBox="0 0 231 252" fill="none" xmlns="http://www.w3.org/2000/svg">
<path d="M9.84375 15.1172V28.5703H16.5703C17.4922 28.5703 18.3594 28.3984 19.1719 28.0547C19.9844 27.6953 20.6953 27.2109 21.3047 26.6016C21.9141 25.9922 22.3906 25.2812 22.7344 24.4688C23.0938 23.6406 23.2734 22.7656 23.2734 21.8438C23.2734 20.9219 23.0938 20.0547 22.7344 19.2422C22.3906 18.4141 21.9141 17.6953 21.3047 17.0859C20.6953 16.4766 19.9844 16 19.1719 15.6562C18.3594 15.2969 17.4922 15.1172 16.5703 15.1172H9.84375ZM9.84375 42H3.11719V8.39062H16.5703C17.8047 8.39062 18.9922 8.55469 20.1328 8.88281C21.2734 9.19531 22.3359 9.64844 23.3203 10.2422C24.3203 10.8203 25.2266 11.5234 26.0391 12.3516C26.8672 13.1641 27.5703 14.0703 28.1484 15.0703C28.7422 16.0703 29.1953 17.1406 29.5078 18.2812C29.8359 19.4219 30 20.6094 30 21.8438C30 23 29.8516 24.125 29.5547 25.2188C29.2734 26.3125 28.8594 27.3516 28.3125 28.3359C27.7812 29.3203 27.125 30.2266 26.3438 31.0547C25.5625 31.8828 24.6875 32.6016 23.7188 33.2109L27.4453 42H20.2969L17.3672 35.2266L9.84375 35.2734V42ZM44.4131 35.8594C44.6631 35.9375 44.9131 35.9922 45.1631 36.0234C45.4131 36.0391 45.6631 36.0469 45.9131 36.0469C46.5381 36.0469 47.1397 35.9609 47.7178 35.7891C48.2959 35.6172 48.835 35.375 49.335 35.0625C49.8506 34.7344 50.3037 34.3438 50.6944 33.8906C51.1006 33.4219 51.4287 32.9062 51.6787 32.3438L56.3662 37.0547C55.7725 37.8984 55.085 38.6562 54.3037 39.3281C53.5381 40 52.7022 40.5703 51.7959 41.0391C50.9053 41.5078 49.96 41.8594 48.96 42.0938C47.9756 42.3438 46.96 42.4688 45.9131 42.4688C44.1475 42.4688 42.4834 42.1406 40.9209 41.4844C39.3741 40.8281 38.0147 39.9141 36.8428 38.7422C35.6866 37.5703 34.7725 36.1797 34.1006 34.5703C33.4287 32.9453 33.0928 31.1641 33.0928 29.2266C33.0928 27.2422 33.4287 25.4297 34.1006 23.7891C34.7725 22.1484 35.6866 20.75 36.8428 19.5938C38.0147 18.4375 39.3741 17.5391 40.9209 16.8984C42.4834 16.2578 44.1475 15.9375 45.9131 15.9375C46.96 15.9375 47.9834 16.0625 48.9834 16.3125C49.9834 16.5625 50.9287 16.9219 51.8194 17.3906C52.7256 17.8594 53.5694 18.4375 54.3506 19.125C55.1319 19.7969 55.8194 20.5547 56.4131 21.3984L44.4131 35.8594ZM47.6944 22.6641C47.3975 22.5547 47.1006 22.4844 46.8037 22.4531C46.5225 22.4219 46.2256 22.4062 45.9131 22.4062C45.0381 22.4062 44.21 22.5703 43.4287 22.8984C42.6631 23.2109 41.9912 23.6641 41.4131 24.2578C40.8506 24.8516 40.4053 25.5703 40.0772 26.4141C39.7491 27.2422 39.585 28.1797 39.585 29.2266C39.585 29.4609 39.5928 29.7266 39.6084 30.0234C39.6397 30.3203 39.6787 30.625 39.7256 30.9375C39.7881 31.2344 39.8584 31.5234 39.9366 31.8047C40.0147 32.0859 40.1162 32.3359 40.2412 32.5547L47.6944 22.6641ZM67.0528 42H60.6075V6.91406H67.0528V42ZM80.4581 10.0781C80.4581 10.6719 80.3409 11.2266 80.1066 11.7422C79.8878 12.2578 79.5831 12.7109 79.1925 13.1016C78.8019 13.4766 78.3409 13.7812 77.8097 14.0156C77.2941 14.2344 76.7394 14.3438 76.1456 14.3438C75.5519 14.3438 74.9894 14.2344 74.4581 14.0156C73.9425 13.7812 73.4894 13.4766 73.0987 13.1016C72.7237 12.7109 72.4191 12.2578 72.1847 11.7422C71.9659 11.2266 71.8566 10.6719 71.8566 10.0781C71.8566 9.5 71.9659 8.95312 72.1847 8.4375C72.4191 7.90625 72.7237 7.45312 73.0987 7.07812C73.4894 6.6875 73.9425 6.38281 74.4581 6.16406C74.9894 5.92969 75.5519 5.8125 76.1456 5.8125C76.7394 5.8125 77.2941 5.92969 77.8097 6.16406C78.3409 6.38281 78.8019 6.6875 79.1925 7.07812C79.5831 7.45312 79.8878 7.90625 80.1066 8.4375C80.3409 8.95312 80.4581 9.5 80.4581 10.0781ZM79.3566 42H72.9112V16.8984H79.3566V42ZM109.52 42H107.973L105.488 38.5547C104.879 39.1016 104.231 39.6172 103.543 40.1016C102.871 40.5703 102.16 40.9844 101.41 41.3438C100.66 41.6875 99.8869 41.9609 99.09 42.1641C98.3087 42.3672 97.5119 42.4688 96.6994 42.4688C94.9337 42.4688 93.2697 42.1719 91.7072 41.5781C90.1603 40.9844 88.8009 40.125 87.6291 39C86.4728 37.8594 85.5587 36.4688 84.8869 34.8281C84.215 33.1875 83.8791 31.3203 83.8791 29.2266C83.8791 27.2734 84.215 25.4844 84.8869 23.8594C85.5587 22.2188 86.4728 20.8125 87.6291 19.6406C88.8009 18.4688 90.1603 17.5625 91.7072 16.9219C93.2697 16.2656 94.9337 15.9375 96.6994 15.9375C97.5119 15.9375 98.3166 16.0391 99.1134 16.2422C99.9103 16.4453 100.684 16.7266 101.434 17.0859C102.184 17.4453 102.895 17.8672 103.567 18.3516C104.254 18.8359 104.895 19.3594 105.488 19.9219L107.973 16.9453H109.52V42ZM103.074 29.2266C103.074 28.3516 102.902 27.5078 102.559 26.6953C102.231 25.8672 101.777 25.1406 101.199 24.5156C100.621 23.875 99.9416 23.3672 99.1603 22.9922C98.3947 22.6016 97.5744 22.4062 96.6994 22.4062C95.8244 22.4062 94.9962 22.5547 94.215 22.8516C93.4494 23.1484 92.7775 23.5859 92.1994 24.1641C91.6369 24.7422 91.1916 25.4609 90.8634 26.3203C90.5353 27.1641 90.3712 28.1328 90.3712 29.2266C90.3712 30.3203 90.5353 31.2969 90.8634 32.1562C91.1916 33 91.6369 33.7109 92.1994 34.2891C92.7775 34.8672 93.4494 35.3047 94.215 35.6016C94.9962 35.8984 95.8244 36.0469 96.6994 36.0469C97.5744 36.0469 98.3947 35.8594 99.1603 35.4844C99.9416 35.0938 100.621 34.5859 101.199 33.9609C101.777 33.3203 102.231 32.5938 102.559 31.7812C102.902 30.9531 103.074 30.1016 103.074 29.2266ZM140.503 29.2266C140.503 31.1953 140.167 32.9922 139.495 34.6172C138.823 36.2422 137.909 37.6406 136.753 38.8125C135.597 39.9688 134.238 40.8672 132.675 41.5078C131.128 42.1484 129.464 42.4688 127.683 42.4688C125.917 42.4688 124.253 42.1406 122.691 41.4844C121.144 40.8281 119.784 39.9141 118.613 38.7422C117.456 37.5703 116.542 36.1797 115.87 34.5703C115.198 32.9453 114.863 31.1641 114.863 29.2266V6.91406H121.284V18.6328C121.628 18.1953 122.042 17.8047 122.527 17.4609C123.027 17.1172 123.558 16.8359 124.12 16.6172C124.698 16.3984 125.292 16.2344 125.902 16.125C126.511 16 127.105 15.9375 127.683 15.9375C129.464 15.9375 131.128 16.2734 132.675 16.9453C134.238 17.6016 135.597 18.5234 136.753 19.7109C137.909 20.8984 138.823 22.3047 139.495 23.9297C140.167 25.5391 140.503 27.3047 140.503 29.2266ZM134.058 29.2266C134.058 28.2578 133.886 27.3594 133.542 26.5312C133.214 25.6875 132.761 24.9609 132.183 24.3516C131.605 23.7422 130.925 23.2656 130.144 22.9219C129.378 22.5781 128.558 22.4062 127.683 22.4062C126.808 22.4062 125.98 22.6016 125.198 22.9922C124.433 23.3672 123.761 23.875 123.183 24.5156C122.605 25.1406 122.152 25.8672 121.823 26.6953C121.495 27.5078 121.331 28.3516 121.331 29.2266C121.331 30.1953 121.495 31.0938 121.823 31.9219C122.152 32.75 122.605 33.4688 123.183 34.0781C123.761 34.6875 124.433 35.1719 125.198 35.5312C125.98 35.875 126.808 36.0469 127.683 36.0469C128.558 36.0469 129.378 35.875 130.144 35.5312C130.925 35.1719 131.605 34.6875 132.183 34.0781C132.761 33.4688 133.214 32.75 133.542 31.9219C133.886 31.0938 134.058 30.1953 134.058 29.2266ZM151.471 42H145.026V6.91406H151.471V42ZM167.314 35.8594C167.564 35.9375 167.814 35.9922 168.064 36.0234C168.314 36.0391 168.564 36.0469 168.814 36.0469C169.439 36.0469 170.04 35.9609 170.618 35.7891C171.197 35.6172 171.736 35.375 172.236 35.0625C172.751 34.7344 173.204 34.3438 173.595 33.8906C174.001 33.4219 174.329 32.9062 174.579 32.3438L179.267 37.0547C178.673 37.8984 177.986 38.6562 177.204 39.3281C176.439 40 175.603 40.5703 174.697 41.0391C173.806 41.5078 172.861 41.8594 171.861 42.0938C170.876 42.3438 169.861 42.4688 168.814 42.4688C167.048 42.4688 165.384 42.1406 163.822 41.4844C162.275 40.8281 160.915 39.9141 159.743 38.7422C158.587 37.5703 157.673 36.1797 157.001 34.5703C156.329 32.9453 155.993 31.1641 155.993 29.2266C155.993 27.2422 156.329 25.4297 157.001 23.7891C157.673 22.1484 158.587 20.75 159.743 19.5938C160.915 18.4375 162.275 17.5391 163.822 16.8984C165.384 16.2578 167.048 15.9375 168.814 15.9375C169.861 15.9375 170.884 16.0625 171.884 16.3125C172.884 16.5625 173.829 16.9219 174.72 17.3906C175.626 17.8594 176.47 18.4375 177.251 19.125C178.033 19.7969 178.72 20.5547 179.314 21.3984L167.314 35.8594ZM170.595 22.6641C170.298 22.5547 170.001 22.4844 169.704 22.4531C169.423 22.4219 169.126 22.4062 168.814 22.4062C167.939 22.4062 167.111 22.5703 166.329 22.8984C165.564 23.2109 164.892 23.6641 164.314 24.2578C163.751 24.8516 163.306 25.5703 162.978 26.4141C162.65 27.2422 162.486 28.1797 162.486 29.2266C162.486 29.4609 162.493 29.7266 162.509 30.0234C162.54 30.3203 162.579 30.625 162.626 30.9375C162.689 31.2344 162.759 31.5234 162.837 31.8047C162.915 32.0859 163.017 32.3359 163.142 32.5547L170.595 22.6641ZM16.2188 92H1.59375V85.625H16.2188C16.6562 85.625 17.0312 85.4688 17.3438 85.1562C17.6562 84.8438 17.8125 84.4688 17.8125 84.0312C17.8125 83.5781 17.6562 83.2812 17.3438 83.1406C17.0312 83 16.6562 82.9297 16.2188 82.9297H9.5625C8.45312 82.9297 7.41406 82.7188 6.44531 82.2969C5.47656 81.875 4.63281 81.3047 3.91406 80.5859C3.19531 79.8516 2.625 79 2.20312 78.0312C1.79688 77.0625 1.59375 76.0234 1.59375 74.9141C1.59375 73.8047 1.79688 72.7656 2.20312 71.7969C2.625 70.8281 3.19531 69.9844 3.91406 69.2656C4.63281 68.5469 5.47656 67.9844 6.44531 67.5781C7.41406 67.1562 8.45312 66.9453 9.5625 66.9453H22.5234V73.3203H9.5625C9.125 73.3203 8.75 73.4766 8.4375 73.7891C8.125 74.1016 7.96875 74.4766 7.96875 74.9141C7.96875 75.3672 8.125 75.7578 8.4375 76.0859C8.75 76.3984 9.125 76.5547 9.5625 76.5547H16.2188C17.3125 76.5547 18.3438 76.7422 19.3125 77.1172C20.2812 77.4766 21.125 77.9844 21.8438 78.6406C22.5625 79.2969 23.1328 80.0859 23.5547 81.0078C23.9766 81.9297 24.1875 82.9375 24.1875 84.0312C24.1875 85.1406 23.9766 86.1797 23.5547 87.1484C23.1328 88.1016 22.5625 88.9453 21.8438 89.6797C21.125 90.3984 20.2812 90.9688 19.3125 91.3906C18.3438 91.7969 17.3125 92 16.2188 92ZM52.8272 79.2266C52.8272 81.1016 52.4912 82.8516 51.8194 84.4766C51.1475 86.0859 50.2334 87.4844 49.0772 88.6719C47.9209 89.8438 46.5616 90.7734 44.9991 91.4609C43.4522 92.1328 41.7881 92.4688 40.0069 92.4688C38.2412 92.4688 36.5772 92.1328 35.0147 91.4609C33.4678 90.7734 32.1084 89.8438 30.9366 88.6719C29.7803 87.4844 28.8662 86.0859 28.1944 84.4766C27.5225 82.8516 27.1866 81.1016 27.1866 79.2266C27.1866 77.3203 27.5225 75.5547 28.1944 73.9297C28.8662 72.3047 29.7803 70.9062 30.9366 69.7344C32.1084 68.5469 33.4678 67.6172 35.0147 66.9453C36.5772 66.2734 38.2412 65.9375 40.0069 65.9375C41.7881 65.9375 43.4522 66.2578 44.9991 66.8984C46.5616 67.5234 47.9209 68.4219 49.0772 69.5938C50.2334 70.75 51.1475 72.1484 51.8194 73.7891C52.4912 75.4141 52.8272 77.2266 52.8272 79.2266ZM46.3819 79.2266C46.3819 78.1953 46.21 77.2656 45.8662 76.4375C45.5381 75.5938 45.085 74.875 44.5069 74.2812C43.9287 73.6719 43.2491 73.2109 42.4678 72.8984C41.7022 72.5703 40.8819 72.4062 40.0069 72.4062C39.1319 72.4062 38.3037 72.5703 37.5225 72.8984C36.7569 73.2109 36.085 73.6719 35.5069 74.2812C34.9444 74.875 34.4991 75.5938 34.1709 76.4375C33.8428 77.2656 33.6787 78.1953 33.6787 79.2266C33.6787 80.1953 33.8428 81.0938 34.1709 81.9219C34.4991 82.75 34.9444 83.4688 35.5069 84.0781C36.085 84.6875 36.7569 85.1719 37.5225 85.5312C38.3037 85.875 39.1319 86.0469 40.0069 86.0469C40.8819 86.0469 41.7022 85.8828 42.4678 85.5547C43.2491 85.2266 43.9287 84.7656 44.5069 84.1719C45.085 83.5781 45.5381 82.8594 45.8662 82.0156C46.21 81.1719 46.3819 80.2422 46.3819 79.2266ZM65.1778 92H58.7794V73.2734H55.6622V66.8984H58.7794V65.7031C58.7794 64.1562 59.0684 62.7031 59.6466 61.3438C60.2403 59.9844 61.045 58.8047 62.0606 57.8047C63.0919 56.7891 64.2872 55.9922 65.6466 55.4141C67.0059 54.8203 68.4591 54.5234 70.0059 54.5234H74.8106V60.8984H70.0059C69.3184 60.8984 68.6778 61.0234 68.0841 61.2734C67.5059 61.5078 66.9981 61.8438 66.5606 62.2812C66.1387 62.7031 65.8028 63.2109 65.5528 63.8047C65.3028 64.3828 65.1778 65.0156 65.1778 65.7031V66.8984H73.0294V73.2734H65.1778V92ZM89.6222 92C88.0753 92 86.6222 91.7109 85.2628 91.1328C83.9034 90.5391 82.7081 89.7344 81.6769 88.7188C80.6612 87.6875 79.8566 86.4922 79.2628 85.1328C78.6847 83.7734 78.3956 82.3203 78.3956 80.7734V73.3203H75.2784V66.9453H78.3956V56.9141H84.7706V66.9453H94.4737V73.3203H84.7706V80.7734C84.7706 81.4453 84.8956 82.0781 85.1456 82.6719C85.3956 83.25 85.7394 83.7578 86.1769 84.1953C86.6144 84.6328 87.13 84.9844 87.7237 85.25C88.3175 85.5 88.9503 85.625 89.6222 85.625H94.4737V92H89.6222ZM130.731 82.9297C130.731 84.2422 130.481 85.4844 129.981 86.6562C129.481 87.8125 128.793 88.8203 127.918 89.6797C127.059 90.5391 126.043 91.2188 124.871 91.7188C123.715 92.2188 122.473 92.4688 121.145 92.4688C119.957 92.4688 118.817 92.2656 117.723 91.8594C116.629 91.4375 115.637 90.8281 114.746 90.0312C113.871 90.8281 112.887 91.4375 111.793 91.8594C110.715 92.2656 109.574 92.4688 108.371 92.4688C107.043 92.4688 105.801 92.2188 104.645 91.7188C103.488 91.2188 102.473 90.5391 101.598 89.6797C100.738 88.8203 100.059 87.8125 99.5587 86.6562C99.0587 85.4844 98.8087 84.2422 98.8087 82.9297V66.9453H105.207V82.9297C105.207 83.3672 105.285 83.7812 105.442 84.1719C105.613 84.5469 105.84 84.8828 106.121 85.1797C106.418 85.4609 106.754 85.6875 107.129 85.8594C107.52 86.0156 107.934 86.0938 108.371 86.0938C108.809 86.0938 109.223 86.0156 109.613 85.8594C110.004 85.6875 110.348 85.4609 110.645 85.1797C110.942 84.8828 111.168 84.5469 111.324 84.1719C111.496 83.7812 111.582 83.3672 111.582 82.9297V66.9453H117.957V82.9297C117.957 83.3672 118.043 83.7812 118.215 84.1719C118.387 84.5469 118.613 84.8828 118.895 85.1797C119.192 85.4609 119.527 85.6875 119.902 85.8594C120.293 86.0156 120.707 86.0938 121.145 86.0938C121.582 86.0938 121.996 86.0156 122.387 85.8594C122.777 85.6875 123.113 85.4609 123.395 85.1797C123.692 84.8828 123.926 84.5469 124.098 84.1719C124.27 83.7812 124.356 83.3672 124.356 82.9297V66.9453H130.731V82.9297ZM160.636 92H159.089L156.605 88.5547C155.995 89.1016 155.347 89.6172 154.659 90.1016C153.988 90.5703 153.277 90.9844 152.527 91.3438C151.777 91.6875 151.003 91.9609 150.206 92.1641C149.425 92.3672 148.628 92.4688 147.816 92.4688C146.05 92.4688 144.386 92.1719 142.823 91.5781C141.277 90.9844 139.917 90.125 138.745 89C137.589 87.8594 136.675 86.4688 136.003 84.8281C135.331 83.1875 134.995 81.3203 134.995 79.2266C134.995 77.2734 135.331 75.4844 136.003 73.8594C136.675 72.2188 137.589 70.8125 138.745 69.6406C139.917 68.4688 141.277 67.5625 142.823 66.9219C144.386 66.2656 146.05 65.9375 147.816 65.9375C148.628 65.9375 149.433 66.0391 150.23 66.2422C151.027 66.4453 151.8 66.7266 152.55 67.0859C153.3 67.4453 154.011 67.8672 154.683 68.3516C155.37 68.8359 156.011 69.3594 156.605 69.9219L159.089 66.9453H160.636V92ZM154.191 79.2266C154.191 78.3516 154.019 77.5078 153.675 76.6953C153.347 75.8672 152.894 75.1406 152.316 74.5156C151.738 73.875 151.058 73.3672 150.277 72.9922C149.511 72.6016 148.691 72.4062 147.816 72.4062C146.941 72.4062 146.113 72.5547 145.331 72.8516C144.566 73.1484 143.894 73.5859 143.316 74.1641C142.753 74.7422 142.308 75.4609 141.98 76.3203C141.652 77.1641 141.488 78.1328 141.488 79.2266C141.488 80.3203 141.652 81.2969 141.98 82.1562C142.308 83 142.753 83.7109 143.316 84.2891C143.894 84.8672 144.566 85.3047 145.331 85.6016C146.113 85.8984 146.941 86.0469 147.816 86.0469C148.691 86.0469 149.511 85.8594 150.277 85.4844C151.058 85.0938 151.738 84.5859 152.316 83.9609C152.894 83.3203 153.347 82.5938 153.675 81.7812C154.019 80.9531 154.191 80.1016 154.191 79.2266ZM172.893 92H166.494V66.8984H168.041L170.151 69.875C171.182 68.9375 172.354 68.2188 173.666 67.7188C174.979 67.2031 176.338 66.9453 177.744 66.9453H183.393V73.3203H177.744C177.072 73.3203 176.44 73.4453 175.846 73.6953C175.252 73.9453 174.737 74.2891 174.299 74.7266C173.862 75.1641 173.518 75.6797 173.268 76.2734C173.018 76.8672 172.893 77.5 172.893 78.1719V92ZM196.845 85.8594C197.095 85.9375 197.345 85.9922 197.595 86.0234C197.845 86.0391 198.095 86.0469 198.345 86.0469C198.97 86.0469 199.572 85.9609 200.15 85.7891C200.728 85.6172 201.267 85.375 201.767 85.0625C202.283 84.7344 202.736 84.3438 203.126 83.8906C203.533 83.4219 203.861 82.9062 204.111 82.3438L208.798 87.0547C208.204 87.8984 207.517 88.6562 206.736 89.3281C205.97 90 205.134 90.5703 204.228 91.0391C203.337 91.5078 202.392 91.8594 201.392 92.0938C200.408 92.3438 199.392 92.4688 198.345 92.4688C196.579 92.4688 194.915 92.1406 193.353 91.4844C191.806 90.8281 190.447 89.9141 189.275 88.7422C188.118 87.5703 187.204 86.1797 186.533 84.5703C185.861 82.9453 185.525 81.1641 185.525 79.2266C185.525 77.2422 185.861 75.4297 186.533 73.7891C187.204 72.1484 188.118 70.75 189.275 69.5938C190.447 68.4375 191.806 67.5391 193.353 66.8984C194.915 66.2578 196.579 65.9375 198.345 65.9375C199.392 65.9375 200.415 66.0625 201.415 66.3125C202.415 66.5625 203.361 66.9219 204.251 67.3906C205.158 67.8594 206.001 68.4375 206.783 69.125C207.564 69.7969 208.251 70.5547 208.845 71.3984L196.845 85.8594ZM200.126 72.6641C199.829 72.5547 199.533 72.4844 199.236 72.4531C198.954 72.4219 198.658 72.4062 198.345 72.4062C197.47 72.4062 196.642 72.5703 195.861 72.8984C195.095 73.2109 194.423 73.6641 193.845 74.2578C193.283 74.8516 192.837 75.5703 192.509 76.4141C192.181 77.2422 192.017 78.1797 192.017 79.2266C192.017 79.4609 192.025 79.7266 192.04 80.0234C192.072 80.3203 192.111 80.625 192.158 80.9375C192.22 81.2344 192.29 81.5234 192.368 81.8047C192.447 82.0859 192.548 82.3359 192.673 82.5547L200.126 72.6641ZM16.2188 142H1.59375V135.625H16.2188C16.6562 135.625 17.0312 135.469 17.3438 135.156C17.6562 134.844 17.8125 134.469 17.8125 134.031C17.8125 133.578 17.6562 133.281 17.3438 133.141C17.0312 133 16.6562 132.93 16.2188 132.93H9.5625C8.45312 132.93 7.41406 132.719 6.44531 132.297C5.47656 131.875 4.63281 131.305 3.91406 130.586C3.19531 129.852 2.625 129 2.20312 128.031C1.79688 127.062 1.59375 126.023 1.59375 124.914C1.59375 123.805 1.79688 122.766 2.20312 121.797C2.625 120.828 3.19531 119.984 3.91406 119.266C4.63281 118.547 5.47656 117.984 6.44531 117.578C7.41406 117.156 8.45312 116.945 9.5625 116.945H22.5234V123.32H9.5625C9.125 123.32 8.75 123.477 8.4375 123.789C8.125 124.102 7.96875 124.477 7.96875 124.914C7.96875 125.367 8.125 125.758 8.4375 126.086C8.75 126.398 9.125 126.555 9.5625 126.555H16.2188C17.3125 126.555 18.3438 126.742 19.3125 127.117C20.2812 127.477 21.125 127.984 21.8438 128.641C22.5625 129.297 23.1328 130.086 23.5547 131.008C23.9766 131.93 24.1875 132.938 24.1875 134.031C24.1875 135.141 23.9766 136.18 23.5547 137.148C23.1328 138.102 22.5625 138.945 21.8438 139.68C21.125 140.398 20.2812 140.969 19.3125 141.391C18.3438 141.797 17.3125 142 16.2188 142ZM52.8272 129.227C52.8272 131.102 52.4912 132.852 51.8194 134.477C51.1475 136.086 50.2334 137.484 49.0772 138.672C47.9209 139.844 46.5616 140.773 44.9991 141.461C43.4522 142.133 41.7881 142.469 40.0069 142.469C38.2412 142.469 36.5772 142.133 35.0147 141.461C33.4678 140.773 32.1084 139.844 30.9366 138.672C29.7803 137.484 28.8662 136.086 28.1944 134.477C27.5225 132.852 27.1866 131.102 27.1866 129.227C27.1866 127.32 27.5225 125.555 28.1944 123.93C28.8662 122.305 29.7803 120.906 30.9366 119.734C32.1084 118.547 33.4678 117.617 35.0147 116.945C36.5772 116.273 38.2412 115.938 40.0069 115.938C41.7881 115.938 43.4522 116.258 44.9991 116.898C46.5616 117.523 47.9209 118.422 49.0772 119.594C50.2334 120.75 51.1475 122.148 51.8194 123.789C52.4912 125.414 52.8272 127.227 52.8272 129.227ZM46.3819 129.227C46.3819 128.195 46.21 127.266 45.8662 126.438C45.5381 125.594 45.085 124.875 44.5069 124.281C43.9287 123.672 43.2491 123.211 42.4678 122.898C41.7022 122.57 40.8819 122.406 40.0069 122.406C39.1319 122.406 38.3037 122.57 37.5225 122.898C36.7569 123.211 36.085 123.672 35.5069 124.281C34.9444 124.875 34.4991 125.594 34.1709 126.438C33.8428 127.266 33.6787 128.195 33.6787 129.227C33.6787 130.195 33.8428 131.094 34.1709 131.922C34.4991 132.75 34.9444 133.469 35.5069 134.078C36.085 134.688 36.7569 135.172 37.5225 135.531C38.3037 135.875 39.1319 136.047 40.0069 136.047C40.8819 136.047 41.7022 135.883 42.4678 135.555C43.2491 135.227 43.9287 134.766 44.5069 134.172C45.085 133.578 45.5381 132.859 45.8662 132.016C46.21 131.172 46.3819 130.242 46.3819 129.227ZM63.7716 142H57.3262V106.914H63.7716V142ZM88.0753 139.07C87.5597 139.539 87.005 139.984 86.4112 140.406C85.8331 140.812 85.2237 141.172 84.5831 141.484C83.9425 141.781 83.2784 142.016 82.5909 142.188C81.9191 142.375 81.2316 142.469 80.5284 142.469C78.9816 142.469 77.5284 142.195 76.1691 141.648C74.8097 141.102 73.6144 140.328 72.5831 139.328C71.5675 138.312 70.7628 137.086 70.1691 135.648C69.5909 134.195 69.3019 132.57 69.3019 130.773V116.898H75.6769V130.773C75.6769 131.617 75.8019 132.375 76.0519 133.047C76.3175 133.703 76.6691 134.258 77.1066 134.711C77.5441 135.164 78.0519 135.508 78.63 135.742C79.2237 135.977 79.8566 136.094 80.5284 136.094C81.1847 136.094 81.8019 135.945 82.38 135.648C82.9737 135.336 83.4894 134.93 83.9269 134.43C84.3644 133.93 84.7081 133.367 84.9581 132.742C85.2081 132.102 85.3331 131.445 85.3331 130.773V116.898H91.7316V142H90.1847L88.0753 139.07ZM110.176 142C108.629 142 107.176 141.711 105.817 141.133C104.457 140.539 103.262 139.734 102.231 138.719C101.215 137.688 100.41 136.492 99.8166 135.133C99.2384 133.773 98.9494 132.32 98.9494 130.773V123.32H95.8322V116.945H98.9494V106.914H105.324V116.945H115.027V123.32H105.324V130.773C105.324 131.445 105.449 132.078 105.699 132.672C105.949 133.25 106.293 133.758 106.731 134.195C107.168 134.633 107.684 134.984 108.277 135.25C108.871 135.5 109.504 135.625 110.176 135.625H115.027V142H110.176ZM127.144 110.078C127.144 110.672 127.027 111.227 126.792 111.742C126.573 112.258 126.269 112.711 125.878 113.102C125.488 113.477 125.027 113.781 124.495 114.016C123.98 114.234 123.425 114.344 122.831 114.344C122.238 114.344 121.675 114.234 121.144 114.016C120.628 113.781 120.175 113.477 119.784 113.102C119.409 112.711 119.105 112.258 118.87 111.742C118.652 111.227 118.542 110.672 118.542 110.078C118.542 109.5 118.652 108.953 118.87 108.438C119.105 107.906 119.409 107.453 119.784 107.078C120.175 106.688 120.628 106.383 121.144 106.164C121.675 105.93 122.238 105.812 122.831 105.812C123.425 105.812 123.98 105.93 124.495 106.164C125.027 106.383 125.488 106.688 125.878 107.078C126.269 107.453 126.573 107.906 126.792 108.438C127.027 108.953 127.144 109.5 127.144 110.078ZM126.042 142H119.597V116.898H126.042V142ZM156.158 129.227C156.158 131.102 155.822 132.852 155.151 134.477C154.479 136.086 153.565 137.484 152.408 138.672C151.252 139.844 149.893 140.773 148.33 141.461C146.783 142.133 145.119 142.469 143.338 142.469C141.572 142.469 139.908 142.133 138.346 141.461C136.799 140.773 135.44 139.844 134.268 138.672C133.112 137.484 132.197 136.086 131.526 134.477C130.854 132.852 130.518 131.102 130.518 129.227C130.518 127.32 130.854 125.555 131.526 123.93C132.197 122.305 133.112 120.906 134.268 119.734C135.44 118.547 136.799 117.617 138.346 116.945C139.908 116.273 141.572 115.938 143.338 115.938C145.119 115.938 146.783 116.258 148.33 116.898C149.893 117.523 151.252 118.422 152.408 119.594C153.565 120.75 154.479 122.148 155.151 123.789C155.822 125.414 156.158 127.227 156.158 129.227ZM149.713 129.227C149.713 128.195 149.541 127.266 149.197 126.438C148.869 125.594 148.416 124.875 147.838 124.281C147.26 123.672 146.58 123.211 145.799 122.898C145.033 122.57 144.213 122.406 143.338 122.406C142.463 122.406 141.635 122.57 140.854 122.898C140.088 123.211 139.416 123.672 138.838 124.281C138.276 124.875 137.83 125.594 137.502 126.438C137.174 127.266 137.01 128.195 137.01 129.227C137.01 130.195 137.174 131.094 137.502 131.922C137.83 132.75 138.276 133.469 138.838 134.078C139.416 134.688 140.088 135.172 140.854 135.531C141.635 135.875 142.463 136.047 143.338 136.047C144.213 136.047 145.033 135.883 145.799 135.555C146.58 135.227 147.26 134.766 147.838 134.172C148.416 133.578 148.869 132.859 149.197 132.016C149.541 131.172 149.713 130.242 149.713 129.227ZM167.056 142H160.658V116.898H162.204L164.314 119.336C165.345 118.398 166.509 117.68 167.806 117.18C169.118 116.664 170.486 116.406 171.908 116.406C173.439 116.406 174.884 116.703 176.243 117.297C177.603 117.875 178.79 118.68 179.806 119.711C180.822 120.727 181.618 121.922 182.197 123.297C182.79 124.656 183.087 126.109 183.087 127.656V142H176.689V127.656C176.689 127 176.564 126.383 176.314 125.805C176.064 125.211 175.72 124.695 175.283 124.258C174.845 123.82 174.337 123.477 173.759 123.227C173.181 122.977 172.564 122.852 171.908 122.852C171.236 122.852 170.603 122.977 170.009 123.227C169.415 123.477 168.9 123.82 168.462 124.258C168.025 124.695 167.681 125.211 167.431 125.805C167.181 126.383 167.056 127 167.056 127.656V142ZM202.399 142H187.774V135.625H202.399C202.836 135.625 203.211 135.469 203.524 135.156C203.836 134.844 203.992 134.469 203.992 134.031C203.992 133.578 203.836 133.281 203.524 133.141C203.211 133 202.836 132.93 202.399 132.93H195.742C194.633 132.93 193.594 132.719 192.625 132.297C191.657 131.875 190.813 131.305 190.094 130.586C189.375 129.852 188.805 129 188.383 128.031C187.977 127.062 187.774 126.023 187.774 124.914C187.774 123.805 187.977 122.766 188.383 121.797C188.805 120.828 189.375 119.984 190.094 119.266C190.813 118.547 191.657 117.984 192.625 117.578C193.594 117.156 194.633 116.945 195.742 116.945H208.703V123.32H195.742C195.305 123.32 194.93 123.477 194.617 123.789C194.305 124.102 194.149 124.477 194.149 124.914C194.149 125.367 194.305 125.758 194.617 126.086C194.93 126.398 195.305 126.555 195.742 126.555H202.399C203.492 126.555 204.524 126.742 205.492 127.117C206.461 127.477 207.305 127.984 208.024 128.641C208.742 129.297 209.313 130.086 209.735 131.008C210.157 131.93 210.367 132.938 210.367 134.031C210.367 135.141 210.157 136.18 209.735 137.148C209.313 138.102 208.742 138.945 208.024 139.68C207.305 140.398 206.461 140.969 205.492 141.391C204.524 141.797 203.492 142 202.399 142ZM222.624 139.609C222.624 140.297 222.554 141.039 222.413 141.836C222.288 142.617 222.077 143.391 221.781 144.156C221.499 144.938 221.124 145.672 220.656 146.359C220.202 147.062 219.648 147.656 218.992 148.141L216.437 146.359C216.874 145.859 217.202 145.383 217.421 144.93C217.64 144.492 217.812 144.047 217.937 143.594C217.468 143.5 217.031 143.336 216.624 143.102C216.218 142.867 215.867 142.57 215.57 142.211C215.273 141.867 215.038 141.477 214.867 141.039C214.695 140.586 214.609 140.109 214.609 139.609C214.609 139.062 214.71 138.547 214.913 138.062C215.132 137.578 215.421 137.156 215.781 136.797C216.156 136.438 216.577 136.156 217.046 135.953C217.531 135.734 218.046 135.625 218.593 135.625C219.156 135.625 219.679 135.734 220.163 135.953C220.663 136.156 221.093 136.438 221.452 136.797C221.827 137.156 222.117 137.578 222.32 138.062C222.523 138.547 222.624 139.062 222.624 139.609ZM26.7422 192H25.1953L22.7109 188.555C22.1016 189.102 21.4531 189.617 20.7656 190.102C20.0938 190.57 19.3828 190.984 18.6328 191.344C17.8828 191.688 17.1094 191.961 16.3125 192.164C15.5312 192.367 14.7344 192.469 13.9219 192.469C12.1562 192.469 10.4922 192.172 8.92969 191.578C7.38281 190.984 6.02344 190.125 4.85156 189C3.69531 187.859 2.78125 186.469 2.10938 184.828C1.4375 183.188 1.10156 181.32 1.10156 179.227C1.10156 177.273 1.4375 175.484 2.10938 173.859C2.78125 172.219 3.69531 170.812 4.85156 169.641C6.02344 168.469 7.38281 167.562 8.92969 166.922C10.4922 166.266 12.1562 165.938 13.9219 165.938C14.7344 165.938 15.5391 166.039 16.3359 166.242C17.1328 166.445 17.9062 166.727 18.6562 167.086C19.4062 167.445 20.1172 167.867 20.7891 168.352C21.4766 168.836 22.1172 169.359 22.7109 169.922L25.1953 166.945H26.7422V192ZM20.2969 179.227C20.2969 178.352 20.125 177.508 19.7812 176.695C19.4531 175.867 19 175.141 18.4219 174.516C17.8438 173.875 17.1641 173.367 16.3828 172.992C15.6172 172.602 14.7969 172.406 13.9219 172.406C13.0469 172.406 12.2188 172.555 11.4375 172.852C10.6719 173.148 10 173.586 9.42188 174.164C8.85938 174.742 8.41406 175.461 8.08594 176.32C7.75781 177.164 7.59375 178.133 7.59375 179.227C7.59375 180.32 7.75781 181.297 8.08594 182.156C8.41406 183 8.85938 183.711 9.42188 184.289C10 184.867 10.6719 185.305 11.4375 185.602C12.2188 185.898 13.0469 186.047 13.9219 186.047C14.7969 186.047 15.6172 185.859 16.3828 185.484C17.1641 185.094 17.8438 184.586 18.4219 183.961C19 183.32 19.4531 182.594 19.7812 181.781C20.125 180.953 20.2969 180.102 20.2969 179.227ZM68.9512 171.891L64.2637 176.602C64.0294 175.945 63.7091 175.359 63.3028 174.844C62.8966 174.312 62.4356 173.867 61.92 173.508C61.42 173.148 60.8731 172.875 60.2794 172.688C59.6856 172.5 59.0762 172.406 58.4512 172.406C57.5762 172.406 56.7481 172.586 55.9669 172.945C55.2012 173.305 54.5294 173.812 53.9512 174.469C53.3887 175.109 52.9434 175.875 52.6153 176.766C52.2872 177.656 52.1231 178.641 52.1231 179.719C52.1231 180.594 52.2872 181.414 52.6153 182.18C52.9434 182.945 53.3887 183.617 53.9512 184.195C54.5294 184.773 55.2012 185.227 55.9669 185.555C56.7481 185.883 57.5762 186.047 58.4512 186.047C59.0762 186.047 59.6778 185.961 60.2559 185.789C60.8341 185.617 61.3731 185.375 61.8731 185.062C62.3887 184.734 62.8419 184.344 63.2325 183.891C63.6387 183.422 63.9669 182.906 64.2169 182.344L68.9044 187.055C68.3106 187.898 67.6231 188.656 66.8419 189.328C66.0762 190 65.2403 190.57 64.3341 191.039C63.4434 191.508 62.4981 191.859 61.4981 192.094C60.5137 192.344 59.4981 192.469 58.4512 192.469C56.6856 192.469 55.0216 192.141 53.4591 191.484C51.9122 190.812 50.5528 189.898 49.3809 188.742C48.2247 187.586 47.3106 186.234 46.6387 184.688C45.9669 183.141 45.6309 181.484 45.6309 179.719C45.6309 177.797 45.9669 176 46.6387 174.328C47.3106 172.656 48.2247 171.203 49.3809 169.969C50.5528 168.719 51.9122 167.734 53.4591 167.016C55.0216 166.297 56.6856 165.938 58.4512 165.938C59.4981 165.938 60.5216 166.07 61.5216 166.336C62.5372 166.602 63.4981 166.992 64.4044 167.508C65.3262 168.008 66.17 168.625 66.9356 169.359C67.7169 170.094 68.3887 170.938 68.9512 171.891ZM79.4972 192H73.0519V156.914H79.4972V192ZM92.9025 160.078C92.9025 160.672 92.7853 161.227 92.5509 161.742C92.3322 162.258 92.0275 162.711 91.6369 163.102C91.2462 163.477 90.7853 163.781 90.2541 164.016C89.7384 164.234 89.1837 164.344 88.59 164.344C87.9962 164.344 87.4337 164.234 86.9025 164.016C86.3869 163.781 85.9337 163.477 85.5431 163.102C85.1681 162.711 84.8634 162.258 84.6291 161.742C84.4103 161.227 84.3009 160.672 84.3009 160.078C84.3009 159.5 84.4103 158.953 84.6291 158.438C84.8634 157.906 85.1681 157.453 85.5431 157.078C85.9337 156.688 86.3869 156.383 86.9025 156.164C87.4337 155.93 87.9962 155.812 88.59 155.812C89.1837 155.812 89.7384 155.93 90.2541 156.164C90.7853 156.383 91.2462 156.688 91.6369 157.078C92.0275 157.453 92.3322 157.906 92.5509 158.438C92.7853 158.953 92.9025 159.5 92.9025 160.078ZM91.8009 192H85.3556V166.898H91.8009V192ZM119.597 171.891L114.909 176.602C114.675 175.945 114.355 175.359 113.948 174.844C113.542 174.312 113.081 173.867 112.566 173.508C112.066 173.148 111.519 172.875 110.925 172.688C110.331 172.5 109.722 172.406 109.097 172.406C108.222 172.406 107.394 172.586 106.613 172.945C105.847 173.305 105.175 173.812 104.597 174.469C104.034 175.109 103.589 175.875 103.261 176.766C102.933 177.656 102.769 178.641 102.769 179.719C102.769 180.594 102.933 181.414 103.261 182.18C103.589 182.945 104.034 183.617 104.597 184.195C105.175 184.773 105.847 185.227 106.613 185.555C107.394 185.883 108.222 186.047 109.097 186.047C109.722 186.047 110.323 185.961 110.902 185.789C111.48 185.617 112.019 185.375 112.519 185.062C113.034 184.734 113.488 184.344 113.878 183.891C114.284 183.422 114.613 182.906 114.863 182.344L119.55 187.055C118.956 187.898 118.269 188.656 117.488 189.328C116.722 190 115.886 190.57 114.98 191.039C114.089 191.508 113.144 191.859 112.144 192.094C111.159 192.344 110.144 192.469 109.097 192.469C107.331 192.469 105.667 192.141 104.105 191.484C102.558 190.812 101.198 189.898 100.027 188.742C98.8703 187.586 97.9563 186.234 97.2844 184.688C96.6125 183.141 96.2766 181.484 96.2766 179.719C96.2766 177.797 96.6125 176 97.2844 174.328C97.9563 172.656 98.8703 171.203 100.027 169.969C101.198 168.719 102.558 167.734 104.105 167.016C105.667 166.297 107.331 165.938 109.097 165.938C110.144 165.938 111.167 166.07 112.167 166.336C113.183 166.602 114.144 166.992 115.05 167.508C115.972 168.008 116.816 168.625 117.581 169.359C118.363 170.094 119.034 170.938 119.597 171.891ZM130.143 192H123.698V156.914H130.143V179.039L139.682 166.945H147.041L138.721 177.398L147.041 192H139.682L134.596 182.883L130.143 188.789V192ZM26.7422 242H25.1953L22.7109 238.555C22.1016 239.102 21.4531 239.617 20.7656 240.102C20.0938 240.57 19.3828 240.984 18.6328 241.344C17.8828 241.688 17.1094 241.961 16.3125 242.164C15.5312 242.367 14.7344 242.469 13.9219 242.469C12.1562 242.469 10.4922 242.172 8.92969 241.578C7.38281 240.984 6.02344 240.125 4.85156 239C3.69531 237.859 2.78125 236.469 2.10938 234.828C1.4375 233.188 1.10156 231.32 1.10156 229.227C1.10156 227.273 1.4375 225.484 2.10938 223.859C2.78125 222.219 3.69531 220.812 4.85156 219.641C6.02344 218.469 7.38281 217.562 8.92969 216.922C10.4922 216.266 12.1562 215.938 13.9219 215.938C14.7344 215.938 15.5391 216.039 16.3359 216.242C17.1328 216.445 17.9062 216.727 18.6562 217.086C19.4062 217.445 20.1172 217.867 20.7891 218.352C21.4766 218.836 22.1172 219.359 22.7109 219.922L25.1953 216.945H26.7422V242ZM20.2969 229.227C20.2969 228.352 20.125 227.508 19.7812 226.695C19.4531 225.867 19 225.141 18.4219 224.516C17.8438 223.875 17.1641 223.367 16.3828 222.992C15.6172 222.602 14.7969 222.406 13.9219 222.406C13.0469 222.406 12.2188 222.555 11.4375 222.852C10.6719 223.148 10 223.586 9.42188 224.164C8.85938 224.742 8.41406 225.461 8.08594 226.32C7.75781 227.164 7.59375 228.133 7.59375 229.227C7.59375 230.32 7.75781 231.297 8.08594 232.156C8.41406 233 8.85938 233.711 9.42188 234.289C10 234.867 10.6719 235.305 11.4375 235.602C12.2188 235.898 13.0469 236.047 13.9219 236.047C14.7969 236.047 15.6172 235.859 16.3828 235.484C17.1641 235.094 17.8438 234.586 18.4219 233.961C19 233.32 19.4531 232.594 19.7812 231.781C20.125 230.953 20.2969 230.102 20.2969 229.227ZM64.2881 232.93C64.2881 234.242 64.0381 235.484 63.5381 236.656C63.0381 237.812 62.3506 238.82 61.4756 239.68C60.6162 240.539 59.6006 241.219 58.4287 241.719C57.2725 242.219 56.0303 242.469 54.7022 242.469C53.5147 242.469 52.3741 242.266 51.2803 241.859C50.1866 241.438 49.1944 240.828 48.3037 240.031C47.4287 240.828 46.4444 241.438 45.3506 241.859C44.2725 242.266 43.1319 242.469 41.9287 242.469C40.6006 242.469 39.3584 242.219 38.2022 241.719C37.0459 241.219 36.0303 240.539 35.1553 239.68C34.2959 238.82 33.6162 237.812 33.1162 236.656C32.6162 235.484 32.3662 234.242 32.3662 232.93V216.945H38.7647V232.93C38.7647 233.367 38.8428 233.781 38.9991 234.172C39.1709 234.547 39.3975 234.883 39.6787 235.18C39.9756 235.461 40.3116 235.688 40.6866 235.859C41.0772 236.016 41.4912 236.094 41.9287 236.094C42.3662 236.094 42.7803 236.016 43.1709 235.859C43.5616 235.688 43.9053 235.461 44.2022 235.18C44.4991 234.883 44.7256 234.547 44.8819 234.172C45.0537 233.781 45.1397 233.367 45.1397 232.93V216.945H51.5147V232.93C51.5147 233.367 51.6006 233.781 51.7725 234.172C51.9444 234.547 52.1709 234.883 52.4522 235.18C52.7491 235.461 53.085 235.688 53.46 235.859C53.8506 236.016 54.2647 236.094 54.7022 236.094C55.1397 236.094 55.5537 236.016 55.9444 235.859C56.335 235.688 56.6709 235.461 56.9522 235.18C57.2491 234.883 57.4834 234.547 57.6553 234.172C57.8272 233.781 57.9131 233.367 57.9131 232.93V216.945H64.2881V232.93ZM94.1934 242H92.6466L90.1622 238.555C89.5528 239.102 88.9044 239.617 88.2169 240.102C87.545 240.57 86.8341 240.984 86.0841 241.344C85.3341 241.688 84.5606 241.961 83.7637 242.164C82.9825 242.367 82.1856 242.469 81.3731 242.469C79.6075 242.469 77.9434 242.172 76.3809 241.578C74.8341 240.984 73.4747 240.125 72.3028 239C71.1466 237.859 70.2325 236.469 69.5606 234.828C68.8887 233.188 68.5528 231.32 68.5528 229.227C68.5528 227.273 68.8887 225.484 69.5606 223.859C70.2325 222.219 71.1466 220.812 72.3028 219.641C73.4747 218.469 74.8341 217.562 76.3809 216.922C77.9434 216.266 79.6075 215.938 81.3731 215.938C82.1856 215.938 82.9903 216.039 83.7872 216.242C84.5841 216.445 85.3575 216.727 86.1075 217.086C86.8575 217.445 87.5684 217.867 88.2403 218.352C88.9278 218.836 89.5684 219.359 90.1622 219.922L92.6466 216.945H94.1934V242ZM87.7481 229.227C87.7481 228.352 87.5762 227.508 87.2325 226.695C86.9044 225.867 86.4512 225.141 85.8731 224.516C85.295 223.875 84.6153 223.367 83.8341 222.992C83.0684 222.602 82.2481 222.406 81.3731 222.406C80.4981 222.406 79.67 222.555 78.8887 222.852C78.1231 223.148 77.4512 223.586 76.8731 224.164C76.3106 224.742 75.8653 225.461 75.5372 226.32C75.2091 227.164 75.045 228.133 75.045 229.227C75.045 230.32 75.2091 231.297 75.5372 232.156C75.8653 233 76.3106 233.711 76.8731 234.289C77.4512 234.867 78.1231 235.305 78.8887 235.602C79.67 235.898 80.4981 236.047 81.3731 236.047C82.2481 236.047 83.0684 235.859 83.8341 235.484C84.6153 235.094 85.295 234.586 85.8731 233.961C86.4512 233.32 86.9044 232.594 87.2325 231.781C87.5762 230.953 87.7481 230.102 87.7481 229.227ZM106.099 251.562V245.117L109.661 245.164C110.286 245.164 110.888 245.062 111.466 244.859C112.044 244.656 112.575 244.375 113.06 244.016C113.56 243.656 113.997 243.227 114.372 242.727C114.747 242.242 115.052 241.711 115.286 241.133C114.583 241.43 113.864 241.727 113.13 242.023C112.411 242.32 111.685 242.469 110.95 242.469C109.403 242.469 107.95 242.195 106.591 241.648C105.232 241.102 104.036 240.328 103.005 239.328C101.989 238.312 101.185 237.086 100.591 235.648C100.013 234.195 99.7237 232.57 99.7237 230.773V216.898H106.099V230.773C106.099 231.664 106.224 232.445 106.474 233.117C106.739 233.773 107.091 234.328 107.528 234.781C107.966 235.219 108.474 235.547 109.052 235.766C109.646 235.984 110.278 236.094 110.95 236.094C111.607 236.094 112.224 235.945 112.802 235.648C113.396 235.336 113.911 234.93 114.349 234.43C114.786 233.93 115.13 233.367 115.38 232.742C115.63 232.102 115.755 231.445 115.755 230.773V216.898H122.2V238.836C122.185 240.602 121.841 242.258 121.169 243.805C120.497 245.352 119.575 246.703 118.403 247.859C117.247 249.016 115.896 249.93 114.349 250.602C112.802 251.273 111.146 251.609 109.38 251.609L106.099 251.562ZM135.934 239.609C135.934 240.172 135.832 240.703 135.629 241.203C135.426 241.688 135.145 242.109 134.785 242.469C134.426 242.828 134.004 243.109 133.52 243.312C133.035 243.531 132.512 243.641 131.949 243.641C131.402 243.641 130.879 243.531 130.379 243.312C129.895 243.109 129.465 242.828 129.09 242.469C128.731 242.109 128.442 241.688 128.223 241.203C128.02 240.703 127.918 240.172 127.918 239.609C127.918 239.062 128.02 238.547 128.223 238.062C128.442 237.578 128.731 237.156 129.09 236.797C129.465 236.438 129.895 236.156 130.379 235.953C130.879 235.734 131.402 235.625 131.949 235.625C132.512 235.625 133.035 235.734 133.52 235.953C134.004 236.156 134.426 236.438 134.785 236.797C135.145 237.156 135.426 237.578 135.629 238.062C135.832 238.547 135.934 239.062 135.934 239.609Z" fill="black"/>
<path d="M44.5762 198.375H161.525V199.336H44.5762V198.375Z" fill="black"/>
<g clip-path="url(#clip0)" filter="url(#filter0_d)">
<path d="M153.988 212.234L153.987 212.234L145.783 204.031L145.429 203.677L145.076 204.031L141.099 208.008C140.879 208.228 140.557 208.32 140.249 208.25C139.943 208.177 139.698 207.952 139.599 207.655L139.599 207.654L131.643 183.789L131.643 183.789C131.534 183.463 131.619 183.104 131.862 182.862C132.105 182.618 132.465 182.532 132.785 182.642L132.789 182.643L156.654 190.599L156.655 190.599C156.952 190.698 157.177 190.943 157.25 191.25C157.322 191.555 157.23 191.876 157.008 192.098L153.031 196.075L152.678 196.429L153.031 196.783L161.234 204.987L161.234 204.987C161.589 205.341 161.589 205.915 161.234 206.269L155.269 212.234L155.269 212.234C154.915 212.589 154.342 212.588 153.988 212.234Z" fill="white" stroke="black"/>
<path d="M132.281 176C131.642 176 131.125 175.483 131.125 174.844V166.406C131.125 165.767 131.642 165.25 132.281 165.25C132.92 165.25 133.438 165.767 133.438 166.406V174.844C133.438 175.483 132.92 176 132.281 176Z" fill="white" stroke="black" stroke-width="0.5"/>
<path d="M127.133 178.133L127.133 178.133C126.681 178.585 125.95 178.585 125.498 178.133L119.531 172.166C119.08 171.715 119.08 170.983 119.531 170.531C119.983 170.08 120.715 170.08 121.166 170.531L127.133 176.498C127.585 176.95 127.585 177.681 127.133 178.133Z" fill="white" stroke="black" stroke-width="0.5"/>
<path d="M119.531 196.031C119.08 195.58 119.08 194.848 119.531 194.396L125.498 188.429C125.95 187.978 126.681 187.978 127.133 188.429C127.585 188.881 127.585 189.613 127.133 190.064L121.166 196.031C120.715 196.483 119.983 196.483 119.531 196.031Z" fill="white" stroke="black" stroke-width="0.5"/>
<path d="M137.429 178.133C136.978 177.682 136.978 176.95 137.429 176.498L143.396 170.531C143.848 170.08 144.58 170.08 145.031 170.531C145.483 170.983 145.483 171.715 145.031 172.166L139.064 178.133C138.613 178.585 137.881 178.585 137.429 178.133Z" fill="white" stroke="black" stroke-width="0.5"/>
<path d="M123.844 184.438H115.406C114.767 184.438 114.25 183.92 114.25 183.281C114.25 182.642 114.767 182.125 115.406 182.125H123.844C124.483 182.125 125 182.642 125 183.281C125 183.92 124.483 184.438 123.844 184.438Z" fill="white" stroke="black" stroke-width="0.5"/>
</g>
<defs>
<filter id="filter0_d" x="110" y="165" width="56" height="56" filterUnits="userSpaceOnUse" color-interpolation-filters="sRGB">
<feFlood flood-opacity="0" result="BackgroundImageFix"/>
<feColorMatrix in="SourceAlpha" type="matrix" values="0 0 0 0 0 0 0 0 0 0 0 0 0 0 0 0 0 0 127 0"/>
<feOffset dy="4"/>
<feGaussianBlur stdDeviation="2"/>
<feColorMatrix type="matrix" values="0 0 0 0 0 0 0 0 0 0 0 0 0 0 0 0 0 0 0.25 0"/>
<feBlend mode="normal" in2="BackgroundImageFix" result="effect1_dropShadow"/>
<feBlend mode="normal" in="SourceGraphic" in2="effect1_dropShadow" result="shape"/>
</filter>
<clipPath id="clip0">
<rect width="48" height="48" fill="white" transform="translate(114 165)"/>
</clipPath>
</defs>
</svg>
