<svg width="231" height="252" viewBox="0 0 231 252" fill="none" xmlns="http://www.w3.org/2000/svg">
<path d="M9.84375 15.1172V28.5703H16.5703C17.4922 28.5703 18.3594 28.3984 19.1719 28.0547C19.9844 27.6953 20.6953 27.2109 21.3047 26.6016C21.9141 25.9922 22.3906 25.2812 22.7344 24.4688C23.0938 23.6406 23.2734 22.7656 23.2734 21.8438C23.2734 20.9219 23.0938 20.0547 22.7344 19.2422C22.3906 18.4141 21.9141 17.6953 21.3047 17.0859C20.6953 16.4766 19.9844 16 19.1719 15.6562C18.3594 15.2969 17.4922 15.1172 16.5703 15.1172H9.84375ZM9.84375 42H3.11719V8.39062H16.5703C17.8047 8.39062 18.9922 8.55469 20.1328 8.88281C21.2734 9.19531 22.3359 9.64844 23.3203 10.2422C24.3203 10.8203 25.2266 11.5234 26.0391 12.3516C26.8672 13.1641 27.5703 14.0703 28.1484 15.0703C28.7422 16.0703 29.1953 17.1406 29.5078 18.2812C29.8359 19.4219 30 20.6094 30 21.8438C30 23 29.8516 24.125 29.5547 25.2188C29.2734 26.3125 28.8594 27.3516 28.3125 28.3359C27.7812 29.3203 27.125 30.2266 26.3438 31.0547C25.5625 31.8828 24.6875 32.6016 23.7188 33.2109L27.4453 42H20.2969L17.3672 35.2266L9.84375 35.2734V42ZM44.8931 35.8594C45.1431 35.9375 45.3931 35.9922 45.6431 36.0234C45.8931 36.0391 46.1431 36.0469 46.3931 36.0469C47.0181 36.0469 47.6197 35.9609 48.1978 35.7891C48.7759 35.6172 49.315 35.375 49.815 35.0625C50.3306 34.7344 50.7837 34.3438 51.1744 33.8906C51.5806 33.4219 51.9087 32.9062 52.1587 32.3438L56.8462 37.0547C56.2525 37.8984 55.565 38.6562 54.7837 39.3281C54.0181 40 53.1822 40.5703 52.2759 41.0391C51.3853 41.5078 50.44 41.8594 49.44 42.0938C48.4556 42.3438 47.44 42.4688 46.3931 42.4688C44.6275 42.4688 42.9634 42.1406 41.4009 41.4844C39.8541 40.8281 38.4947 39.9141 37.3228 38.7422C36.1666 37.5703 35.2525 36.1797 34.5806 34.5703C33.9087 32.9453 33.5728 31.1641 33.5728 29.2266C33.5728 27.2422 33.9087 25.4297 34.5806 23.7891C35.2525 22.1484 36.1666 20.75 37.3228 19.5938C38.4947 18.4375 39.8541 17.5391 41.4009 16.8984C42.9634 16.2578 44.6275 15.9375 46.3931 15.9375C47.44 15.9375 48.4634 16.0625 49.4634 16.3125C50.4634 16.5625 51.4087 16.9219 52.2994 17.3906C53.2056 17.8594 54.0494 18.4375 54.8306 19.125C55.6119 19.7969 56.2994 20.5547 56.8931 21.3984L44.8931 35.8594ZM48.1744 22.6641C47.8775 22.5547 47.5806 22.4844 47.2837 22.4531C47.0025 22.4219 46.7056 22.4062 46.3931 22.4062C45.5181 22.4062 44.69 22.5703 43.9087 22.8984C43.1431 23.2109 42.4712 23.6641 41.8931 24.2578C41.3306 24.8516 40.8853 25.5703 40.5572 26.4141C40.2291 27.2422 40.065 28.1797 40.065 29.2266C40.065 29.4609 40.0728 29.7266 40.0884 30.0234C40.1197 30.3203 40.1587 30.625 40.2056 30.9375C40.2681 31.2344 40.3384 31.5234 40.4166 31.8047C40.4947 32.0859 40.5962 32.3359 40.7212 32.5547L48.1744 22.6641ZM68.0128 42H61.5675V6.91406H68.0128V42ZM81.8981 10.0781C81.8981 10.6719 81.7809 11.2266 81.5466 11.7422C81.3278 12.2578 81.0231 12.7109 80.6325 13.1016C80.2419 13.4766 79.7809 13.7812 79.2497 14.0156C78.7341 14.2344 78.1794 14.3438 77.5856 14.3438C76.9919 14.3438 76.4294 14.2344 75.8981 14.0156C75.3825 13.7812 74.9294 13.4766 74.5387 13.1016C74.1637 12.7109 73.8591 12.2578 73.6247 11.7422C73.4059 11.2266 73.2966 10.6719 73.2966 10.0781C73.2966 9.5 73.4059 8.95312 73.6247 8.4375C73.8591 7.90625 74.1637 7.45312 74.5387 7.07812C74.9294 6.6875 75.3825 6.38281 75.8981 6.16406C76.4294 5.92969 76.9919 5.8125 77.5856 5.8125C78.1794 5.8125 78.7341 5.92969 79.2497 6.16406C79.7809 6.38281 80.2419 6.6875 80.6325 7.07812C81.0231 7.45312 81.3278 7.90625 81.5466 8.4375C81.7809 8.95312 81.8981 9.5 81.8981 10.0781ZM80.7966 42H74.3512V16.8984H80.7966V42ZM111.44 42H109.893L107.408 38.5547C106.799 39.1016 106.151 39.6172 105.463 40.1016C104.791 40.5703 104.08 40.9844 103.33 41.3438C102.58 41.6875 101.807 41.9609 101.01 42.1641C100.229 42.3672 99.4319 42.4688 98.6194 42.4688C96.8538 42.4688 95.1897 42.1719 93.6272 41.5781C92.0803 40.9844 90.7209 40.125 89.5491 39C88.3928 37.8594 87.4788 36.4688 86.8069 34.8281C86.135 33.1875 85.7991 31.3203 85.7991 29.2266C85.7991 27.2734 86.135 25.4844 86.8069 23.8594C87.4788 22.2188 88.3928 20.8125 89.5491 19.6406C90.7209 18.4688 92.0803 17.5625 93.6272 16.9219C95.1897 16.2656 96.8538 15.9375 98.6194 15.9375C99.4319 15.9375 100.237 16.0391 101.033 16.2422C101.83 16.4453 102.604 16.7266 103.354 17.0859C104.104 17.4453 104.815 17.8672 105.487 18.3516C106.174 18.8359 106.815 19.3594 107.408 19.9219L109.893 16.9453H111.44V42ZM104.994 29.2266C104.994 28.3516 104.823 27.5078 104.479 26.6953C104.151 25.8672 103.698 25.1406 103.119 24.5156C102.541 23.875 101.862 23.3672 101.08 22.9922C100.315 22.6016 99.4944 22.4062 98.6194 22.4062C97.7444 22.4062 96.9163 22.5547 96.135 22.8516C95.3694 23.1484 94.6975 23.5859 94.1194 24.1641C93.5569 24.7422 93.1116 25.4609 92.7834 26.3203C92.4553 27.1641 92.2913 28.1328 92.2913 29.2266C92.2913 30.3203 92.4553 31.2969 92.7834 32.1562C93.1116 33 93.5569 33.7109 94.1194 34.2891C94.6975 34.8672 95.3694 35.3047 96.135 35.6016C96.9163 35.8984 97.7444 36.0469 98.6194 36.0469C99.4944 36.0469 100.315 35.8594 101.08 35.4844C101.862 35.0938 102.541 34.5859 103.119 33.9609C103.698 33.3203 104.151 32.5938 104.479 31.7812C104.823 30.9531 104.994 30.1016 104.994 29.2266ZM142.903 29.2266C142.903 31.1953 142.567 32.9922 141.895 34.6172C141.223 36.2422 140.309 37.6406 139.153 38.8125C137.997 39.9688 136.637 40.8672 135.075 41.5078C133.528 42.1484 131.864 42.4688 130.083 42.4688C128.317 42.4688 126.653 42.1406 125.091 41.4844C123.544 40.8281 122.184 39.9141 121.012 38.7422C119.856 37.5703 118.942 36.1797 118.27 34.5703C117.598 32.9453 117.262 31.1641 117.262 29.2266V6.91406H123.684V18.6328C124.028 18.1953 124.442 17.8047 124.927 17.4609C125.427 17.1172 125.958 16.8359 126.52 16.6172C127.098 16.3984 127.692 16.2344 128.302 16.125C128.911 16 129.505 15.9375 130.083 15.9375C131.864 15.9375 133.528 16.2734 135.075 16.9453C136.637 17.6016 137.997 18.5234 139.153 19.7109C140.309 20.8984 141.223 22.3047 141.895 23.9297C142.567 25.5391 142.903 27.3047 142.903 29.2266ZM136.458 29.2266C136.458 28.2578 136.286 27.3594 135.942 26.5312C135.614 25.6875 135.161 24.9609 134.583 24.3516C134.005 23.7422 133.325 23.2656 132.544 22.9219C131.778 22.5781 130.958 22.4062 130.083 22.4062C129.208 22.4062 128.38 22.6016 127.598 22.9922C126.833 23.3672 126.161 23.875 125.583 24.5156C125.005 25.1406 124.552 25.8672 124.223 26.6953C123.895 27.5078 123.731 28.3516 123.731 29.2266C123.731 30.1953 123.895 31.0938 124.223 31.9219C124.552 32.75 125.005 33.4688 125.583 34.0781C126.161 34.6875 126.833 35.1719 127.598 35.5312C128.38 35.875 129.208 36.0469 130.083 36.0469C130.958 36.0469 131.778 35.875 132.544 35.5312C133.325 35.1719 134.005 34.6875 134.583 34.0781C135.161 33.4688 135.614 32.75 135.942 31.9219C136.286 31.0938 136.458 30.1953 136.458 29.2266ZM154.351 42H147.906V6.91406H154.351V42ZM170.674 35.8594C170.924 35.9375 171.174 35.9922 171.424 36.0234C171.674 36.0391 171.924 36.0469 172.174 36.0469C172.799 36.0469 173.4 35.9609 173.978 35.7891C174.557 35.6172 175.096 35.375 175.596 35.0625C176.111 34.7344 176.564 34.3438 176.955 33.8906C177.361 33.4219 177.689 32.9062 177.939 32.3438L182.627 37.0547C182.033 37.8984 181.346 38.6562 180.564 39.3281C179.799 40 178.963 40.5703 178.057 41.0391C177.166 41.5078 176.221 41.8594 175.221 42.0938C174.236 42.3438 173.221 42.4688 172.174 42.4688C170.408 42.4688 168.744 42.1406 167.182 41.4844C165.635 40.8281 164.275 39.9141 163.103 38.7422C161.947 37.5703 161.033 36.1797 160.361 34.5703C159.689 32.9453 159.353 31.1641 159.353 29.2266C159.353 27.2422 159.689 25.4297 160.361 23.7891C161.033 22.1484 161.947 20.75 163.103 19.5938C164.275 18.4375 165.635 17.5391 167.182 16.8984C168.744 16.2578 170.408 15.9375 172.174 15.9375C173.221 15.9375 174.244 16.0625 175.244 16.3125C176.244 16.5625 177.189 16.9219 178.08 17.3906C178.986 17.8594 179.83 18.4375 180.611 19.125C181.393 19.7969 182.08 20.5547 182.674 21.3984L170.674 35.8594ZM173.955 22.6641C173.658 22.5547 173.361 22.4844 173.064 22.4531C172.783 22.4219 172.486 22.4062 172.174 22.4062C171.299 22.4062 170.471 22.5703 169.689 22.8984C168.924 23.2109 168.252 23.6641 167.674 24.2578C167.111 24.8516 166.666 25.5703 166.338 26.4141C166.01 27.2422 165.846 28.1797 165.846 29.2266C165.846 29.4609 165.853 29.7266 165.869 30.0234C165.9 30.3203 165.939 30.625 165.986 30.9375C166.049 31.2344 166.119 31.5234 166.197 31.8047C166.275 32.0859 166.377 32.3359 166.502 32.5547L173.955 22.6641ZM16.2188 92H1.59375V85.625H16.2188C16.6562 85.625 17.0312 85.4688 17.3438 85.1562C17.6562 84.8438 17.8125 84.4688 17.8125 84.0312C17.8125 83.5781 17.6562 83.2812 17.3438 83.1406C17.0312 83 16.6562 82.9297 16.2188 82.9297H9.5625C8.45312 82.9297 7.41406 82.7188 6.44531 82.2969C5.47656 81.875 4.63281 81.3047 3.91406 80.5859C3.19531 79.8516 2.625 79 2.20312 78.0312C1.79688 77.0625 1.59375 76.0234 1.59375 74.9141C1.59375 73.8047 1.79688 72.7656 2.20312 71.7969C2.625 70.8281 3.19531 69.9844 3.91406 69.2656C4.63281 68.5469 5.47656 67.9844 6.44531 67.5781C7.41406 67.1562 8.45312 66.9453 9.5625 66.9453H22.5234V73.3203H9.5625C9.125 73.3203 8.75 73.4766 8.4375 73.7891C8.125 74.1016 7.96875 74.4766 7.96875 74.9141C7.96875 75.3672 8.125 75.7578 8.4375 76.0859C8.75 76.3984 9.125 76.5547 9.5625 76.5547H16.2188C17.3125 76.5547 18.3438 76.7422 19.3125 77.1172C20.2812 77.4766 21.125 77.9844 21.8438 78.6406C22.5625 79.2969 23.1328 80.0859 23.5547 81.0078C23.9766 81.9297 24.1875 82.9375 24.1875 84.0312C24.1875 85.1406 23.9766 86.1797 23.5547 87.1484C23.1328 88.1016 22.5625 88.9453 21.8438 89.6797C21.125 90.3984 20.2812 90.9688 19.3125 91.3906C18.3438 91.7969 17.3125 92 16.2188 92ZM53.3072 79.2266C53.3072 81.1016 52.9713 82.8516 52.2994 84.4766C51.6275 86.0859 50.7134 87.4844 49.5572 88.6719C48.4009 89.8438 47.0416 90.7734 45.4791 91.4609C43.9322 92.1328 42.2681 92.4688 40.4869 92.4688C38.7213 92.4688 37.0572 92.1328 35.4947 91.4609C33.9478 90.7734 32.5884 89.8438 31.4166 88.6719C30.2603 87.4844 29.3463 86.0859 28.6744 84.4766C28.0025 82.8516 27.6666 81.1016 27.6666 79.2266C27.6666 77.3203 28.0025 75.5547 28.6744 73.9297C29.3463 72.3047 30.2603 70.9062 31.4166 69.7344C32.5884 68.5469 33.9478 67.6172 35.4947 66.9453C37.0572 66.2734 38.7213 65.9375 40.4869 65.9375C42.2681 65.9375 43.9322 66.2578 45.4791 66.8984C47.0416 67.5234 48.4009 68.4219 49.5572 69.5938C50.7134 70.75 51.6275 72.1484 52.2994 73.7891C52.9713 75.4141 53.3072 77.2266 53.3072 79.2266ZM46.8619 79.2266C46.8619 78.1953 46.69 77.2656 46.3463 76.4375C46.0181 75.5938 45.565 74.875 44.9869 74.2812C44.4088 73.6719 43.7291 73.2109 42.9478 72.8984C42.1822 72.5703 41.3619 72.4062 40.4869 72.4062C39.6119 72.4062 38.7838 72.5703 38.0025 72.8984C37.2369 73.2109 36.565 73.6719 35.9869 74.2812C35.4244 74.875 34.9791 75.5938 34.6509 76.4375C34.3228 77.2656 34.1588 78.1953 34.1588 79.2266C34.1588 80.1953 34.3228 81.0938 34.6509 81.9219C34.9791 82.75 35.4244 83.4688 35.9869 84.0781C36.565 84.6875 37.2369 85.1719 38.0025 85.5312C38.7838 85.875 39.6119 86.0469 40.4869 86.0469C41.3619 86.0469 42.1822 85.8828 42.9478 85.5547C43.7291 85.2266 44.4088 84.7656 44.9869 84.1719C45.565 83.5781 46.0181 82.8594 46.3463 82.0156C46.69 81.1719 46.8619 80.2422 46.8619 79.2266ZM66.1378 92H59.7394V73.2734H56.6222V66.8984H59.7394V65.7031C59.7394 64.1562 60.0284 62.7031 60.6066 61.3438C61.2003 59.9844 62.005 58.8047 63.0206 57.8047C64.0519 56.7891 65.2472 55.9922 66.6066 55.4141C67.9659 54.8203 69.4191 54.5234 70.9659 54.5234H75.7706V60.8984H70.9659C70.2784 60.8984 69.6378 61.0234 69.0441 61.2734C68.4659 61.5078 67.9581 61.8438 67.5206 62.2812C67.0988 62.7031 66.7628 63.2109 66.5128 63.8047C66.2628 64.3828 66.1378 65.0156 66.1378 65.7031V66.8984H73.9894V73.2734H66.1378V92ZM91.0622 92C89.5153 92 88.0622 91.7109 86.7028 91.1328C85.3434 90.5391 84.1481 89.7344 83.1169 88.7188C82.1012 87.6875 81.2966 86.4922 80.7028 85.1328C80.1247 83.7734 79.8356 82.3203 79.8356 80.7734V73.3203H76.7184V66.9453H79.8356V56.9141H86.2106V66.9453H95.9137V73.3203H86.2106V80.7734C86.2106 81.4453 86.3356 82.0781 86.5856 82.6719C86.8356 83.25 87.1794 83.7578 87.6169 84.1953C88.0544 84.6328 88.57 84.9844 89.1637 85.25C89.7575 85.5 90.3903 85.625 91.0622 85.625H95.9137V92H91.0622ZM132.651 82.9297C132.651 84.2422 132.401 85.4844 131.901 86.6562C131.401 87.8125 130.713 88.8203 129.838 89.6797C128.979 90.5391 127.963 91.2188 126.791 91.7188C125.635 92.2188 124.393 92.4688 123.065 92.4688C121.877 92.4688 120.737 92.2656 119.643 91.8594C118.549 91.4375 117.557 90.8281 116.666 90.0312C115.791 90.8281 114.807 91.4375 113.713 91.8594C112.635 92.2656 111.494 92.4688 110.291 92.4688C108.963 92.4688 107.721 92.2188 106.565 91.7188C105.408 91.2188 104.393 90.5391 103.518 89.6797C102.658 88.8203 101.979 87.8125 101.479 86.6562C100.979 85.4844 100.729 84.2422 100.729 82.9297V66.9453H107.127V82.9297C107.127 83.3672 107.205 83.7812 107.362 84.1719C107.533 84.5469 107.76 84.8828 108.041 85.1797C108.338 85.4609 108.674 85.6875 109.049 85.8594C109.44 86.0156 109.854 86.0938 110.291 86.0938C110.729 86.0938 111.143 86.0156 111.533 85.8594C111.924 85.6875 112.268 85.4609 112.565 85.1797C112.862 84.8828 113.088 84.5469 113.244 84.1719C113.416 83.7812 113.502 83.3672 113.502 82.9297V66.9453H119.877V82.9297C119.877 83.3672 119.963 83.7812 120.135 84.1719C120.307 84.5469 120.533 84.8828 120.815 85.1797C121.112 85.4609 121.448 85.6875 121.823 85.8594C122.213 86.0156 122.627 86.0938 123.065 86.0938C123.502 86.0938 123.916 86.0156 124.307 85.8594C124.698 85.6875 125.033 85.4609 125.315 85.1797C125.612 84.8828 125.846 84.5469 126.018 84.1719C126.19 83.7812 126.276 83.3672 126.276 82.9297V66.9453H132.651V82.9297ZM163.036 92H161.489L159.005 88.5547C158.395 89.1016 157.747 89.6172 157.059 90.1016C156.387 90.5703 155.677 90.9844 154.927 91.3438C154.177 91.6875 153.403 91.9609 152.606 92.1641C151.825 92.3672 151.028 92.4688 150.216 92.4688C148.45 92.4688 146.786 92.1719 145.223 91.5781C143.677 90.9844 142.317 90.125 141.145 89C139.989 87.8594 139.075 86.4688 138.403 84.8281C137.731 83.1875 137.395 81.3203 137.395 79.2266C137.395 77.2734 137.731 75.4844 138.403 73.8594C139.075 72.2188 139.989 70.8125 141.145 69.6406C142.317 68.4688 143.677 67.5625 145.223 66.9219C146.786 66.2656 148.45 65.9375 150.216 65.9375C151.028 65.9375 151.833 66.0391 152.63 66.2422C153.427 66.4453 154.2 66.7266 154.95 67.0859C155.7 67.4453 156.411 67.8672 157.083 68.3516C157.77 68.8359 158.411 69.3594 159.005 69.9219L161.489 66.9453H163.036V92ZM156.591 79.2266C156.591 78.3516 156.419 77.5078 156.075 76.6953C155.747 75.8672 155.294 75.1406 154.716 74.5156C154.137 73.875 153.458 73.3672 152.677 72.9922C151.911 72.6016 151.091 72.4062 150.216 72.4062C149.341 72.4062 148.512 72.5547 147.731 72.8516C146.966 73.1484 146.294 73.5859 145.716 74.1641C145.153 74.7422 144.708 75.4609 144.38 76.3203C144.052 77.1641 143.887 78.1328 143.887 79.2266C143.887 80.3203 144.052 81.2969 144.38 82.1562C144.708 83 145.153 83.7109 145.716 84.2891C146.294 84.8672 146.966 85.3047 147.731 85.6016C148.512 85.8984 149.341 86.0469 150.216 86.0469C151.091 86.0469 151.911 85.8594 152.677 85.4844C153.458 85.0938 154.137 84.5859 154.716 83.9609C155.294 83.3203 155.747 82.5938 156.075 81.7812C156.419 80.9531 156.591 80.1016 156.591 79.2266ZM175.773 92H169.374V66.8984H170.921L173.031 69.875C174.062 68.9375 175.234 68.2188 176.546 67.7188C177.859 67.2031 179.218 66.9453 180.624 66.9453H186.273V73.3203H180.624C179.952 73.3203 179.32 73.4453 178.726 73.6953C178.132 73.9453 177.617 74.2891 177.179 74.7266C176.742 75.1641 176.398 75.6797 176.148 76.2734C175.898 76.8672 175.773 77.5 175.773 78.1719V92ZM200.205 85.8594C200.455 85.9375 200.705 85.9922 200.955 86.0234C201.205 86.0391 201.455 86.0469 201.705 86.0469C202.33 86.0469 202.932 85.9609 203.51 85.7891C204.088 85.6172 204.627 85.375 205.127 85.0625C205.643 84.7344 206.096 84.3438 206.486 83.8906C206.893 83.4219 207.221 82.9062 207.471 82.3438L212.158 87.0547C211.564 87.8984 210.877 88.6562 210.096 89.3281C209.33 90 208.494 90.5703 207.588 91.0391C206.697 91.5078 205.752 91.8594 204.752 92.0938C203.768 92.3438 202.752 92.4688 201.705 92.4688C199.939 92.4688 198.275 92.1406 196.713 91.4844C195.166 90.8281 193.807 89.9141 192.635 88.7422C191.478 87.5703 190.564 86.1797 189.893 84.5703C189.221 82.9453 188.885 81.1641 188.885 79.2266C188.885 77.2422 189.221 75.4297 189.893 73.7891C190.564 72.1484 191.478 70.75 192.635 69.5938C193.807 68.4375 195.166 67.5391 196.713 66.8984C198.275 66.2578 199.939 65.9375 201.705 65.9375C202.752 65.9375 203.775 66.0625 204.775 66.3125C205.775 66.5625 206.721 66.9219 207.611 67.3906C208.518 67.8594 209.361 68.4375 210.143 69.125C210.924 69.7969 211.611 70.5547 212.205 71.3984L200.205 85.8594ZM203.486 72.6641C203.189 72.5547 202.893 72.4844 202.596 72.4531C202.314 72.4219 202.018 72.4062 201.705 72.4062C200.83 72.4062 200.002 72.5703 199.221 72.8984C198.455 73.2109 197.783 73.6641 197.205 74.2578C196.643 74.8516 196.197 75.5703 195.869 76.4141C195.541 77.2422 195.377 78.1797 195.377 79.2266C195.377 79.4609 195.385 79.7266 195.4 80.0234C195.432 80.3203 195.471 80.625 195.518 80.9375C195.58 81.2344 195.65 81.5234 195.728 81.8047C195.807 82.0859 195.908 82.3359 196.033 82.5547L203.486 72.6641ZM16.2188 142H1.59375V135.625H16.2188C16.6562 135.625 17.0312 135.469 17.3438 135.156C17.6562 134.844 17.8125 134.469 17.8125 134.031C17.8125 133.578 17.6562 133.281 17.3438 133.141C17.0312 133 16.6562 132.93 16.2188 132.93H9.5625C8.45312 132.93 7.41406 132.719 6.44531 132.297C5.47656 131.875 4.63281 131.305 3.91406 130.586C3.19531 129.852 2.625 129 2.20312 128.031C1.79688 127.062 1.59375 126.023 1.59375 124.914C1.59375 123.805 1.79688 122.766 2.20312 121.797C2.625 120.828 3.19531 119.984 3.91406 119.266C4.63281 118.547 5.47656 117.984 6.44531 117.578C7.41406 117.156 8.45312 116.945 9.5625 116.945H22.5234V123.32H9.5625C9.125 123.32 8.75 123.477 8.4375 123.789C8.125 124.102 7.96875 124.477 7.96875 124.914C7.96875 125.367 8.125 125.758 8.4375 126.086C8.75 126.398 9.125 126.555 9.5625 126.555H16.2188C17.3125 126.555 18.3438 126.742 19.3125 127.117C20.2812 127.477 21.125 127.984 21.8438 128.641C22.5625 129.297 23.1328 130.086 23.5547 131.008C23.9766 131.93 24.1875 132.938 24.1875 134.031C24.1875 135.141 23.9766 136.18 23.5547 137.148C23.1328 138.102 22.5625 138.945 21.8438 139.68C21.125 140.398 20.2812 140.969 19.3125 141.391C18.3438 141.797 17.3125 142 16.2188 142ZM53.3072 129.227C53.3072 131.102 52.9713 132.852 52.2994 134.477C51.6275 136.086 50.7134 137.484 49.5572 138.672C48.4009 139.844 47.0416 140.773 45.4791 141.461C43.9322 142.133 42.2681 142.469 40.4869 142.469C38.7213 142.469 37.0572 142.133 35.4947 141.461C33.9478 140.773 32.5884 139.844 31.4166 138.672C30.2603 137.484 29.3463 136.086 28.6744 134.477C28.0025 132.852 27.6666 131.102 27.6666 129.227C27.6666 127.32 28.0025 125.555 28.6744 123.93C29.3463 122.305 30.2603 120.906 31.4166 119.734C32.5884 118.547 33.9478 117.617 35.4947 116.945C37.0572 116.273 38.7213 115.938 40.4869 115.938C42.2681 115.938 43.9322 116.258 45.4791 116.898C47.0416 117.523 48.4009 118.422 49.5572 119.594C50.7134 120.75 51.6275 122.148 52.2994 123.789C52.9713 125.414 53.3072 127.227 53.3072 129.227ZM46.8619 129.227C46.8619 128.195 46.69 127.266 46.3463 126.438C46.0181 125.594 45.565 124.875 44.9869 124.281C44.4088 123.672 43.7291 123.211 42.9478 122.898C42.1822 122.57 41.3619 122.406 40.4869 122.406C39.6119 122.406 38.7838 122.57 38.0025 122.898C37.2369 123.211 36.565 123.672 35.9869 124.281C35.4244 124.875 34.9791 125.594 34.6509 126.438C34.3228 127.266 34.1588 128.195 34.1588 129.227C34.1588 130.195 34.3228 131.094 34.6509 131.922C34.9791 132.75 35.4244 133.469 35.9869 134.078C36.565 134.688 37.2369 135.172 38.0025 135.531C38.7838 135.875 39.6119 136.047 40.4869 136.047C41.3619 136.047 42.1822 135.883 42.9478 135.555C43.7291 135.227 44.4088 134.766 44.9869 134.172C45.565 133.578 46.0181 132.859 46.3463 132.016C46.69 131.172 46.8619 130.242 46.8619 129.227ZM64.7316 142H58.2863V106.914H64.7316V142ZM89.5153 139.07C88.9997 139.539 88.445 139.984 87.8512 140.406C87.2731 140.812 86.6637 141.172 86.0231 141.484C85.3825 141.781 84.7184 142.016 84.0309 142.188C83.3591 142.375 82.6716 142.469 81.9684 142.469C80.4216 142.469 78.9684 142.195 77.6091 141.648C76.2497 141.102 75.0544 140.328 74.0231 139.328C73.0075 138.312 72.2028 137.086 71.6091 135.648C71.0309 134.195 70.7419 132.57 70.7419 130.773V116.898H77.1169V130.773C77.1169 131.617 77.2419 132.375 77.4919 133.047C77.7575 133.703 78.1091 134.258 78.5466 134.711C78.9841 135.164 79.4919 135.508 80.07 135.742C80.6637 135.977 81.2966 136.094 81.9684 136.094C82.6247 136.094 83.2419 135.945 83.82 135.648C84.4137 135.336 84.9294 134.93 85.3669 134.43C85.8044 133.93 86.1481 133.367 86.3981 132.742C86.6481 132.102 86.7731 131.445 86.7731 130.773V116.898H93.1716V142H91.6247L89.5153 139.07ZM112.096 142C110.549 142 109.096 141.711 107.737 141.133C106.377 140.539 105.182 139.734 104.151 138.719C103.135 137.688 102.33 136.492 101.737 135.133C101.158 133.773 100.869 132.32 100.869 130.773V123.32H97.7522V116.945H100.869V106.914H107.244V116.945H116.948V123.32H107.244V130.773C107.244 131.445 107.369 132.078 107.619 132.672C107.869 133.25 108.213 133.758 108.651 134.195C109.088 134.633 109.604 134.984 110.198 135.25C110.791 135.5 111.424 135.625 112.096 135.625H116.948V142H112.096ZM129.544 110.078C129.544 110.672 129.427 111.227 129.192 111.742C128.973 112.258 128.669 112.711 128.278 113.102C127.887 113.477 127.427 113.781 126.895 114.016C126.38 114.234 125.825 114.344 125.231 114.344C124.637 114.344 124.075 114.234 123.544 114.016C123.028 113.781 122.575 113.477 122.184 113.102C121.809 112.711 121.505 112.258 121.27 111.742C121.052 111.227 120.942 110.672 120.942 110.078C120.942 109.5 121.052 108.953 121.27 108.438C121.505 107.906 121.809 107.453 122.184 107.078C122.575 106.688 123.028 106.383 123.544 106.164C124.075 105.93 124.637 105.812 125.231 105.812C125.825 105.812 126.38 105.93 126.895 106.164C127.427 106.383 127.887 106.688 128.278 107.078C128.669 107.453 128.973 107.906 129.192 108.438C129.427 108.953 129.544 109.5 129.544 110.078ZM128.442 142H121.997V116.898H128.442V142ZM159.038 129.227C159.038 131.102 158.702 132.852 158.031 134.477C157.359 136.086 156.445 137.484 155.288 138.672C154.132 139.844 152.773 140.773 151.21 141.461C149.663 142.133 147.999 142.469 146.218 142.469C144.452 142.469 142.788 142.133 141.226 141.461C139.679 140.773 138.32 139.844 137.148 138.672C135.992 137.484 135.077 136.086 134.406 134.477C133.734 132.852 133.398 131.102 133.398 129.227C133.398 127.32 133.734 125.555 134.406 123.93C135.077 122.305 135.992 120.906 137.148 119.734C138.32 118.547 139.679 117.617 141.226 116.945C142.788 116.273 144.452 115.938 146.218 115.938C147.999 115.938 149.663 116.258 151.21 116.898C152.773 117.523 154.132 118.422 155.288 119.594C156.445 120.75 157.359 122.148 158.031 123.789C158.702 125.414 159.038 127.227 159.038 129.227ZM152.593 129.227C152.593 128.195 152.421 127.266 152.077 126.438C151.749 125.594 151.296 124.875 150.718 124.281C150.14 123.672 149.46 123.211 148.679 122.898C147.913 122.57 147.093 122.406 146.218 122.406C145.343 122.406 144.515 122.57 143.734 122.898C142.968 123.211 142.296 123.672 141.718 124.281C141.156 124.875 140.71 125.594 140.382 126.438C140.054 127.266 139.89 128.195 139.89 129.227C139.89 130.195 140.054 131.094 140.382 131.922C140.71 132.75 141.156 133.469 141.718 134.078C142.296 134.688 142.968 135.172 143.734 135.531C144.515 135.875 145.343 136.047 146.218 136.047C147.093 136.047 147.913 135.883 148.679 135.555C149.46 135.227 150.14 134.766 150.718 134.172C151.296 133.578 151.749 132.859 152.077 132.016C152.421 131.172 152.593 130.242 152.593 129.227ZM170.416 142H164.018V116.898H165.564L167.674 119.336C168.705 118.398 169.869 117.68 171.166 117.18C172.478 116.664 173.846 116.406 175.268 116.406C176.799 116.406 178.244 116.703 179.603 117.297C180.963 117.875 182.15 118.68 183.166 119.711C184.182 120.727 184.978 121.922 185.557 123.297C186.15 124.656 186.447 126.109 186.447 127.656V142H180.049V127.656C180.049 127 179.924 126.383 179.674 125.805C179.424 125.211 179.08 124.695 178.643 124.258C178.205 123.82 177.697 123.477 177.119 123.227C176.541 122.977 175.924 122.852 175.268 122.852C174.596 122.852 173.963 122.977 173.369 123.227C172.775 123.477 172.26 123.82 171.822 124.258C171.385 124.695 171.041 125.211 170.791 125.805C170.541 126.383 170.416 127 170.416 127.656V142ZM206.239 142H191.614V135.625H206.239C206.676 135.625 207.051 135.469 207.364 135.156C207.676 134.844 207.833 134.469 207.833 134.031C207.833 133.578 207.676 133.281 207.364 133.141C207.051 133 206.676 132.93 206.239 132.93H199.583C198.473 132.93 197.434 132.719 196.465 132.297C195.497 131.875 194.653 131.305 193.934 130.586C193.215 129.852 192.645 129 192.223 128.031C191.817 127.062 191.614 126.023 191.614 124.914C191.614 123.805 191.817 122.766 192.223 121.797C192.645 120.828 193.215 119.984 193.934 119.266C194.653 118.547 195.497 117.984 196.465 117.578C197.434 117.156 198.473 116.945 199.583 116.945H212.543V123.32H199.583C199.145 123.32 198.77 123.477 198.458 123.789C198.145 124.102 197.989 124.477 197.989 124.914C197.989 125.367 198.145 125.758 198.458 126.086C198.77 126.398 199.145 126.555 199.583 126.555H206.239C207.333 126.555 208.364 126.742 209.333 127.117C210.301 127.477 211.145 127.984 211.864 128.641C212.583 129.297 213.153 130.086 213.575 131.008C213.997 131.93 214.208 132.938 214.208 134.031C214.208 135.141 213.997 136.18 213.575 137.148C213.153 138.102 212.583 138.945 211.864 139.68C211.145 140.398 210.301 140.969 209.333 141.391C208.364 141.797 207.333 142 206.239 142ZM226.944 139.609C226.944 140.297 226.874 141.039 226.733 141.836C226.608 142.617 226.398 143.391 226.101 144.156C225.819 144.938 225.444 145.672 224.976 146.359C224.523 147.062 223.968 147.656 223.312 148.141L220.757 146.359C221.194 145.859 221.523 145.383 221.741 144.93C221.96 144.492 222.132 144.047 222.257 143.594C221.788 143.5 221.351 143.336 220.944 143.102C220.538 142.867 220.187 142.57 219.89 142.211C219.593 141.867 219.358 141.477 219.187 141.039C219.015 140.586 218.929 140.109 218.929 139.609C218.929 139.062 219.03 138.547 219.233 138.062C219.452 137.578 219.741 137.156 220.101 136.797C220.476 136.438 220.898 136.156 221.366 135.953C221.851 135.734 222.366 135.625 222.913 135.625C223.476 135.625 223.999 135.734 224.483 135.953C224.983 136.156 225.413 136.438 225.773 136.797C226.148 137.156 226.437 137.578 226.64 138.062C226.843 138.547 226.944 139.062 226.944 139.609ZM26.7422 192H25.1953L22.7109 188.555C22.1016 189.102 21.4531 189.617 20.7656 190.102C20.0938 190.57 19.3828 190.984 18.6328 191.344C17.8828 191.688 17.1094 191.961 16.3125 192.164C15.5312 192.367 14.7344 192.469 13.9219 192.469C12.1562 192.469 10.4922 192.172 8.92969 191.578C7.38281 190.984 6.02344 190.125 4.85156 189C3.69531 187.859 2.78125 186.469 2.10938 184.828C1.4375 183.188 1.10156 181.32 1.10156 179.227C1.10156 177.273 1.4375 175.484 2.10938 173.859C2.78125 172.219 3.69531 170.812 4.85156 169.641C6.02344 168.469 7.38281 167.562 8.92969 166.922C10.4922 166.266 12.1562 165.938 13.9219 165.938C14.7344 165.938 15.5391 166.039 16.3359 166.242C17.1328 166.445 17.9062 166.727 18.6562 167.086C19.4062 167.445 20.1172 167.867 20.7891 168.352C21.4766 168.836 22.1172 169.359 22.7109 169.922L25.1953 166.945H26.7422V192ZM20.2969 179.227C20.2969 178.352 20.125 177.508 19.7812 176.695C19.4531 175.867 19 175.141 18.4219 174.516C17.8438 173.875 17.1641 173.367 16.3828 172.992C15.6172 172.602 14.7969 172.406 13.9219 172.406C13.0469 172.406 12.2188 172.555 11.4375 172.852C10.6719 173.148 10 173.586 9.42188 174.164C8.85938 174.742 8.41406 175.461 8.08594 176.32C7.75781 177.164 7.59375 178.133 7.59375 179.227C7.59375 180.32 7.75781 181.297 8.08594 182.156C8.41406 183 8.85938 183.711 9.42188 184.289C10 184.867 10.6719 185.305 11.4375 185.602C12.2188 185.898 13.0469 186.047 13.9219 186.047C14.7969 186.047 15.6172 185.859 16.3828 185.484C17.1641 185.094 17.8438 184.586 18.4219 183.961C19 183.32 19.4531 182.594 19.7812 181.781C20.125 180.953 20.2969 180.102 20.2969 179.227ZM69.9113 171.891L65.2238 176.602C64.9894 175.945 64.6691 175.359 64.2628 174.844C63.8566 174.312 63.3956 173.867 62.88 173.508C62.38 173.148 61.8331 172.875 61.2394 172.688C60.6456 172.5 60.0363 172.406 59.4113 172.406C58.5363 172.406 57.7081 172.586 56.9269 172.945C56.1613 173.305 55.4894 173.812 54.9113 174.469C54.3488 175.109 53.9034 175.875 53.5753 176.766C53.2472 177.656 53.0831 178.641 53.0831 179.719C53.0831 180.594 53.2472 181.414 53.5753 182.18C53.9034 182.945 54.3488 183.617 54.9113 184.195C55.4894 184.773 56.1613 185.227 56.9269 185.555C57.7081 185.883 58.5363 186.047 59.4113 186.047C60.0363 186.047 60.6378 185.961 61.2159 185.789C61.7941 185.617 62.3331 185.375 62.8331 185.062C63.3488 184.734 63.8019 184.344 64.1925 183.891C64.5988 183.422 64.9269 182.906 65.1769 182.344L69.8644 187.055C69.2706 187.898 68.5831 188.656 67.8019 189.328C67.0363 190 66.2003 190.57 65.2941 191.039C64.4034 191.508 63.4581 191.859 62.4581 192.094C61.4738 192.344 60.4581 192.469 59.4113 192.469C57.6456 192.469 55.9816 192.141 54.4191 191.484C52.8722 190.812 51.5128 189.898 50.3409 188.742C49.1847 187.586 48.2706 186.234 47.5988 184.688C46.9269 183.141 46.5909 181.484 46.5909 179.719C46.5909 177.797 46.9269 176 47.5988 174.328C48.2706 172.656 49.1847 171.203 50.3409 169.969C51.5128 168.719 52.8722 167.734 54.4191 167.016C55.9816 166.297 57.6456 165.938 59.4113 165.938C60.4581 165.938 61.4816 166.07 62.4816 166.336C63.4972 166.602 64.4581 166.992 65.3644 167.508C66.2863 168.008 67.13 168.625 67.8956 169.359C68.6769 170.094 69.3488 170.938 69.9113 171.891ZM80.9372 192H74.4919V156.914H80.9372V192ZM94.8225 160.078C94.8225 160.672 94.7053 161.227 94.4709 161.742C94.2522 162.258 93.9475 162.711 93.5569 163.102C93.1663 163.477 92.7053 163.781 92.1741 164.016C91.6584 164.234 91.1038 164.344 90.51 164.344C89.9163 164.344 89.3538 164.234 88.8225 164.016C88.3069 163.781 87.8538 163.477 87.4631 163.102C87.0881 162.711 86.7834 162.258 86.5491 161.742C86.3303 161.227 86.2209 160.672 86.2209 160.078C86.2209 159.5 86.3303 158.953 86.5491 158.438C86.7834 157.906 87.0881 157.453 87.4631 157.078C87.8538 156.688 88.3069 156.383 88.8225 156.164C89.3538 155.93 89.9163 155.812 90.51 155.812C91.1038 155.812 91.6584 155.93 92.1741 156.164C92.7053 156.383 93.1663 156.688 93.5569 157.078C93.9475 157.453 94.2522 157.906 94.4709 158.438C94.7053 158.953 94.8225 159.5 94.8225 160.078ZM93.7209 192H87.2756V166.898H93.7209V192ZM121.997 171.891L117.309 176.602C117.075 175.945 116.755 175.359 116.348 174.844C115.942 174.312 115.481 173.867 114.966 173.508C114.466 173.148 113.919 172.875 113.325 172.688C112.731 172.5 112.122 172.406 111.497 172.406C110.622 172.406 109.794 172.586 109.012 172.945C108.247 173.305 107.575 173.812 106.997 174.469C106.434 175.109 105.989 175.875 105.661 176.766C105.333 177.656 105.169 178.641 105.169 179.719C105.169 180.594 105.333 181.414 105.661 182.18C105.989 182.945 106.434 183.617 106.997 184.195C107.575 184.773 108.247 185.227 109.012 185.555C109.794 185.883 110.622 186.047 111.497 186.047C112.122 186.047 112.723 185.961 113.302 185.789C113.88 185.617 114.419 185.375 114.919 185.062C115.434 184.734 115.887 184.344 116.278 183.891C116.684 183.422 117.012 182.906 117.262 182.344L121.95 187.055C121.356 187.898 120.669 188.656 119.887 189.328C119.122 190 118.286 190.57 117.38 191.039C116.489 191.508 115.544 191.859 114.544 192.094C113.559 192.344 112.544 192.469 111.497 192.469C109.731 192.469 108.067 192.141 106.505 191.484C104.958 190.812 103.598 189.898 102.427 188.742C101.27 187.586 100.356 186.234 99.6844 184.688C99.0125 183.141 98.6766 181.484 98.6766 179.719C98.6766 177.797 99.0125 176 99.6844 174.328C100.356 172.656 101.27 171.203 102.427 169.969C103.598 168.719 104.958 167.734 106.505 167.016C108.067 166.297 109.731 165.938 111.497 165.938C112.544 165.938 113.567 166.07 114.567 166.336C115.583 166.602 116.544 166.992 117.45 167.508C118.372 168.008 119.216 168.625 119.981 169.359C120.762 170.094 121.434 170.938 121.997 171.891ZM133.023 192H126.577V156.914H133.023V179.039L142.562 166.945H149.921L141.601 177.398L149.921 192H142.562L137.476 182.883L133.023 188.789V192ZM26.7422 242H25.1953L22.7109 238.555C22.1016 239.102 21.4531 239.617 20.7656 240.102C20.0938 240.57 19.3828 240.984 18.6328 241.344C17.8828 241.688 17.1094 241.961 16.3125 242.164C15.5312 242.367 14.7344 242.469 13.9219 242.469C12.1562 242.469 10.4922 242.172 8.92969 241.578C7.38281 240.984 6.02344 240.125 4.85156 239C3.69531 237.859 2.78125 236.469 2.10938 234.828C1.4375 233.188 1.10156 231.32 1.10156 229.227C1.10156 227.273 1.4375 225.484 2.10938 223.859C2.78125 222.219 3.69531 220.812 4.85156 219.641C6.02344 218.469 7.38281 217.562 8.92969 216.922C10.4922 216.266 12.1562 215.938 13.9219 215.938C14.7344 215.938 15.5391 216.039 16.3359 216.242C17.1328 216.445 17.9062 216.727 18.6562 217.086C19.4062 217.445 20.1172 217.867 20.7891 218.352C21.4766 218.836 22.1172 219.359 22.7109 219.922L25.1953 216.945H26.7422V242ZM20.2969 229.227C20.2969 228.352 20.125 227.508 19.7812 226.695C19.4531 225.867 19 225.141 18.4219 224.516C17.8438 223.875 17.1641 223.367 16.3828 222.992C15.6172 222.602 14.7969 222.406 13.9219 222.406C13.0469 222.406 12.2188 222.555 11.4375 222.852C10.6719 223.148 10 223.586 9.42188 224.164C8.85938 224.742 8.41406 225.461 8.08594 226.32C7.75781 227.164 7.59375 228.133 7.59375 229.227C7.59375 230.32 7.75781 231.297 8.08594 232.156C8.41406 233 8.85938 233.711 9.42188 234.289C10 234.867 10.6719 235.305 11.4375 235.602C12.2188 235.898 13.0469 236.047 13.9219 236.047C14.7969 236.047 15.6172 235.859 16.3828 235.484C17.1641 235.094 17.8438 234.586 18.4219 233.961C19 233.32 19.4531 232.594 19.7812 231.781C20.125 230.953 20.2969 230.102 20.2969 229.227ZM64.7681 232.93C64.7681 234.242 64.5181 235.484 64.0181 236.656C63.5181 237.812 62.8306 238.82 61.9556 239.68C61.0963 240.539 60.0806 241.219 58.9088 241.719C57.7525 242.219 56.5103 242.469 55.1822 242.469C53.9947 242.469 52.8541 242.266 51.7603 241.859C50.6666 241.438 49.6744 240.828 48.7838 240.031C47.9088 240.828 46.9244 241.438 45.8306 241.859C44.7525 242.266 43.6119 242.469 42.4088 242.469C41.0806 242.469 39.8384 242.219 38.6822 241.719C37.5259 241.219 36.5103 240.539 35.6353 239.68C34.7759 238.82 34.0963 237.812 33.5963 236.656C33.0963 235.484 32.8463 234.242 32.8463 232.93V216.945H39.2447V232.93C39.2447 233.367 39.3228 233.781 39.4791 234.172C39.6509 234.547 39.8775 234.883 40.1588 235.18C40.4556 235.461 40.7916 235.688 41.1666 235.859C41.5572 236.016 41.9713 236.094 42.4088 236.094C42.8463 236.094 43.2603 236.016 43.6509 235.859C44.0416 235.688 44.3853 235.461 44.6822 235.18C44.9791 234.883 45.2056 234.547 45.3619 234.172C45.5338 233.781 45.6197 233.367 45.6197 232.93V216.945H51.9947V232.93C51.9947 233.367 52.0806 233.781 52.2525 234.172C52.4244 234.547 52.6509 234.883 52.9322 235.18C53.2291 235.461 53.565 235.688 53.94 235.859C54.3306 236.016 54.7447 236.094 55.1822 236.094C55.6197 236.094 56.0338 236.016 56.4244 235.859C56.815 235.688 57.1509 235.461 57.4322 235.18C57.7291 234.883 57.9634 234.547 58.1353 234.172C58.3072 233.781 58.3931 233.367 58.3931 232.93V216.945H64.7681V232.93ZM95.1534 242H93.6066L91.1222 238.555C90.5128 239.102 89.8644 239.617 89.1769 240.102C88.505 240.57 87.7941 240.984 87.0441 241.344C86.2941 241.688 85.5206 241.961 84.7237 242.164C83.9425 242.367 83.1456 242.469 82.3331 242.469C80.5675 242.469 78.9034 242.172 77.3409 241.578C75.7941 240.984 74.4347 240.125 73.2628 239C72.1066 237.859 71.1925 236.469 70.5206 234.828C69.8487 233.188 69.5128 231.32 69.5128 229.227C69.5128 227.273 69.8487 225.484 70.5206 223.859C71.1925 222.219 72.1066 220.812 73.2628 219.641C74.4347 218.469 75.7941 217.562 77.3409 216.922C78.9034 216.266 80.5675 215.938 82.3331 215.938C83.1456 215.938 83.9503 216.039 84.7472 216.242C85.5441 216.445 86.3175 216.727 87.0675 217.086C87.8175 217.445 88.5284 217.867 89.2003 218.352C89.8878 218.836 90.5284 219.359 91.1222 219.922L93.6066 216.945H95.1534V242ZM88.7081 229.227C88.7081 228.352 88.5362 227.508 88.1925 226.695C87.8644 225.867 87.4112 225.141 86.8331 224.516C86.255 223.875 85.5753 223.367 84.7941 222.992C84.0284 222.602 83.2081 222.406 82.3331 222.406C81.4581 222.406 80.63 222.555 79.8487 222.852C79.0831 223.148 78.4112 223.586 77.8331 224.164C77.2706 224.742 76.8253 225.461 76.4972 226.32C76.1691 227.164 76.005 228.133 76.005 229.227C76.005 230.32 76.1691 231.297 76.4972 232.156C76.8253 233 77.2706 233.711 77.8331 234.289C78.4112 234.867 79.0831 235.305 79.8487 235.602C80.63 235.898 81.4581 236.047 82.3331 236.047C83.2081 236.047 84.0284 235.859 84.7941 235.484C85.5753 235.094 86.255 234.586 86.8331 233.961C87.4112 233.32 87.8644 232.594 88.1925 231.781C88.5362 230.953 88.7081 230.102 88.7081 229.227ZM107.539 251.562V245.117L111.101 245.164C111.726 245.164 112.328 245.062 112.906 244.859C113.484 244.656 114.015 244.375 114.5 244.016C115 243.656 115.437 243.227 115.812 242.727C116.187 242.242 116.492 241.711 116.726 241.133C116.023 241.43 115.304 241.727 114.57 242.023C113.851 242.32 113.125 242.469 112.39 242.469C110.843 242.469 109.39 242.195 108.031 241.648C106.672 241.102 105.476 240.328 104.445 239.328C103.429 238.312 102.625 237.086 102.031 235.648C101.453 234.195 101.164 232.57 101.164 230.773V216.898H107.539V230.773C107.539 231.664 107.664 232.445 107.914 233.117C108.179 233.773 108.531 234.328 108.968 234.781C109.406 235.219 109.914 235.547 110.492 235.766C111.086 235.984 111.718 236.094 112.39 236.094C113.047 236.094 113.664 235.945 114.242 235.648C114.836 235.336 115.351 234.93 115.789 234.43C116.226 233.93 116.57 233.367 116.82 232.742C117.07 232.102 117.195 231.445 117.195 230.773V216.898H123.64V238.836C123.625 240.602 123.281 242.258 122.609 243.805C121.937 245.352 121.015 246.703 119.843 247.859C118.687 249.016 117.336 249.93 115.789 250.602C114.242 251.273 112.586 251.609 110.82 251.609L107.539 251.562ZM137.854 239.609C137.854 240.172 137.752 240.703 137.549 241.203C137.346 241.688 137.065 242.109 136.705 242.469C136.346 242.828 135.924 243.109 135.44 243.312C134.955 243.531 134.432 243.641 133.869 243.641C133.323 243.641 132.799 243.531 132.299 243.312C131.815 243.109 131.385 242.828 131.01 242.469C130.651 242.109 130.362 241.688 130.143 241.203C129.94 240.703 129.838 240.172 129.838 239.609C129.838 239.062 129.94 238.547 130.143 238.062C130.362 237.578 130.651 237.156 131.01 236.797C131.385 236.438 131.815 236.156 132.299 235.953C132.799 235.734 133.323 235.625 133.869 235.625C134.432 235.625 134.955 235.734 135.44 235.953C135.924 236.156 136.346 236.438 136.705 236.797C137.065 237.156 137.346 237.578 137.549 238.062C137.752 238.547 137.854 239.062 137.854 239.609Z" fill="white"/>
<path d="M45.5363 198.375H164.885V199.336H45.5363V198.375Z" fill="white"/>
<g clip-path="url(#clip0)" filter="url(#filter0_d)">
<path d="M153.988 212.234L153.987 212.234L145.783 204.031L145.429 203.677L145.076 204.031L141.099 208.008C140.879 208.228 140.557 208.32 140.249 208.25C139.943 208.177 139.698 207.952 139.599 207.655L139.599 207.654L131.643 183.789L131.643 183.789C131.534 183.463 131.619 183.104 131.862 182.862C132.105 182.618 132.465 182.532 132.785 182.642L132.789 182.643L156.654 190.599L156.655 190.599C156.952 190.698 157.177 190.943 157.25 191.25C157.322 191.555 157.23 191.876 157.008 192.098L153.031 196.075L152.678 196.429L153.031 196.783L161.234 204.987L161.234 204.987C161.589 205.341 161.589 205.915 161.234 206.269L155.269 212.234L155.269 212.234C154.915 212.589 154.342 212.588 153.988 212.234Z" fill="#323232" stroke="white"/>
<path d="M132.281 176C131.642 176 131.125 175.483 131.125 174.844V166.406C131.125 165.767 131.642 165.25 132.281 165.25C132.92 165.25 133.438 165.767 133.438 166.406V174.844C133.438 175.483 132.92 176 132.281 176Z" fill="#323232" stroke="white" stroke-width="0.5"/>
<path d="M127.133 178.133L127.133 178.133C126.681 178.585 125.95 178.585 125.498 178.133L119.531 172.166C119.08 171.715 119.08 170.983 119.531 170.531C119.983 170.08 120.715 170.08 121.166 170.531L127.133 176.498C127.585 176.95 127.585 177.681 127.133 178.133Z" fill="#323232" stroke="white" stroke-width="0.5"/>
<path d="M119.531 196.031C119.08 195.58 119.08 194.848 119.531 194.396L125.498 188.429C125.95 187.978 126.681 187.978 127.133 188.429C127.585 188.881 127.585 189.613 127.133 190.064L121.166 196.031C120.715 196.483 119.983 196.483 119.531 196.031Z" fill="#323232" stroke="white" stroke-width="0.5"/>
<path d="M137.429 178.133C136.978 177.682 136.978 176.95 137.429 176.498L143.396 170.531C143.848 170.08 144.58 170.08 145.031 170.531C145.483 170.983 145.483 171.715 145.031 172.166L139.064 178.133C138.613 178.585 137.881 178.585 137.429 178.133Z" fill="#323232" stroke="white" stroke-width="0.5"/>
<path d="M123.844 184.438H115.406C114.767 184.438 114.25 183.92 114.25 183.281C114.25 182.642 114.767 182.125 115.406 182.125H123.844C124.483 182.125 125 182.642 125 183.281C125 183.92 124.483 184.438 123.844 184.438Z" fill="#323232" stroke="white" stroke-width="0.5"/>
</g>
<defs>
<filter id="filter0_d" x="110" y="165" width="56" height="56" filterUnits="userSpaceOnUse" color-interpolation-filters="sRGB">
<feFlood flood-opacity="0" result="BackgroundImageFix"/>
<feColorMatrix in="SourceAlpha" type="matrix" values="0 0 0 0 0 0 0 0 0 0 0 0 0 0 0 0 0 0 127 0" result="hardAlpha"/>
<feOffset dy="4"/>
<feGaussianBlur stdDeviation="2"/>
<feColorMatrix type="matrix" values="0 0 0 0 0 0 0 0 0 0 0 0 0 0 0 0 0 0 0.25 0"/>
<feBlend mode="normal" in2="BackgroundImageFix" result="effect1_dropShadow"/>
<feBlend mode="normal" in="SourceGraphic" in2="effect1_dropShadow" result="shape"/>
</filter>
<clipPath id="clip0">
<rect width="48" height="48" fill="white" transform="translate(114 165)"/>
</clipPath>
</defs>
</svg>
