<svg width="27" height="27" viewBox="0 0 27 27" fill="none" xmlns="http://www.w3.org/2000/svg">
<path d="M13.5045 6.56738C9.67616 6.56738 6.57678 9.67013 6.57678 13.4951C6.57678 17.3235 9.67953 20.4229 13.5045 20.4229C17.3329 20.4229 20.4323 17.3201 20.4323 13.4951C20.4323 9.66676 17.3295 6.56738 13.5045 6.56738ZM13.5045 17.9918C11.0194 17.9918 9.00791 15.9791 9.00791 13.4951C9.00791 11.0111 11.0205 8.99851 13.5045 8.99851C15.9885 8.99851 18.0012 11.0111 18.0012 13.4951C18.0023 15.9791 15.9897 17.9918 13.5045 17.9918Z" fill="white"/>
<path d="M19.0664 0.0857865C16.5824 -0.0300884 10.4298 -0.0244634 7.94351 0.0857865C5.75876 0.188162 3.83164 0.715786 2.27801 2.26941C-0.318486 4.86591 0.0133895 8.36466 0.0133895 13.4958C0.0133895 18.7473 -0.27911 22.165 2.27801 24.7222C4.88464 27.3277 8.43401 26.9868 13.5044 26.9868C18.7064 26.9868 20.5019 26.9902 22.3413 26.278C24.8421 25.3072 26.7299 23.0718 26.9144 19.0567C27.0314 16.5715 27.0246 10.42 26.9144 7.93379C26.6916 3.19416 24.148 0.319787 19.0664 0.0857865ZM22.9983 23.0043C21.2961 24.7064 18.9348 24.5545 13.4718 24.5545C7.84676 24.5545 5.59114 24.6378 3.94526 22.9874C2.04964 21.1008 2.39276 18.0712 2.39276 13.4778C2.39276 7.26216 1.75489 2.78579 7.99301 2.46629C9.42626 2.41566 9.84814 2.39879 13.456 2.39879L13.5066 2.43254C19.5018 2.43254 24.2054 1.80479 24.4878 8.04179C24.5519 9.46491 24.5665 9.89241 24.5665 13.4947C24.5654 19.0544 24.6711 21.3235 22.9983 23.0043Z" fill="white"/>
<path d="M20.7068 7.91304C21.6008 7.91304 22.3256 7.18825 22.3256 6.29417C22.3256 5.40009 21.6008 4.67529 20.7068 4.67529C19.8127 4.67529 19.0879 5.40009 19.0879 6.29417C19.0879 7.18825 19.8127 7.91304 20.7068 7.91304Z" fill="white"/>
</svg>
