<svg width="28" height="28" viewBox="0 0 28 28" fill="none" xmlns="http://www.w3.org/2000/svg">
<path d="M14 0C6.26155 0 0 6.2621 0 14C0 21.7384 6.2621 28 14 28C21.7384 28 28 21.7379 28 14C28 6.26155 21.7378 0 14 0ZM14 25.8125C7.4707 25.8125 2.1875 20.5289 2.1875 14C2.1875 7.4707 7.47113 2.1875 14 2.1875C20.5293 2.1875 25.8125 7.47113 25.8125 14C25.8125 20.5293 20.5288 25.8125 14 25.8125Z" fill="black"/>
<path d="M14 11.7212C13.3959 11.7212 12.9062 12.2108 12.9062 12.8149V19.8583C12.9062 20.4624 13.3959 20.952 14 20.952C14.6041 20.952 15.0938 20.4623 15.0938 19.8582V12.8149C15.0938 12.2108 14.6041 11.7212 14 11.7212Z" fill="black"/>
<path d="M14 10.3819C14.8155 10.3819 15.4766 9.72079 15.4766 8.9053C15.4766 8.08982 14.8155 7.42874 14 7.42874C13.1845 7.42874 12.5234 8.08982 12.5234 8.9053C12.5234 9.72079 13.1845 10.3819 14 10.3819Z" fill="black"/>
</svg>
