<svg width="27" height="27" viewBox="0 0 27 27" fill="none" xmlns="http://www.w3.org/2000/svg">
<g clip-path="url(#clip0)">
<path d="M13.5045 6.56775C9.67616 6.56775 6.57678 9.6705 6.57678 13.4955C6.57678 17.3239 9.67953 20.4232 13.5045 20.4232C17.3329 20.4232 20.4323 17.3205 20.4323 13.4955C20.4323 9.66712 17.3295 6.56775 13.5045 6.56775ZM13.5045 17.9921C11.0194 17.9921 9.00791 15.9795 9.00791 13.4955C9.00791 11.0115 11.0205 8.99887 13.5045 8.99887C15.9885 8.99887 18.0012 11.0115 18.0012 13.4955C18.0023 15.9795 15.9897 17.9921 13.5045 17.9921Z" fill="black"/>
<path d="M19.0664 0.0859086C16.5824 -0.0299664 10.4298 -0.0243414 7.94351 0.0859086C5.75876 0.188284 3.83164 0.715908 2.27801 2.26953C-0.318486 4.86603 0.0133895 8.36478 0.0133895 13.4959C0.0133895 18.7474 -0.27911 22.1652 2.27801 24.7223C4.88464 27.3278 8.43401 26.9869 13.5044 26.9869C18.7064 26.9869 20.5019 26.9903 22.3413 26.2782C24.8421 25.3073 26.7299 23.0719 26.9144 19.0568C27.0314 16.5717 27.0246 10.4202 26.9144 7.93391C26.6916 3.19428 24.148 0.319909 19.0664 0.0859086ZM22.9983 23.0044C21.2961 24.7065 18.9348 24.5547 13.4718 24.5547C7.84676 24.5547 5.59114 24.6379 3.94526 22.9875C2.04964 21.1009 2.39276 18.0713 2.39276 13.4779C2.39276 7.26228 1.75489 2.78591 7.99301 2.46641C9.42626 2.41578 9.84814 2.39891 13.456 2.39891L13.5066 2.43266C19.5018 2.43266 24.2054 1.80491 24.4878 8.04191C24.5519 9.46503 24.5665 9.89253 24.5665 13.4948C24.5654 19.0545 24.6711 21.3237 22.9983 23.0044Z" fill="black"/>
<path d="M20.7068 7.91328C21.6008 7.91328 22.3256 7.18849 22.3256 6.29441C22.3256 5.40033 21.6008 4.67554 20.7068 4.67554C19.8127 4.67554 19.0879 5.40033 19.0879 6.29441C19.0879 7.18849 19.8127 7.91328 20.7068 7.91328Z" fill="black"/>
</g>
<defs>
<clipPath id="clip0">
<rect width="27" height="27" fill="white"/>
</clipPath>
</defs>
</svg>
