<svg width="26" height="26" viewBox="0 0 26 26" fill="none" xmlns="http://www.w3.org/2000/svg">
<path d="M24.9868 17.1117C22.7362 18.0168 20.2693 18.2404 17.8926 17.7549C15.516 17.2693 13.3345 16.096 11.6192 14.3808C9.904 12.6655 8.73068 10.484 8.24513 8.10736C7.75959 5.73073 7.98323 3.26381 8.88826 1.01324C6.22311 2.08675 4.01438 4.05391 2.6407 6.57749C1.26703 9.10106 0.813967 12.0239 1.35919 14.8449C1.9044 17.6659 3.41394 20.2095 5.62903 22.0394C7.84411 23.8694 10.6268 24.8719 13.5 24.875C15.9708 24.8751 18.385 24.1358 20.4321 22.7523C22.4792 21.3688 24.0655 19.4043 24.9868 17.1117Z" stroke="black" stroke-width="2" stroke-linecap="round" stroke-linejoin="round"/>
</svg>
