<svg width="536" height="272" viewBox="0 0 536 272" fill="none" xmlns="http://www.w3.org/2000/svg">
<path d="M0 5C0 2.23858 2.23858 0 5 0H531C533.761 0 536 2.23858 536 5V222.288C536 225.049 533.761 227.288 531 227.288H72.1414C71.1952 227.288 70.2684 227.556 69.4687 228.062L7.6727 267.147C4.34349 269.253 0 266.861 0 262.921V5Z" fill="#D2E568"/>
<path d="M56.6562 50.9902C56.6562 50.36 56.7135 49.6868 56.8281 48.9707C56.957 48.2402 57.1504 47.5241 57.4082 46.8223C57.6803 46.1061 58.0241 45.4329 58.4395 44.8027C58.8691 44.1582 59.3848 43.6068 59.9863 43.1484L62.3281 44.7812C61.9271 45.2396 61.6263 45.6764 61.4258 46.0918C61.2253 46.5072 61.0677 46.9225 60.9531 47.3379C61.3828 47.4095 61.7839 47.5599 62.1562 47.7891C62.5286 48.0039 62.8509 48.276 63.123 48.6055C63.3952 48.9206 63.61 49.2858 63.7676 49.7012C63.9251 50.1022 64.0039 50.5319 64.0039 50.9902C64.0039 51.4915 63.9036 51.9642 63.7031 52.4082C63.5169 52.8379 63.252 53.2246 62.9082 53.5684C62.5788 53.8978 62.1921 54.1628 61.748 54.3633C61.304 54.5495 60.8385 54.6426 60.3516 54.6426C59.8359 54.6426 59.349 54.5495 58.8906 54.3633C58.4466 54.1628 58.0527 53.8978 57.709 53.5684C57.3796 53.2246 57.1217 52.8379 56.9355 52.4082C56.7493 51.9642 56.6562 51.4915 56.6562 50.9902ZM47.8477 50.9902C47.8477 50.36 47.9049 49.6868 48.0195 48.9707C48.1484 48.2402 48.3418 47.5241 48.5996 46.8223C48.8717 46.1061 49.2227 45.4329 49.6523 44.8027C50.082 44.1582 50.5977 43.6068 51.1992 43.1484L53.5195 44.7812C53.1185 45.2396 52.8177 45.6764 52.6172 46.0918C52.431 46.5072 52.2806 46.9225 52.166 47.3379C52.5957 47.4095 52.9967 47.5599 53.3691 47.7891C53.7415 48.0039 54.0566 48.276 54.3145 48.6055C54.5866 48.9206 54.8014 49.2858 54.959 49.7012C55.1165 50.1022 55.1953 50.5319 55.1953 50.9902C55.1953 51.4915 55.0951 51.9642 54.8945 52.4082C54.7083 52.8379 54.4434 53.2246 54.0996 53.5684C53.7702 53.8978 53.3835 54.1628 52.9395 54.3633C52.4954 54.5495 52.0299 54.6426 51.543 54.6426C51.0273 54.6426 50.5404 54.5495 50.082 54.3633C49.638 54.1628 49.2513 53.8978 48.9219 53.5684C48.5924 53.2246 48.3275 52.8379 48.127 52.4082C47.9408 51.9642 47.8477 51.4915 47.8477 50.9902ZM74.6602 74H68.4941V43.1914H74.6602V55.5234H86.9707V43.1914H93.1367V74H86.9707V61.6895H74.6602V74ZM107.059 68.3711C107.288 68.4427 107.517 68.4928 107.746 68.5215C107.975 68.5358 108.204 68.543 108.434 68.543C109.007 68.543 109.558 68.4642 110.088 68.3066C110.618 68.1491 111.112 67.9271 111.57 67.6406C112.043 67.3398 112.458 66.9818 112.816 66.5664C113.189 66.1367 113.49 65.6641 113.719 65.1484L118.016 69.4668C117.471 70.2402 116.841 70.9349 116.125 71.5508C115.423 72.1667 114.657 72.6895 113.826 73.1191C113.01 73.5488 112.143 73.8711 111.227 74.0859C110.324 74.3151 109.393 74.4297 108.434 74.4297C106.815 74.4297 105.29 74.1289 103.857 73.5273C102.439 72.9258 101.193 72.0879 100.119 71.0137C99.0592 69.9395 98.2214 68.6647 97.6055 67.1895C96.9896 65.6999 96.6816 64.0671 96.6816 62.291C96.6816 60.472 96.9896 58.8105 97.6055 57.3066C98.2214 55.8027 99.0592 54.5208 100.119 53.4609C101.193 52.401 102.439 51.5775 103.857 50.9902C105.29 50.403 106.815 50.1094 108.434 50.1094C109.393 50.1094 110.331 50.224 111.248 50.4531C112.165 50.6823 113.031 51.0117 113.848 51.4414C114.678 51.8711 115.452 52.401 116.168 53.0312C116.884 53.6471 117.514 54.3418 118.059 55.1152L107.059 68.3711ZM110.066 56.2754C109.794 56.1751 109.522 56.1107 109.25 56.082C108.992 56.0534 108.72 56.0391 108.434 56.0391C107.632 56.0391 106.872 56.1895 106.156 56.4902C105.454 56.7767 104.839 57.1921 104.309 57.7363C103.793 58.2806 103.385 58.9395 103.084 59.7129C102.783 60.472 102.633 61.3314 102.633 62.291C102.633 62.5059 102.64 62.7493 102.654 63.0215C102.683 63.2936 102.719 63.5729 102.762 63.8594C102.819 64.1315 102.883 64.3965 102.955 64.6543C103.027 64.9121 103.12 65.1413 103.234 65.3418L110.066 56.2754ZM126.566 82.7656V76.8574L129.832 76.9004C130.405 76.9004 130.956 76.8073 131.486 76.6211C132.016 76.4349 132.503 76.1771 132.947 75.8477C133.406 75.5182 133.807 75.1243 134.15 74.666C134.494 74.222 134.773 73.735 134.988 73.2051C134.344 73.4772 133.685 73.7493 133.012 74.0215C132.353 74.2936 131.687 74.4297 131.014 74.4297C129.596 74.4297 128.264 74.179 127.018 73.6777C125.771 73.1764 124.676 72.4674 123.73 71.5508C122.799 70.6198 122.062 69.4954 121.518 68.1777C120.988 66.8457 120.723 65.3561 120.723 63.709V50.9902H126.566V63.709C126.566 64.5254 126.681 65.2415 126.91 65.8574C127.154 66.459 127.476 66.9674 127.877 67.3828C128.278 67.7839 128.743 68.0846 129.273 68.2852C129.818 68.4857 130.398 68.5859 131.014 68.5859C131.615 68.5859 132.181 68.4499 132.711 68.1777C133.255 67.8913 133.728 67.5189 134.129 67.0605C134.53 66.6022 134.845 66.0866 135.074 65.5137C135.303 64.9264 135.418 64.3249 135.418 63.709V50.9902H141.326V71.0996C141.312 72.7181 140.997 74.2363 140.381 75.6543C139.765 77.0723 138.92 78.3112 137.846 79.3711C136.786 80.431 135.547 81.2689 134.129 81.8848C132.711 82.5007 131.193 82.8086 129.574 82.8086L126.566 82.7656ZM153.035 71.8086C153.035 72.4388 152.971 73.1191 152.842 73.8496C152.727 74.5658 152.534 75.2747 152.262 75.9766C152.004 76.6927 151.66 77.3659 151.23 77.9961C150.815 78.6406 150.307 79.1849 149.705 79.6289L147.363 77.9961C147.764 77.5378 148.065 77.1009 148.266 76.6855C148.466 76.2845 148.624 75.8763 148.738 75.4609C148.309 75.375 147.908 75.2246 147.535 75.0098C147.163 74.7949 146.84 74.5228 146.568 74.1934C146.296 73.8783 146.081 73.5202 145.924 73.1191C145.766 72.7038 145.688 72.2669 145.688 71.8086C145.688 71.3073 145.781 70.8346 145.967 70.3906C146.167 69.9466 146.432 69.5599 146.762 69.2305C147.105 68.901 147.492 68.6432 147.922 68.457C148.366 68.2565 148.839 68.1562 149.34 68.1562C149.855 68.1562 150.335 68.2565 150.779 68.457C151.238 68.6432 151.632 68.901 151.961 69.2305C152.305 69.5599 152.57 69.9466 152.756 70.3906C152.942 70.8346 153.035 71.3073 153.035 71.8086ZM176.582 74H170.416V43.1914H176.582V74ZM223.074 65.6855C223.074 66.8887 222.845 68.0273 222.387 69.1016C221.928 70.1615 221.298 71.0853 220.496 71.873C219.708 72.6608 218.777 73.2839 217.703 73.7422C216.643 74.2005 215.505 74.4297 214.287 74.4297C213.199 74.4297 212.153 74.2435 211.15 73.8711C210.148 73.4844 209.238 72.9258 208.422 72.1953C207.62 72.9258 206.717 73.4844 205.715 73.8711C204.727 74.2435 203.681 74.4297 202.578 74.4297C201.361 74.4297 200.222 74.2005 199.162 73.7422C198.102 73.2839 197.171 72.6608 196.369 71.873C195.581 71.0853 194.958 70.1615 194.5 69.1016C194.042 68.0273 193.812 66.8887 193.812 65.6855V51.0332H199.678V65.6855C199.678 66.0866 199.749 66.4661 199.893 66.8242C200.05 67.168 200.258 67.4759 200.516 67.748C200.788 68.0059 201.096 68.2135 201.439 68.3711C201.798 68.5143 202.177 68.5859 202.578 68.5859C202.979 68.5859 203.359 68.5143 203.717 68.3711C204.075 68.2135 204.39 68.0059 204.662 67.748C204.934 67.4759 205.142 67.168 205.285 66.8242C205.443 66.4661 205.521 66.0866 205.521 65.6855V51.0332H211.365V65.6855C211.365 66.0866 211.444 66.4661 211.602 66.8242C211.759 67.168 211.967 67.4759 212.225 67.748C212.497 68.0059 212.805 68.2135 213.148 68.3711C213.507 68.5143 213.886 68.5859 214.287 68.5859C214.688 68.5859 215.068 68.5143 215.426 68.3711C215.784 68.2135 216.092 68.0059 216.35 67.748C216.622 67.4759 216.837 67.168 216.994 66.8242C217.152 66.4661 217.23 66.0866 217.23 65.6855V51.0332H223.074V65.6855ZM249.607 74H248.189L245.912 70.8418C245.354 71.3431 244.759 71.8158 244.129 72.2598C243.513 72.6895 242.861 73.069 242.174 73.3984C241.486 73.7135 240.777 73.9642 240.047 74.1504C239.331 74.3366 238.6 74.4297 237.855 74.4297C236.237 74.4297 234.712 74.1576 233.279 73.6133C231.861 73.069 230.615 72.2812 229.541 71.25C228.481 70.2044 227.643 68.9297 227.027 67.4258C226.411 65.9219 226.104 64.2103 226.104 62.291C226.104 60.5007 226.411 58.8607 227.027 57.3711C227.643 55.8672 228.481 54.5781 229.541 53.5039C230.615 52.4297 231.861 51.599 233.279 51.0117C234.712 50.4102 236.237 50.1094 237.855 50.1094C238.6 50.1094 239.338 50.2025 240.068 50.3887C240.799 50.5749 241.508 50.8327 242.195 51.1621C242.883 51.4915 243.535 51.8783 244.15 52.3223C244.781 52.7663 245.368 53.2461 245.912 53.7617L248.189 51.0332H249.607V74ZM243.699 62.291C243.699 61.4889 243.542 60.7155 243.227 59.9707C242.926 59.2116 242.51 58.5456 241.98 57.9727C241.451 57.3854 240.827 56.9199 240.111 56.5762C239.41 56.2181 238.658 56.0391 237.855 56.0391C237.053 56.0391 236.294 56.1751 235.578 56.4473C234.876 56.7194 234.26 57.1204 233.73 57.6504C233.215 58.1803 232.807 58.8392 232.506 59.627C232.205 60.4004 232.055 61.2884 232.055 62.291C232.055 63.2936 232.205 64.1888 232.506 64.9766C232.807 65.75 233.215 66.4017 233.73 66.9316C234.26 67.4616 234.876 67.8626 235.578 68.1348C236.294 68.4069 237.053 68.543 237.855 68.543C238.658 68.543 239.41 68.3711 240.111 68.0273C240.827 67.6693 241.451 67.2038 241.98 66.6309C242.51 66.0436 242.926 65.3776 243.227 64.6328C243.542 63.8737 243.699 63.0931 243.699 62.291ZM259.963 74H254.098V50.9902H255.516L257.449 53.2246C258.395 52.3652 259.462 51.7064 260.65 51.248C261.854 50.7754 263.107 50.5391 264.41 50.5391C265.814 50.5391 267.139 50.8112 268.385 51.3555C269.631 51.8854 270.719 52.623 271.65 53.5684C272.581 54.4993 273.312 55.5951 273.842 56.8555C274.386 58.1016 274.658 59.4336 274.658 60.8516V74H268.793V60.8516C268.793 60.25 268.678 59.6842 268.449 59.1543C268.22 58.61 267.905 58.1374 267.504 57.7363C267.103 57.3353 266.637 57.0202 266.107 56.791C265.577 56.5618 265.012 56.4473 264.41 56.4473C263.794 56.4473 263.214 56.5618 262.67 56.791C262.126 57.0202 261.653 57.3353 261.252 57.7363C260.851 58.1374 260.536 58.61 260.307 59.1543C260.077 59.6842 259.963 60.25 259.963 60.8516V74ZM290.084 74C288.666 74 287.334 73.735 286.088 73.2051C284.842 72.6608 283.746 71.9232 282.801 70.9922C281.87 70.0469 281.132 68.9512 280.588 67.7051C280.058 66.459 279.793 65.127 279.793 63.709V56.877H276.936V51.0332H279.793V41.8379H285.637V51.0332H294.531V56.877H285.637V63.709C285.637 64.3249 285.751 64.9049 285.98 65.4492C286.21 65.9792 286.525 66.4447 286.926 66.8457C287.327 67.2467 287.799 67.569 288.344 67.8125C288.888 68.0417 289.468 68.1562 290.084 68.1562H294.531V74H290.084ZM321.709 74C320.291 74 318.959 73.735 317.713 73.2051C316.467 72.6608 315.371 71.9232 314.426 70.9922C313.495 70.0469 312.757 68.9512 312.213 67.7051C311.683 66.459 311.418 65.127 311.418 63.709V56.877H308.561V51.0332H311.418V41.8379H317.262V51.0332H326.156V56.877H317.262V63.709C317.262 64.3249 317.376 64.9049 317.605 65.4492C317.835 65.9792 318.15 66.4447 318.551 66.8457C318.952 67.2467 319.424 67.569 319.969 67.8125C320.513 68.0417 321.093 68.1562 321.709 68.1562H326.156V74H321.709ZM351.701 62.291C351.701 64.0098 351.393 65.6139 350.777 67.1035C350.161 68.5788 349.324 69.8607 348.264 70.9492C347.204 72.0234 345.958 72.8757 344.525 73.5059C343.107 74.1217 341.582 74.4297 339.949 74.4297C338.331 74.4297 336.805 74.1217 335.373 73.5059C333.955 72.8757 332.709 72.0234 331.635 70.9492C330.575 69.8607 329.737 68.5788 329.121 67.1035C328.505 65.6139 328.197 64.0098 328.197 62.291C328.197 60.5436 328.505 58.9251 329.121 57.4355C329.737 55.946 330.575 54.6641 331.635 53.5898C332.709 52.5013 333.955 51.6491 335.373 51.0332C336.805 50.4173 338.331 50.1094 339.949 50.1094C341.582 50.1094 343.107 50.403 344.525 50.9902C345.958 51.5632 347.204 52.3867 348.264 53.4609C349.324 54.5208 350.161 55.8027 350.777 57.3066C351.393 58.7962 351.701 60.4577 351.701 62.291ZM345.793 62.291C345.793 61.3457 345.635 60.4935 345.32 59.7344C345.02 58.9609 344.604 58.3021 344.074 57.7578C343.544 57.1992 342.921 56.7767 342.205 56.4902C341.503 56.1895 340.751 56.0391 339.949 56.0391C339.147 56.0391 338.388 56.1895 337.672 56.4902C336.97 56.7767 336.354 57.1992 335.824 57.7578C335.309 58.3021 334.9 58.9609 334.6 59.7344C334.299 60.4935 334.148 61.3457 334.148 62.291C334.148 63.179 334.299 64.0026 334.6 64.7617C334.9 65.5208 335.309 66.1797 335.824 66.7383C336.354 67.2969 336.97 67.7409 337.672 68.0703C338.388 68.3854 339.147 68.543 339.949 68.543C340.751 68.543 341.503 68.3926 342.205 68.0918C342.921 67.791 343.544 67.3685 344.074 66.8242C344.604 66.2799 345.02 65.6211 345.32 64.8477C345.635 64.0742 345.793 63.222 345.793 62.291ZM57.3867 117.371C57.6159 117.443 57.8451 117.493 58.0742 117.521C58.3034 117.536 58.5326 117.543 58.7617 117.543C59.3346 117.543 59.8861 117.464 60.416 117.307C60.946 117.149 61.4401 116.927 61.8984 116.641C62.3711 116.34 62.7865 115.982 63.1445 115.566C63.5169 115.137 63.8177 114.664 64.0469 114.148L68.3438 118.467C67.7995 119.24 67.1693 119.935 66.4531 120.551C65.7513 121.167 64.985 121.689 64.1543 122.119C63.3379 122.549 62.4714 122.871 61.5547 123.086C60.6523 123.315 59.7214 123.43 58.7617 123.43C57.1432 123.43 55.6178 123.129 54.1855 122.527C52.7676 121.926 51.5215 121.088 50.4473 120.014C49.3874 118.939 48.5495 117.665 47.9336 116.189C47.3177 114.7 47.0098 113.067 47.0098 111.291C47.0098 109.472 47.3177 107.811 47.9336 106.307C48.5495 104.803 49.3874 103.521 50.4473 102.461C51.5215 101.401 52.7676 100.577 54.1855 99.9902C55.6178 99.403 57.1432 99.1094 58.7617 99.1094C59.7214 99.1094 60.6595 99.224 61.5762 99.4531C62.4928 99.6823 63.3594 100.012 64.1758 100.441C65.0065 100.871 65.7799 101.401 66.4961 102.031C67.2122 102.647 67.8424 103.342 68.3867 104.115L57.3867 117.371ZM60.3945 105.275C60.1224 105.175 59.8503 105.111 59.5781 105.082C59.3203 105.053 59.0482 105.039 58.7617 105.039C57.9596 105.039 57.2005 105.189 56.4844 105.49C55.7826 105.777 55.1667 106.192 54.6367 106.736C54.1211 107.281 53.7129 107.939 53.4121 108.713C53.1113 109.472 52.9609 110.331 52.9609 111.291C52.9609 111.506 52.9681 111.749 52.9824 112.021C53.0111 112.294 53.0469 112.573 53.0898 112.859C53.1471 113.132 53.2116 113.396 53.2832 113.654C53.3548 113.912 53.4479 114.141 53.5625 114.342L60.3945 105.275ZM83.9844 123H70.5781V117.156H83.9844C84.3854 117.156 84.7292 117.013 85.0156 116.727C85.3021 116.44 85.4453 116.096 85.4453 115.695C85.4453 115.28 85.3021 115.008 85.0156 114.879C84.7292 114.75 84.3854 114.686 83.9844 114.686H77.8828C76.8659 114.686 75.9134 114.492 75.0254 114.105C74.1374 113.719 73.3639 113.196 72.7051 112.537C72.0462 111.864 71.5234 111.083 71.1367 110.195C70.7643 109.307 70.5781 108.355 70.5781 107.338C70.5781 106.321 70.7643 105.368 71.1367 104.48C71.5234 103.592 72.0462 102.819 72.7051 102.16C73.3639 101.501 74.1374 100.986 75.0254 100.613C75.9134 100.227 76.8659 100.033 77.8828 100.033H89.7637V105.877H77.8828C77.4818 105.877 77.138 106.02 76.8516 106.307C76.5651 106.593 76.4219 106.937 76.4219 107.338C76.4219 107.753 76.5651 108.111 76.8516 108.412C77.138 108.699 77.4818 108.842 77.8828 108.842H83.9844C84.987 108.842 85.9323 109.014 86.8203 109.357C87.7083 109.687 88.4818 110.152 89.1406 110.754C89.7995 111.355 90.3223 112.079 90.709 112.924C91.0957 113.769 91.2891 114.693 91.2891 115.695C91.2891 116.712 91.0957 117.665 90.709 118.553C90.3223 119.426 89.7995 120.2 89.1406 120.873C88.4818 121.532 87.7083 122.055 86.8203 122.441C85.9323 122.814 84.987 123 83.9844 123ZM105.963 123C104.545 123 103.213 122.735 101.967 122.205C100.721 121.661 99.625 120.923 98.6797 119.992C97.7487 119.047 97.0111 117.951 96.4668 116.705C95.9368 115.459 95.6719 114.127 95.6719 112.709V105.877H92.8145V100.033H95.6719V90.8379H101.516V100.033H110.41V105.877H101.516V112.709C101.516 113.325 101.63 113.905 101.859 114.449C102.089 114.979 102.404 115.445 102.805 115.846C103.206 116.247 103.678 116.569 104.223 116.812C104.767 117.042 105.347 117.156 105.963 117.156H110.41V123H105.963ZM135.998 123H134.58L132.303 119.842C131.744 120.343 131.15 120.816 130.52 121.26C129.904 121.689 129.252 122.069 128.564 122.398C127.877 122.714 127.168 122.964 126.438 123.15C125.721 123.337 124.991 123.43 124.246 123.43C122.628 123.43 121.102 123.158 119.67 122.613C118.252 122.069 117.006 121.281 115.932 120.25C114.872 119.204 114.034 117.93 113.418 116.426C112.802 114.922 112.494 113.21 112.494 111.291C112.494 109.501 112.802 107.861 113.418 106.371C114.034 104.867 114.872 103.578 115.932 102.504C117.006 101.43 118.252 100.599 119.67 100.012C121.102 99.4102 122.628 99.1094 124.246 99.1094C124.991 99.1094 125.729 99.2025 126.459 99.3887C127.189 99.5749 127.898 99.8327 128.586 100.162C129.273 100.492 129.925 100.878 130.541 101.322C131.171 101.766 131.758 102.246 132.303 102.762L134.58 100.033H135.998V123ZM130.09 111.291C130.09 110.489 129.932 109.715 129.617 108.971C129.316 108.212 128.901 107.546 128.371 106.973C127.841 106.385 127.218 105.92 126.502 105.576C125.8 105.218 125.048 105.039 124.246 105.039C123.444 105.039 122.685 105.175 121.969 105.447C121.267 105.719 120.651 106.12 120.121 106.65C119.605 107.18 119.197 107.839 118.896 108.627C118.596 109.4 118.445 110.288 118.445 111.291C118.445 112.294 118.596 113.189 118.896 113.977C119.197 114.75 119.605 115.402 120.121 115.932C120.651 116.462 121.267 116.863 121.969 117.135C122.685 117.407 123.444 117.543 124.246 117.543C125.048 117.543 125.8 117.371 126.502 117.027C127.218 116.669 127.841 116.204 128.371 115.631C128.901 115.044 129.316 114.378 129.617 113.633C129.932 112.874 130.09 112.093 130.09 111.291ZM163.52 111.291C163.52 113.096 163.212 114.743 162.596 116.232C161.98 117.722 161.142 119.004 160.082 120.078C159.022 121.138 157.776 121.962 156.344 122.549C154.926 123.136 153.4 123.43 151.768 123.43C150.149 123.43 148.624 123.129 147.191 122.527C145.773 121.926 144.527 121.088 143.453 120.014C142.393 118.939 141.555 117.665 140.939 116.189C140.324 114.7 140.016 113.067 140.016 111.291V90.8379H145.902V101.58C146.217 101.179 146.597 100.821 147.041 100.506C147.499 100.191 147.986 99.9329 148.502 99.7324C149.032 99.5319 149.576 99.3815 150.135 99.2812C150.693 99.1667 151.238 99.1094 151.768 99.1094C153.4 99.1094 154.926 99.4173 156.344 100.033C157.776 100.635 159.022 101.48 160.082 102.568C161.142 103.657 161.98 104.946 162.596 106.436C163.212 107.911 163.52 109.529 163.52 111.291ZM157.611 111.291C157.611 110.403 157.454 109.579 157.139 108.82C156.838 108.047 156.423 107.381 155.893 106.822C155.363 106.264 154.74 105.827 154.023 105.512C153.322 105.197 152.57 105.039 151.768 105.039C150.965 105.039 150.206 105.218 149.49 105.576C148.788 105.92 148.173 106.385 147.643 106.973C147.113 107.546 146.697 108.212 146.396 108.971C146.096 109.715 145.945 110.489 145.945 111.291C145.945 112.179 146.096 113.003 146.396 113.762C146.697 114.521 147.113 115.18 147.643 115.738C148.173 116.297 148.788 116.741 149.49 117.07C150.206 117.385 150.965 117.543 151.768 117.543C152.57 117.543 153.322 117.385 154.023 117.07C154.74 116.741 155.363 116.297 155.893 115.738C156.423 115.18 156.838 114.521 157.139 113.762C157.454 113.003 157.611 112.179 157.611 111.291ZM172.693 123H166.785V90.8379H172.693V123ZM184.102 93.7383C184.102 94.2826 183.994 94.791 183.779 95.2637C183.579 95.7363 183.299 96.1517 182.941 96.5098C182.583 96.8535 182.161 97.1328 181.674 97.3477C181.201 97.5482 180.693 97.6484 180.148 97.6484C179.604 97.6484 179.089 97.5482 178.602 97.3477C178.129 97.1328 177.714 96.8535 177.355 96.5098C177.012 96.1517 176.732 95.7363 176.518 95.2637C176.317 94.791 176.217 94.2826 176.217 93.7383C176.217 93.2083 176.317 92.707 176.518 92.2344C176.732 91.7474 177.012 91.332 177.355 90.9883C177.714 90.6302 178.129 90.3509 178.602 90.1504C179.089 89.9355 179.604 89.8281 180.148 89.8281C180.693 89.8281 181.201 89.9355 181.674 90.1504C182.161 90.3509 182.583 90.6302 182.941 90.9883C183.299 91.332 183.579 91.7474 183.779 92.2344C183.994 92.707 184.102 93.2083 184.102 93.7383ZM183.092 123H177.184V99.9902H183.092V123ZM200.215 123H186.809V117.156H200.215C200.616 117.156 200.96 117.013 201.246 116.727C201.533 116.44 201.676 116.096 201.676 115.695C201.676 115.28 201.533 115.008 201.246 114.879C200.96 114.75 200.616 114.686 200.215 114.686H194.113C193.096 114.686 192.144 114.492 191.256 114.105C190.368 113.719 189.594 113.196 188.936 112.537C188.277 111.864 187.754 111.083 187.367 110.195C186.995 109.307 186.809 108.355 186.809 107.338C186.809 106.321 186.995 105.368 187.367 104.48C187.754 103.592 188.277 102.819 188.936 102.16C189.594 101.501 190.368 100.986 191.256 100.613C192.144 100.227 193.096 100.033 194.113 100.033H205.994V105.877H194.113C193.712 105.877 193.368 106.02 193.082 106.307C192.796 106.593 192.652 106.937 192.652 107.338C192.652 107.753 192.796 108.111 193.082 108.412C193.368 108.699 193.712 108.842 194.113 108.842H200.215C201.217 108.842 202.163 109.014 203.051 109.357C203.939 109.687 204.712 110.152 205.371 110.754C206.03 111.355 206.553 112.079 206.939 112.924C207.326 113.769 207.52 114.693 207.52 115.695C207.52 116.712 207.326 117.665 206.939 118.553C206.553 119.426 206.03 120.2 205.371 120.873C204.712 121.532 203.939 122.055 203.051 122.441C202.163 122.814 201.217 123 200.215 123ZM216.521 123H210.656V90.8379H216.521V101C217.223 100.47 217.947 100.098 218.691 99.8828C219.436 99.6536 220.195 99.5391 220.969 99.5391C222.387 99.5391 223.719 99.8112 224.965 100.355C226.211 100.885 227.292 101.623 228.209 102.568C229.14 103.499 229.87 104.595 230.4 105.855C230.945 107.102 231.217 108.434 231.217 109.852V123H225.309V109.852H225.352C225.352 109.25 225.237 108.684 225.008 108.154C224.779 107.61 224.464 107.137 224.062 106.736C223.661 106.335 223.196 106.02 222.666 105.791C222.136 105.562 221.57 105.447 220.969 105.447C220.353 105.447 219.773 105.562 219.229 105.791C218.684 106.02 218.212 106.335 217.811 106.736C217.41 107.137 217.094 107.61 216.865 108.154C216.636 108.684 216.521 109.25 216.521 109.852V123ZM277 123H271.156V108.391C271.156 107.99 271.077 107.61 270.92 107.252C270.777 106.894 270.569 106.579 270.297 106.307C270.025 106.035 269.71 105.827 269.352 105.684C268.993 105.526 268.614 105.447 268.213 105.447C267.812 105.447 267.432 105.526 267.074 105.684C266.73 105.827 266.423 106.035 266.15 106.307C265.893 106.579 265.685 106.894 265.527 107.252C265.384 107.61 265.312 107.99 265.312 108.391V123H259.447V108.391C259.447 107.99 259.368 107.61 259.211 107.252C259.068 106.894 258.86 106.579 258.588 106.307C258.316 106.035 258.001 105.827 257.643 105.684C257.285 105.526 256.905 105.447 256.504 105.447C256.103 105.447 255.723 105.526 255.365 105.684C255.021 105.827 254.714 106.035 254.441 106.307C254.184 106.579 253.976 106.894 253.818 107.252C253.675 107.61 253.604 107.99 253.604 108.391V123H247.738V99.9902H249.156L250.746 101.752C251.562 101.064 252.458 100.535 253.432 100.162C254.42 99.7754 255.444 99.582 256.504 99.582C257.578 99.582 258.624 99.7826 259.641 100.184C260.672 100.585 261.574 101.279 262.348 102.268C262.706 101.781 263.114 101.365 263.572 101.021C264.031 100.678 264.51 100.398 265.012 100.184C265.527 99.9688 266.057 99.8184 266.602 99.7324C267.146 99.6322 267.683 99.582 268.213 99.582C269.43 99.582 270.569 99.8112 271.629 100.27C272.703 100.728 273.634 101.358 274.422 102.16C275.224 102.948 275.854 103.879 276.312 104.953C276.771 106.027 277 107.173 277 108.391V123ZM286.84 131.766V125.857L290.105 125.9C290.678 125.9 291.23 125.807 291.76 125.621C292.29 125.435 292.777 125.177 293.221 124.848C293.679 124.518 294.08 124.124 294.424 123.666C294.768 123.222 295.047 122.735 295.262 122.205C294.617 122.477 293.958 122.749 293.285 123.021C292.626 123.294 291.96 123.43 291.287 123.43C289.869 123.43 288.537 123.179 287.291 122.678C286.045 122.176 284.949 121.467 284.004 120.551C283.073 119.62 282.335 118.495 281.791 117.178C281.261 115.846 280.996 114.356 280.996 112.709V99.9902H286.84V112.709C286.84 113.525 286.954 114.242 287.184 114.857C287.427 115.459 287.749 115.967 288.15 116.383C288.551 116.784 289.017 117.085 289.547 117.285C290.091 117.486 290.671 117.586 291.287 117.586C291.889 117.586 292.454 117.45 292.984 117.178C293.529 116.891 294.001 116.519 294.402 116.061C294.803 115.602 295.118 115.087 295.348 114.514C295.577 113.926 295.691 113.325 295.691 112.709V99.9902H301.6V120.1C301.585 121.718 301.27 123.236 300.654 124.654C300.038 126.072 299.193 127.311 298.119 128.371C297.059 129.431 295.82 130.269 294.402 130.885C292.984 131.501 291.466 131.809 289.848 131.809L286.84 131.766ZM331.012 127.404H324.373C323.141 125.7 322.038 123.781 321.064 121.646C320.649 120.744 320.241 119.756 319.84 118.682C319.453 117.593 319.102 116.433 318.787 115.201C318.486 113.955 318.243 112.652 318.057 111.291C317.87 109.916 317.777 108.484 317.777 106.994C317.777 105.404 317.87 103.915 318.057 102.525C318.243 101.136 318.486 99.847 318.787 98.6582C319.102 97.4551 319.453 96.3522 319.84 95.3496C320.241 94.347 320.649 93.4447 321.064 92.6426C322.038 90.7663 323.141 89.1549 324.373 87.8086H331.012C329.694 89.4128 328.52 91.2103 327.488 93.2012C327.044 94.0462 326.607 94.9844 326.178 96.0156C325.762 97.0326 325.39 98.1211 325.061 99.2812C324.731 100.441 324.466 101.673 324.266 102.977C324.065 104.266 323.965 105.605 323.965 106.994C323.965 108.298 324.065 109.587 324.266 110.861C324.466 112.136 324.731 113.375 325.061 114.578C325.39 115.781 325.762 116.934 326.178 118.037C326.607 119.14 327.044 120.164 327.488 121.109C328.52 123.344 329.694 125.442 331.012 127.404ZM356.922 111.291C356.922 113.096 356.614 114.743 355.998 116.232C355.382 117.722 354.544 119.004 353.484 120.078C352.424 121.138 351.178 121.962 349.746 122.549C348.328 123.136 346.803 123.43 345.17 123.43C343.551 123.43 342.026 123.129 340.594 122.527C339.176 121.926 337.93 121.088 336.855 120.014C335.796 118.939 334.958 117.665 334.342 116.189C333.726 114.7 333.418 113.067 333.418 111.291V90.8379H339.305V101.58C339.62 101.179 339.999 100.821 340.443 100.506C340.902 100.191 341.389 99.9329 341.904 99.7324C342.434 99.5319 342.979 99.3815 343.537 99.2812C344.096 99.1667 344.64 99.1094 345.17 99.1094C346.803 99.1094 348.328 99.4173 349.746 100.033C351.178 100.635 352.424 101.48 353.484 102.568C354.544 103.657 355.382 104.946 355.998 106.436C356.614 107.911 356.922 109.529 356.922 111.291ZM351.014 111.291C351.014 110.403 350.856 109.579 350.541 108.82C350.24 108.047 349.825 107.381 349.295 106.822C348.765 106.264 348.142 105.827 347.426 105.512C346.724 105.197 345.972 105.039 345.17 105.039C344.368 105.039 343.609 105.218 342.893 105.576C342.191 105.92 341.575 106.385 341.045 106.973C340.515 107.546 340.1 108.212 339.799 108.971C339.498 109.715 339.348 110.489 339.348 111.291C339.348 112.179 339.498 113.003 339.799 113.762C340.1 114.521 340.515 115.18 341.045 115.738C341.575 116.297 342.191 116.741 342.893 117.07C343.609 117.385 344.368 117.543 345.17 117.543C345.972 117.543 346.724 117.385 347.426 117.07C348.142 116.741 348.765 116.297 349.295 115.738C349.825 115.18 350.24 114.521 350.541 113.762C350.856 113.003 351.014 112.179 351.014 111.291ZM366.053 123H360.188V99.9902H361.605L363.539 102.719C364.484 101.859 365.559 101.201 366.762 100.742C367.965 100.27 369.211 100.033 370.5 100.033H375.678V105.877H370.5C369.884 105.877 369.304 105.992 368.76 106.221C368.215 106.45 367.743 106.765 367.342 107.166C366.941 107.567 366.626 108.04 366.396 108.584C366.167 109.128 366.053 109.708 366.053 110.324V123ZM400.256 123H398.838L396.561 119.842C396.002 120.343 395.408 120.816 394.777 121.26C394.161 121.689 393.51 122.069 392.822 122.398C392.135 122.714 391.426 122.964 390.695 123.15C389.979 123.337 389.249 123.43 388.504 123.43C386.885 123.43 385.36 123.158 383.928 122.613C382.51 122.069 381.264 121.281 380.189 120.25C379.13 119.204 378.292 117.93 377.676 116.426C377.06 114.922 376.752 113.21 376.752 111.291C376.752 109.501 377.06 107.861 377.676 106.371C378.292 104.867 379.13 103.578 380.189 102.504C381.264 101.43 382.51 100.599 383.928 100.012C385.36 99.4102 386.885 99.1094 388.504 99.1094C389.249 99.1094 389.986 99.2025 390.717 99.3887C391.447 99.5749 392.156 99.8327 392.844 100.162C393.531 100.492 394.183 100.878 394.799 101.322C395.429 101.766 396.016 102.246 396.561 102.762L398.838 100.033H400.256V123ZM394.348 111.291C394.348 110.489 394.19 109.715 393.875 108.971C393.574 108.212 393.159 107.546 392.629 106.973C392.099 106.385 391.476 105.92 390.76 105.576C390.058 105.218 389.306 105.039 388.504 105.039C387.702 105.039 386.943 105.175 386.227 105.447C385.525 105.719 384.909 106.12 384.379 106.65C383.863 107.18 383.455 107.839 383.154 108.627C382.854 109.4 382.703 110.288 382.703 111.291C382.703 112.294 382.854 113.189 383.154 113.977C383.455 114.75 383.863 115.402 384.379 115.932C384.909 116.462 385.525 116.863 386.227 117.135C386.943 117.407 387.702 117.543 388.504 117.543C389.306 117.543 390.058 117.371 390.76 117.027C391.476 116.669 392.099 116.204 392.629 115.631C393.159 115.044 393.574 114.378 393.875 113.633C394.19 112.874 394.348 112.093 394.348 111.291ZM410.611 123H404.746V99.9902H406.164L408.098 102.225C409.043 101.365 410.11 100.706 411.299 100.248C412.502 99.7754 413.755 99.5391 415.059 99.5391C416.462 99.5391 417.787 99.8112 419.033 100.355C420.279 100.885 421.368 101.623 422.299 102.568C423.23 103.499 423.96 104.595 424.49 105.855C425.035 107.102 425.307 108.434 425.307 109.852V123H419.441V109.852C419.441 109.25 419.327 108.684 419.098 108.154C418.868 107.61 418.553 107.137 418.152 106.736C417.751 106.335 417.286 106.02 416.756 105.791C416.226 105.562 415.66 105.447 415.059 105.447C414.443 105.447 413.863 105.562 413.318 105.791C412.774 106.02 412.301 106.335 411.9 106.736C411.499 107.137 411.184 107.61 410.955 108.154C410.726 108.684 410.611 109.25 410.611 109.852V123ZM451.732 123H450.314L448.037 119.842C447.479 120.343 446.884 120.816 446.254 121.26C445.638 121.689 444.986 122.069 444.299 122.398C443.611 122.714 442.902 122.964 442.172 123.15C441.456 123.337 440.725 123.43 439.98 123.43C438.362 123.43 436.837 123.129 435.404 122.527C433.986 121.911 432.74 121.066 431.666 119.992C430.606 118.904 429.768 117.622 429.152 116.146C428.536 114.657 428.229 113.038 428.229 111.291C428.229 109.558 428.536 107.947 429.152 106.457C429.768 104.967 430.606 103.678 431.666 102.59C432.74 101.501 433.986 100.649 435.404 100.033C436.837 99.4173 438.362 99.1094 439.98 99.1094C440.496 99.1094 441.026 99.1523 441.57 99.2383C442.129 99.3242 442.666 99.4674 443.182 99.668C443.712 99.8542 444.206 100.105 444.664 100.42C445.122 100.735 445.509 101.122 445.824 101.58V90.8379H451.732V123ZM445.824 111.291C445.824 110.489 445.667 109.715 445.352 108.971C445.051 108.212 444.635 107.546 444.105 106.973C443.576 106.385 442.952 105.92 442.236 105.576C441.535 105.218 440.783 105.039 439.98 105.039C439.178 105.039 438.419 105.182 437.703 105.469C437.001 105.755 436.385 106.171 435.855 106.715C435.34 107.245 434.932 107.896 434.631 108.67C434.33 109.443 434.18 110.317 434.18 111.291C434.18 112.136 434.33 112.938 434.631 113.697C434.932 114.456 435.34 115.122 435.855 115.695C436.385 116.268 437.001 116.719 437.703 117.049C438.419 117.378 439.178 117.543 439.98 117.543C440.783 117.543 441.535 117.371 442.236 117.027C442.952 116.669 443.576 116.204 444.105 115.631C444.635 115.044 445.051 114.378 445.352 113.633C445.667 112.874 445.824 112.093 445.824 111.291ZM467.846 106.994C467.846 108.484 467.753 109.916 467.566 111.291C467.38 112.652 467.13 113.955 466.814 115.201C466.499 116.433 466.141 117.593 465.74 118.682C465.354 119.756 464.952 120.744 464.537 121.646C463.563 123.781 462.467 125.7 461.25 127.404H454.611C455.915 125.442 457.082 123.344 458.113 121.109C458.557 120.164 458.987 119.14 459.402 118.037C459.832 116.934 460.212 115.781 460.541 114.578C460.87 113.375 461.135 112.136 461.336 110.861C461.536 109.587 461.637 108.298 461.637 106.994C461.637 105.605 461.536 104.266 461.336 102.977C461.135 101.673 460.87 100.441 460.541 99.2812C460.212 98.1211 459.832 97.0326 459.402 96.0156C458.987 94.9844 458.557 94.0462 458.113 93.2012C457.082 91.2103 455.915 89.4128 454.611 87.8086H461.25C462.467 89.1549 463.563 90.7663 464.537 92.6426C464.952 93.4447 465.354 94.347 465.74 95.3496C466.141 96.3522 466.499 97.4551 466.814 98.6582C467.13 99.847 467.38 101.136 467.566 102.525C467.753 103.915 467.846 105.404 467.846 106.994ZM70.4707 160.291C70.4707 162.01 70.1628 163.614 69.5469 165.104C68.931 166.579 68.0931 167.861 67.0332 168.949C65.9733 170.023 64.7272 170.876 63.2949 171.506C61.877 172.122 60.3516 172.43 58.7188 172.43C57.1003 172.43 55.5749 172.122 54.1426 171.506C52.7246 170.876 51.4785 170.023 50.4043 168.949C49.3444 167.861 48.5065 166.579 47.8906 165.104C47.2747 163.614 46.9668 162.01 46.9668 160.291C46.9668 158.544 47.2747 156.925 47.8906 155.436C48.5065 153.946 49.3444 152.664 50.4043 151.59C51.4785 150.501 52.7246 149.649 54.1426 149.033C55.5749 148.417 57.1003 148.109 58.7188 148.109C60.3516 148.109 61.877 148.403 63.2949 148.99C64.7272 149.563 65.9733 150.387 67.0332 151.461C68.0931 152.521 68.931 153.803 69.5469 155.307C70.1628 156.796 70.4707 158.458 70.4707 160.291ZM64.5625 160.291C64.5625 159.346 64.4049 158.493 64.0898 157.734C63.7891 156.961 63.3737 156.302 62.8438 155.758C62.3138 155.199 61.6908 154.777 60.9746 154.49C60.2728 154.189 59.5208 154.039 58.7188 154.039C57.9167 154.039 57.1576 154.189 56.4414 154.49C55.7396 154.777 55.1237 155.199 54.5938 155.758C54.0781 156.302 53.6699 156.961 53.3691 157.734C53.0684 158.493 52.918 159.346 52.918 160.291C52.918 161.179 53.0684 162.003 53.3691 162.762C53.6699 163.521 54.0781 164.18 54.5938 164.738C55.1237 165.297 55.7396 165.741 56.4414 166.07C57.1576 166.385 57.9167 166.543 58.7188 166.543C59.5208 166.543 60.2728 166.393 60.9746 166.092C61.6908 165.791 62.3138 165.368 62.8438 164.824C63.3737 164.28 63.7891 163.621 64.0898 162.848C64.4049 162.074 64.5625 161.222 64.5625 160.291ZM79.5801 172H73.7148V148.99H75.1328L77.0664 151.225C78.0117 150.365 79.0788 149.706 80.2676 149.248C81.4707 148.775 82.724 148.539 84.0273 148.539C85.431 148.539 86.7559 148.811 88.002 149.355C89.248 149.885 90.3366 150.623 91.2676 151.568C92.1986 152.499 92.929 153.595 93.459 154.855C94.0033 156.102 94.2754 157.434 94.2754 158.852V172H88.4102V158.852C88.4102 158.25 88.2956 157.684 88.0664 157.154C87.8372 156.61 87.5221 156.137 87.1211 155.736C86.7201 155.335 86.2546 155.02 85.7246 154.791C85.1947 154.562 84.6289 154.447 84.0273 154.447C83.4115 154.447 82.8314 154.562 82.2871 154.791C81.7428 155.02 81.2702 155.335 80.8691 155.736C80.4681 156.137 80.153 156.61 79.9238 157.154C79.6947 157.684 79.5801 158.25 79.5801 158.852V172ZM104.373 172H98.4648V139.838H104.373V172ZM115.781 142.738C115.781 143.283 115.674 143.791 115.459 144.264C115.258 144.736 114.979 145.152 114.621 145.51C114.263 145.854 113.84 146.133 113.354 146.348C112.881 146.548 112.372 146.648 111.828 146.648C111.284 146.648 110.768 146.548 110.281 146.348C109.809 146.133 109.393 145.854 109.035 145.51C108.691 145.152 108.412 144.736 108.197 144.264C107.997 143.791 107.896 143.283 107.896 142.738C107.896 142.208 107.997 141.707 108.197 141.234C108.412 140.747 108.691 140.332 109.035 139.988C109.393 139.63 109.809 139.351 110.281 139.15C110.768 138.936 111.284 138.828 111.828 138.828C112.372 138.828 112.881 138.936 113.354 139.15C113.84 139.351 114.263 139.63 114.621 139.988C114.979 140.332 115.258 140.747 115.459 141.234C115.674 141.707 115.781 142.208 115.781 142.738ZM114.771 172H108.863V148.99H114.771V172ZM125.127 172H119.262V148.99H120.68L122.613 151.225C123.559 150.365 124.626 149.706 125.814 149.248C127.018 148.775 128.271 148.539 129.574 148.539C130.978 148.539 132.303 148.811 133.549 149.355C134.795 149.885 135.883 150.623 136.814 151.568C137.745 152.499 138.476 153.595 139.006 154.855C139.55 156.102 139.822 157.434 139.822 158.852V172H133.957V158.852C133.957 158.25 133.842 157.684 133.613 157.154C133.384 156.61 133.069 156.137 132.668 155.736C132.267 155.335 131.801 155.02 131.271 154.791C130.742 154.562 130.176 154.447 129.574 154.447C128.958 154.447 128.378 154.562 127.834 154.791C127.29 155.02 126.817 155.335 126.416 155.736C126.015 156.137 125.7 156.61 125.471 157.154C125.242 157.684 125.127 158.25 125.127 158.852V172ZM153.164 166.371C153.393 166.443 153.622 166.493 153.852 166.521C154.081 166.536 154.31 166.543 154.539 166.543C155.112 166.543 155.663 166.464 156.193 166.307C156.723 166.149 157.217 165.927 157.676 165.641C158.148 165.34 158.564 164.982 158.922 164.566C159.294 164.137 159.595 163.664 159.824 163.148L164.121 167.467C163.577 168.24 162.947 168.935 162.23 169.551C161.529 170.167 160.762 170.689 159.932 171.119C159.115 171.549 158.249 171.871 157.332 172.086C156.43 172.315 155.499 172.43 154.539 172.43C152.921 172.43 151.395 172.129 149.963 171.527C148.545 170.926 147.299 170.088 146.225 169.014C145.165 167.939 144.327 166.665 143.711 165.189C143.095 163.7 142.787 162.067 142.787 160.291C142.787 158.472 143.095 156.811 143.711 155.307C144.327 153.803 145.165 152.521 146.225 151.461C147.299 150.401 148.545 149.577 149.963 148.99C151.395 148.403 152.921 148.109 154.539 148.109C155.499 148.109 156.437 148.224 157.354 148.453C158.27 148.682 159.137 149.012 159.953 149.441C160.784 149.871 161.557 150.401 162.273 151.031C162.99 151.647 163.62 152.342 164.164 153.115L153.164 166.371ZM156.172 154.275C155.9 154.175 155.628 154.111 155.355 154.082C155.098 154.053 154.826 154.039 154.539 154.039C153.737 154.039 152.978 154.189 152.262 154.49C151.56 154.777 150.944 155.192 150.414 155.736C149.898 156.281 149.49 156.939 149.189 157.713C148.889 158.472 148.738 159.331 148.738 160.291C148.738 160.506 148.745 160.749 148.76 161.021C148.788 161.294 148.824 161.573 148.867 161.859C148.924 162.132 148.989 162.396 149.061 162.654C149.132 162.912 149.225 163.141 149.34 163.342L156.172 154.275ZM185.369 180.766H179.461V148.99H180.879L183.221 151.762C183.751 151.26 184.331 150.788 184.961 150.344C185.591 149.9 186.243 149.52 186.916 149.205C187.604 148.876 188.312 148.618 189.043 148.432C189.773 148.245 190.511 148.152 191.256 148.152C192.874 148.152 194.393 148.446 195.811 149.033C197.243 149.606 198.489 150.423 199.549 151.482C200.623 152.542 201.468 153.824 202.084 155.328C202.7 156.818 203.008 158.472 203.008 160.291C203.008 162.182 202.7 163.886 202.084 165.404C201.468 166.908 200.623 168.19 199.549 169.25C198.489 170.296 197.243 171.098 195.811 171.656C194.393 172.215 192.874 172.494 191.256 172.494C190.74 172.494 190.225 172.437 189.709 172.322C189.208 172.208 188.706 172.057 188.205 171.871C187.718 171.671 187.231 171.449 186.744 171.205C186.271 170.962 185.813 170.711 185.369 170.453V180.766ZM197.121 160.291C197.121 159.317 196.964 158.443 196.648 157.67C196.348 156.896 195.932 156.245 195.402 155.715C194.872 155.171 194.249 154.755 193.533 154.469C192.817 154.182 192.058 154.039 191.256 154.039C190.454 154.039 189.695 154.182 188.979 154.469C188.277 154.755 187.661 155.171 187.131 155.715C186.601 156.245 186.178 156.896 185.863 157.67C185.562 158.443 185.412 159.317 185.412 160.291C185.412 161.222 185.562 162.074 185.863 162.848C186.178 163.621 186.601 164.28 187.131 164.824C187.661 165.368 188.277 165.791 188.979 166.092C189.695 166.393 190.454 166.543 191.256 166.543C192.058 166.543 192.817 166.393 193.533 166.092C194.249 165.791 194.872 165.368 195.402 164.824C195.932 164.28 196.348 163.621 196.648 162.848C196.964 162.074 197.121 161.222 197.121 160.291ZM212.139 172H206.273V148.99H207.691L209.625 151.719C210.57 150.859 211.645 150.201 212.848 149.742C214.051 149.27 215.297 149.033 216.586 149.033H221.764V154.877H216.586C215.97 154.877 215.39 154.992 214.846 155.221C214.301 155.45 213.829 155.765 213.428 156.166C213.027 156.567 212.712 157.04 212.482 157.584C212.253 158.128 212.139 158.708 212.139 159.324V172ZM233.215 166.371C233.444 166.443 233.673 166.493 233.902 166.521C234.132 166.536 234.361 166.543 234.59 166.543C235.163 166.543 235.714 166.464 236.244 166.307C236.774 166.149 237.268 165.927 237.727 165.641C238.199 165.34 238.615 164.982 238.973 164.566C239.345 164.137 239.646 163.664 239.875 163.148L244.172 167.467C243.628 168.24 242.997 168.935 242.281 169.551C241.579 170.167 240.813 170.689 239.982 171.119C239.166 171.549 238.299 171.871 237.383 172.086C236.48 172.315 235.549 172.43 234.59 172.43C232.971 172.43 231.446 172.129 230.014 171.527C228.596 170.926 227.35 170.088 226.275 169.014C225.215 167.939 224.378 166.665 223.762 165.189C223.146 163.7 222.838 162.067 222.838 160.291C222.838 158.472 223.146 156.811 223.762 155.307C224.378 153.803 225.215 152.521 226.275 151.461C227.35 150.401 228.596 149.577 230.014 148.99C231.446 148.403 232.971 148.109 234.59 148.109C235.549 148.109 236.488 148.224 237.404 148.453C238.321 148.682 239.188 149.012 240.004 149.441C240.835 149.871 241.608 150.401 242.324 151.031C243.04 151.647 243.671 152.342 244.215 153.115L233.215 166.371ZM236.223 154.275C235.951 154.175 235.678 154.111 235.406 154.082C235.148 154.053 234.876 154.039 234.59 154.039C233.788 154.039 233.029 154.189 232.312 154.49C231.611 154.777 230.995 155.192 230.465 155.736C229.949 156.281 229.541 156.939 229.24 157.713C228.939 158.472 228.789 159.331 228.789 160.291C228.789 160.506 228.796 160.749 228.811 161.021C228.839 161.294 228.875 161.573 228.918 161.859C228.975 162.132 229.04 162.396 229.111 162.654C229.183 162.912 229.276 163.141 229.391 163.342L236.223 154.275ZM259.812 172H246.406V166.156H259.812C260.214 166.156 260.557 166.013 260.844 165.727C261.13 165.44 261.273 165.096 261.273 164.695C261.273 164.28 261.13 164.008 260.844 163.879C260.557 163.75 260.214 163.686 259.812 163.686H253.711C252.694 163.686 251.742 163.492 250.854 163.105C249.965 162.719 249.192 162.196 248.533 161.537C247.874 160.864 247.352 160.083 246.965 159.195C246.592 158.307 246.406 157.355 246.406 156.338C246.406 155.321 246.592 154.368 246.965 153.48C247.352 152.592 247.874 151.819 248.533 151.16C249.192 150.501 249.965 149.986 250.854 149.613C251.742 149.227 252.694 149.033 253.711 149.033H265.592V154.877H253.711C253.31 154.877 252.966 155.02 252.68 155.307C252.393 155.593 252.25 155.937 252.25 156.338C252.25 156.753 252.393 157.111 252.68 157.412C252.966 157.699 253.31 157.842 253.711 157.842H259.812C260.815 157.842 261.76 158.014 262.648 158.357C263.536 158.687 264.31 159.152 264.969 159.754C265.628 160.355 266.15 161.079 266.537 161.924C266.924 162.769 267.117 163.693 267.117 164.695C267.117 165.712 266.924 166.665 266.537 167.553C266.15 168.426 265.628 169.2 264.969 169.873C264.31 170.532 263.536 171.055 262.648 171.441C261.76 171.814 260.815 172 259.812 172ZM279.406 166.371C279.635 166.443 279.865 166.493 280.094 166.521C280.323 166.536 280.552 166.543 280.781 166.543C281.354 166.543 281.906 166.464 282.436 166.307C282.965 166.149 283.46 165.927 283.918 165.641C284.391 165.34 284.806 164.982 285.164 164.566C285.536 164.137 285.837 163.664 286.066 163.148L290.363 167.467C289.819 168.24 289.189 168.935 288.473 169.551C287.771 170.167 287.005 170.689 286.174 171.119C285.357 171.549 284.491 171.871 283.574 172.086C282.672 172.315 281.741 172.43 280.781 172.43C279.163 172.43 277.637 172.129 276.205 171.527C274.787 170.926 273.541 170.088 272.467 169.014C271.407 167.939 270.569 166.665 269.953 165.189C269.337 163.7 269.029 162.067 269.029 160.291C269.029 158.472 269.337 156.811 269.953 155.307C270.569 153.803 271.407 152.521 272.467 151.461C273.541 150.401 274.787 149.577 276.205 148.99C277.637 148.403 279.163 148.109 280.781 148.109C281.741 148.109 282.679 148.224 283.596 148.453C284.512 148.682 285.379 149.012 286.195 149.441C287.026 149.871 287.799 150.401 288.516 151.031C289.232 151.647 289.862 152.342 290.406 153.115L279.406 166.371ZM282.414 154.275C282.142 154.175 281.87 154.111 281.598 154.082C281.34 154.053 281.068 154.039 280.781 154.039C279.979 154.039 279.22 154.189 278.504 154.49C277.802 154.777 277.186 155.192 276.656 155.736C276.141 156.281 275.732 156.939 275.432 157.713C275.131 158.472 274.98 159.331 274.98 160.291C274.98 160.506 274.988 160.749 275.002 161.021C275.031 161.294 275.066 161.573 275.109 161.859C275.167 162.132 275.231 162.396 275.303 162.654C275.374 162.912 275.467 163.141 275.582 163.342L282.414 154.275ZM299.236 172H293.371V148.99H294.789L296.723 151.225C297.668 150.365 298.735 149.706 299.924 149.248C301.127 148.775 302.38 148.539 303.684 148.539C305.087 148.539 306.412 148.811 307.658 149.355C308.904 149.885 309.993 150.623 310.924 151.568C311.855 152.499 312.585 153.595 313.115 154.855C313.66 156.102 313.932 157.434 313.932 158.852V172H308.066V158.852C308.066 158.25 307.952 157.684 307.723 157.154C307.493 156.61 307.178 156.137 306.777 155.736C306.376 155.335 305.911 155.02 305.381 154.791C304.851 154.562 304.285 154.447 303.684 154.447C303.068 154.447 302.488 154.562 301.943 154.791C301.399 155.02 300.926 155.335 300.525 155.736C300.124 156.137 299.809 156.61 299.58 157.154C299.351 157.684 299.236 158.25 299.236 158.852V172ZM338.23 153.566L333.934 157.885C333.719 157.283 333.425 156.746 333.053 156.273C332.68 155.786 332.258 155.378 331.785 155.049C331.327 154.719 330.826 154.469 330.281 154.297C329.737 154.125 329.178 154.039 328.605 154.039C327.803 154.039 327.044 154.204 326.328 154.533C325.626 154.863 325.01 155.328 324.48 155.93C323.965 156.517 323.557 157.219 323.256 158.035C322.955 158.852 322.805 159.754 322.805 160.742C322.805 161.544 322.955 162.296 323.256 162.998C323.557 163.7 323.965 164.316 324.48 164.846C325.01 165.376 325.626 165.791 326.328 166.092C327.044 166.393 327.803 166.543 328.605 166.543C329.178 166.543 329.73 166.464 330.26 166.307C330.79 166.149 331.284 165.927 331.742 165.641C332.215 165.34 332.63 164.982 332.988 164.566C333.361 164.137 333.661 163.664 333.891 163.148L338.188 167.467C337.643 168.24 337.013 168.935 336.297 169.551C335.595 170.167 334.829 170.689 333.998 171.119C333.182 171.549 332.315 171.871 331.398 172.086C330.496 172.315 329.565 172.43 328.605 172.43C326.987 172.43 325.462 172.129 324.029 171.527C322.611 170.911 321.365 170.074 320.291 169.014C319.231 167.954 318.393 166.715 317.777 165.297C317.161 163.879 316.854 162.361 316.854 160.742C316.854 158.98 317.161 157.333 317.777 155.801C318.393 154.268 319.231 152.936 320.291 151.805C321.365 150.659 322.611 149.757 324.029 149.098C325.462 148.439 326.987 148.109 328.605 148.109C329.565 148.109 330.503 148.231 331.42 148.475C332.351 148.718 333.232 149.076 334.062 149.549C334.908 150.007 335.681 150.573 336.383 151.246C337.099 151.919 337.715 152.693 338.23 153.566ZM349.918 166.371C350.147 166.443 350.376 166.493 350.605 166.521C350.835 166.536 351.064 166.543 351.293 166.543C351.866 166.543 352.417 166.464 352.947 166.307C353.477 166.149 353.971 165.927 354.43 165.641C354.902 165.34 355.318 164.982 355.676 164.566C356.048 164.137 356.349 163.664 356.578 163.148L360.875 167.467C360.331 168.24 359.701 168.935 358.984 169.551C358.283 170.167 357.516 170.689 356.686 171.119C355.869 171.549 355.003 171.871 354.086 172.086C353.184 172.315 352.253 172.43 351.293 172.43C349.674 172.43 348.149 172.129 346.717 171.527C345.299 170.926 344.053 170.088 342.979 169.014C341.919 167.939 341.081 166.665 340.465 165.189C339.849 163.7 339.541 162.067 339.541 160.291C339.541 158.472 339.849 156.811 340.465 155.307C341.081 153.803 341.919 152.521 342.979 151.461C344.053 150.401 345.299 149.577 346.717 148.99C348.149 148.403 349.674 148.109 351.293 148.109C352.253 148.109 353.191 148.224 354.107 148.453C355.024 148.682 355.891 149.012 356.707 149.441C357.538 149.871 358.311 150.401 359.027 151.031C359.743 151.647 360.374 152.342 360.918 153.115L349.918 166.371ZM352.926 154.275C352.654 154.175 352.382 154.111 352.109 154.082C351.852 154.053 351.579 154.039 351.293 154.039C350.491 154.039 349.732 154.189 349.016 154.49C348.314 154.777 347.698 155.192 347.168 155.736C346.652 156.281 346.244 156.939 345.943 157.713C345.643 158.472 345.492 159.331 345.492 160.291C345.492 160.506 345.499 160.749 345.514 161.021C345.542 161.294 345.578 161.573 345.621 161.859C345.678 162.132 345.743 162.396 345.814 162.654C345.886 162.912 345.979 163.141 346.094 163.342L352.926 154.275ZM394.971 159.689V153.523C394.971 152.678 394.806 151.883 394.477 151.139C394.161 150.38 393.725 149.721 393.166 149.162C392.607 148.604 391.949 148.167 391.189 147.852C390.445 147.522 389.65 147.357 388.805 147.357C387.96 147.357 387.158 147.522 386.398 147.852C385.654 148.167 385.002 148.604 384.443 149.162C383.885 149.721 383.441 150.38 383.111 151.139C382.796 151.883 382.639 152.678 382.639 153.523V159.689H394.971ZM401.137 172H394.971V165.834H382.639V172H376.494V153.523C376.494 151.819 376.816 150.222 377.461 148.732C378.105 147.229 378.979 145.918 380.082 144.801C381.199 143.684 382.503 142.803 383.992 142.158C385.496 141.514 387.1 141.191 388.805 141.191C390.509 141.191 392.106 141.514 393.596 142.158C395.1 142.803 396.41 143.684 397.527 144.801C398.645 145.918 399.525 147.229 400.17 148.732C400.814 150.222 401.137 151.819 401.137 153.523V172ZM404.682 150.43C404.682 149.155 404.925 147.959 405.412 146.842C405.899 145.725 406.558 144.751 407.389 143.92C408.234 143.075 409.215 142.409 410.332 141.922C411.449 141.435 412.645 141.191 413.92 141.191H428.057V147.357H413.92C413.49 147.357 413.089 147.436 412.717 147.594C412.344 147.751 412.015 147.973 411.729 148.26C411.456 148.532 411.242 148.854 411.084 149.227C410.926 149.599 410.848 150 410.848 150.43C410.848 150.859 410.926 151.268 411.084 151.654C411.242 152.027 411.456 152.356 411.729 152.643C412.015 152.915 412.344 153.13 412.717 153.287C413.089 153.445 413.49 153.523 413.92 153.523H420.086C421.361 153.523 422.557 153.767 423.674 154.254C424.805 154.727 425.786 155.385 426.617 156.23C427.462 157.061 428.121 158.042 428.594 159.174C429.081 160.291 429.324 161.487 429.324 162.762C429.324 164.036 429.081 165.232 428.594 166.35C428.121 167.467 427.462 168.448 426.617 169.293C425.786 170.124 424.805 170.783 423.674 171.27C422.557 171.757 421.361 172 420.086 172H406.4V165.834H420.086C420.516 165.834 420.917 165.755 421.289 165.598C421.661 165.44 421.984 165.225 422.256 164.953C422.542 164.667 422.764 164.337 422.922 163.965C423.079 163.592 423.158 163.191 423.158 162.762C423.158 162.332 423.079 161.931 422.922 161.559C422.764 161.186 422.542 160.864 422.256 160.592C421.984 160.305 421.661 160.083 421.289 159.926C420.917 159.768 420.516 159.689 420.086 159.689H413.92C412.645 159.689 411.449 159.446 410.332 158.959C409.215 158.472 408.234 157.813 407.389 156.982C406.558 156.137 405.899 155.156 405.412 154.039C404.925 152.908 404.682 151.704 404.682 150.43ZM451.518 159.689V153.523C451.518 152.678 451.353 151.883 451.023 151.139C450.708 150.38 450.271 149.721 449.713 149.162C449.154 148.604 448.495 148.167 447.736 147.852C446.992 147.522 446.197 147.357 445.352 147.357C444.507 147.357 443.704 147.522 442.945 147.852C442.201 148.167 441.549 148.604 440.99 149.162C440.432 149.721 439.988 150.38 439.658 151.139C439.343 151.883 439.186 152.678 439.186 153.523V159.689H451.518ZM457.684 172H451.518V165.834H439.186V172H433.041V153.523C433.041 151.819 433.363 150.222 434.008 148.732C434.652 147.229 435.526 145.918 436.629 144.801C437.746 143.684 439.049 142.803 440.539 142.158C442.043 141.514 443.647 141.191 445.352 141.191C447.056 141.191 448.653 141.514 450.143 142.158C451.646 142.803 452.957 143.684 454.074 144.801C455.191 145.918 456.072 147.229 456.717 148.732C457.361 150.222 457.684 151.819 457.684 153.523V172ZM469.199 147.357V159.689H475.365C476.21 159.689 477.005 159.532 477.75 159.217C478.495 158.887 479.146 158.443 479.705 157.885C480.264 157.326 480.701 156.674 481.016 155.93C481.345 155.171 481.51 154.368 481.51 153.523C481.51 152.678 481.345 151.883 481.016 151.139C480.701 150.38 480.264 149.721 479.705 149.162C479.146 148.604 478.495 148.167 477.75 147.852C477.005 147.522 476.21 147.357 475.365 147.357H469.199ZM469.199 172H463.033V141.191H475.365C476.497 141.191 477.585 141.342 478.631 141.643C479.676 141.929 480.65 142.344 481.553 142.889C482.469 143.419 483.3 144.063 484.045 144.822C484.804 145.567 485.449 146.398 485.979 147.314C486.523 148.231 486.938 149.212 487.225 150.258C487.525 151.303 487.676 152.392 487.676 153.523C487.676 155.214 487.354 156.811 486.709 158.314C486.064 159.804 485.184 161.107 484.066 162.225C482.949 163.342 481.639 164.223 480.135 164.867C478.645 165.512 477.055 165.834 475.365 165.834H469.199V172ZM497.43 144.801C497.43 145.431 497.365 146.111 497.236 146.842C497.122 147.558 496.928 148.274 496.656 148.99C496.398 149.692 496.055 150.365 495.625 151.01C495.195 151.654 494.68 152.199 494.078 152.643L491.758 151.01C492.145 150.551 492.438 150.115 492.639 149.699C492.839 149.284 492.997 148.868 493.111 148.453C492.682 148.382 492.281 148.238 491.908 148.023C491.536 147.809 491.214 147.544 490.941 147.229C490.684 146.899 490.476 146.527 490.318 146.111C490.161 145.696 490.082 145.259 490.082 144.801C490.082 144.314 490.175 143.848 490.361 143.404C490.562 142.96 490.827 142.574 491.156 142.244C491.5 141.9 491.887 141.635 492.316 141.449C492.76 141.249 493.233 141.148 493.734 141.148C494.25 141.148 494.73 141.249 495.174 141.449C495.632 141.635 496.026 141.9 496.355 142.244C496.685 142.574 496.943 142.96 497.129 143.404C497.329 143.848 497.43 144.314 497.43 144.801ZM506.217 144.801C506.217 145.431 506.152 146.111 506.023 146.842C505.909 147.558 505.715 148.274 505.443 148.99C505.186 149.692 504.842 150.365 504.412 151.01C503.997 151.654 503.488 152.199 502.887 152.643L500.545 151.01C500.946 150.551 501.247 150.115 501.447 149.699C501.648 149.284 501.805 148.868 501.92 148.453C501.49 148.382 501.089 148.238 500.717 148.023C500.344 147.809 500.022 147.544 499.75 147.229C499.478 146.899 499.263 146.527 499.105 146.111C498.948 145.696 498.869 145.259 498.869 144.801C498.869 144.314 498.962 143.848 499.148 143.404C499.349 142.96 499.614 142.574 499.943 142.244C500.287 141.9 500.674 141.635 501.104 141.449C501.548 141.249 502.02 141.148 502.521 141.148C503.037 141.148 503.517 141.249 503.961 141.449C504.419 141.635 504.813 141.9 505.143 142.244C505.486 142.574 505.751 142.96 505.938 143.404C506.124 143.848 506.217 144.314 506.217 144.801Z" fill="black"/>
</svg>
