<svg width="320" height="73" viewBox="0 0 320 73" fill="none" xmlns="http://www.w3.org/2000/svg">
<path d="M-25.504 56.04L-27.2378 57.0369L-27.2285 57.0531L-27.219 57.069L-25.504 56.04ZM-15.52 59.784L-15.3666 61.7781L-15.52 59.784ZM-12.928 59.496L-12.6451 61.4759L-10.928 61.2306V59.496H-12.928ZM-12.928 34.92H-10.928V33.7594L-11.9357 33.1835L-12.928 34.92ZM-16 33.672L-16.6324 35.5694L-16.5842 35.5854L-16.5353 35.599L-16 33.672ZM-1.12 67.656L-0.504349 69.5589L0.880005 69.111V67.656H-1.12ZM-9.088 69.384L-9.37083 67.4041L-9.088 69.384ZM-34.336 63.816L-35.8512 65.1214L-35.8455 65.1281L-35.8397 65.1346L-34.336 63.816ZM-35.2 29.352L-36.8258 28.1872L-36.8291 28.1919L-35.2 29.352ZM-16.96 23.496L-17.4451 25.4363L-17.4067 25.4459L-17.3679 25.454L-16.96 23.496ZM-12.928 24.936L-13.8993 26.6843L-10.928 28.335V24.936H-12.928ZM-12.928 4.392L-13.2646 2.42052L-14.928 2.70452V4.392H-12.928ZM-1.12 2.376H0.880005V0.00559664L-1.45659 0.404526L-1.12 2.376ZM-29.712 46.152C-29.712 50.4114 -28.9365 54.0826 -27.2378 57.0369L-23.7702 55.0431C-25.0155 52.8774 -25.712 49.9566 -25.712 46.152H-29.712ZM-27.219 57.069C-25.2744 60.3099 -22.1419 61.88 -18.208 61.88V57.88C-20.9301 57.88 -22.6616 56.8901 -23.789 55.011L-27.219 57.069ZM-18.208 61.88C-17.2042 61.88 -16.2565 61.8466 -15.3666 61.7781L-15.6734 57.7899C-16.4474 57.8494 -17.2918 57.88 -18.208 57.88V61.88ZM-15.3666 61.7781C-14.4879 61.7105 -13.5806 61.6095 -12.6451 61.4759L-13.2108 57.5161C-14.0674 57.6385 -14.8881 57.7295 -15.6734 57.7899L-15.3666 61.7781ZM-10.928 59.496V34.92H-14.928V59.496H-10.928ZM-11.9357 33.1835C-12.9962 32.5775 -14.1777 32.1025 -15.4647 31.745L-16.5353 35.599C-15.5183 35.8815 -14.6518 36.2385 -13.9203 36.6565L-11.9357 33.1835ZM-15.3675 31.7746C-16.7343 31.319 -18.1647 31.096 -19.648 31.096V35.096C-18.5713 35.096 -17.5697 35.2569 -16.6324 35.5694L-15.3675 31.7746ZM-19.648 31.096C-23.1017 31.096 -25.8544 32.5341 -27.5285 35.4637L-24.0555 37.4483C-23.1696 35.8979 -21.8262 35.096 -19.648 35.096V31.096ZM-27.5285 35.4637C-29.0582 38.1408 -29.712 41.778 -29.712 46.152H-25.712C-25.712 42.078 -25.0857 39.2512 -24.0555 37.4483L-27.5285 35.4637ZM-1.73563 65.7531C-3.77071 66.4115 -6.30814 66.9666 -9.37083 67.4041L-8.80515 71.3639C-5.59585 70.9054 -2.82128 70.3085 -0.504349 69.5589L-1.73563 65.7531ZM-9.37083 67.4041C-12.4181 67.8394 -15.3955 68.056 -18.304 68.056V72.056C-15.1965 72.056 -12.0299 71.8246 -8.80515 71.3639L-9.37083 67.4041ZM-18.304 68.056C-24.9363 68.056 -29.6624 66.1121 -32.8323 62.4974L-35.8397 65.1346C-31.7136 69.8399 -25.7517 72.056 -18.304 72.056V68.056ZM-32.8208 62.5106C-36.0042 58.8155 -37.712 53.6351 -37.712 46.728H-41.712C-41.712 54.2849 -39.8358 60.4965 -35.8512 65.1214L-32.8208 62.5106ZM-37.712 46.728C-37.712 39.6156 -36.2556 34.2822 -33.5709 30.5121L-36.8291 28.1919C-40.1604 32.8698 -41.712 39.1204 -41.712 46.728H-37.712ZM-33.5742 30.5168C-30.9302 26.8262 -27.0667 24.92 -21.664 24.92V20.92C-28.1653 20.92 -33.3258 23.3018 -36.8258 28.1872L-33.5742 30.5168ZM-21.664 24.92C-20.2258 24.92 -18.8207 25.0924 -17.4451 25.4363L-16.4749 21.5557C-18.1712 21.1316 -19.9022 20.92 -21.664 20.92V24.92ZM-17.3679 25.454C-15.9928 25.7404 -14.8453 26.1587 -13.8993 26.6843L-11.9567 23.1877C-13.3147 22.4333 -14.8552 21.8915 -16.5521 21.538L-17.3679 25.454ZM-10.928 24.936V4.392H-14.928V24.936H-10.928ZM-12.5914 6.36347L-0.783401 4.34747L-1.45659 0.404526L-13.2646 2.42052L-12.5914 6.36347ZM-3.12 2.376V67.656H0.880005V2.376H-3.12ZM15.68 36.36L17.5342 37.1096L15.68 36.36ZM20.48 28.872L21.8942 30.2862L21.9054 30.275L21.9165 30.2636L20.48 28.872ZM27.296 24.264L26.5532 22.407L27.296 24.264ZM50.336 28.68L48.8279 29.9936L48.8331 29.9996L48.8385 30.0057L50.336 28.68ZM55.424 48.264L53.4299 48.1106L53.424 48.1872V48.264H55.424ZM55.328 50.28V52.28H57.0936L57.3126 50.5281L55.328 50.28ZM26.048 50.28V48.28H24.048V50.28H26.048ZM29.696 57.288L28.5376 58.9184L28.552 58.9286L28.5666 58.9386L29.696 57.288ZM45.824 59.016L45.3659 57.0691L45.3528 57.0723L45.824 59.016ZM51.296 57.48L53.2703 57.1604L52.8895 54.8082L50.639 55.591L51.296 57.48ZM52.928 67.56L53.5782 69.4514L55.1716 68.9036L54.9023 67.2404L52.928 67.56ZM46.4 69.288L46.0183 67.3248L45.9921 67.3298L45.9661 67.3356L46.4 69.288ZM28.256 68.616L27.6115 70.5093L27.6354 70.5174L27.6595 70.525L28.256 68.616ZM20.48 64.2L19.1107 65.6577L19.1334 65.679L19.1568 65.6997L20.48 64.2ZM15.584 56.904L17.441 56.1612L15.584 56.904ZM44.096 42.12V44.12H46.096V42.12H44.096ZM43.616 38.664L41.689 39.1993L41.693 39.2138L41.6973 39.2283L43.616 38.664ZM39.392 33.48L38.4562 35.2476L38.4978 35.2696L38.5404 35.2896L39.392 33.48ZM31.328 33.384L30.5157 31.5564L30.496 31.5652L30.4764 31.5744L31.328 33.384ZM28.544 35.496L27.0255 34.1944L26.9977 34.2268L26.9714 34.2604L28.544 35.496ZM26.816 38.568L24.952 37.8431L24.9342 37.8889L24.9186 37.9355L26.816 38.568ZM26.048 42.12L24.059 41.9106L23.8264 44.12H26.048V42.12ZM15.856 46.824C15.856 43.0573 16.4334 39.8327 17.5342 37.1096L13.8258 35.6104C12.4946 38.9033 11.856 42.6547 11.856 46.824H15.856ZM17.5342 37.1096C18.6652 34.3119 20.1273 32.0531 21.8942 30.2862L19.0658 27.4578C16.8647 29.6589 15.1268 32.3921 13.8258 35.6104L17.5342 37.1096ZM21.9165 30.2636C23.7114 28.4107 25.7492 27.0368 28.0388 26.121L26.5532 22.407C23.7228 23.5392 21.2166 25.2373 19.0435 27.4804L21.9165 30.2636ZM28.0388 26.121C30.3688 25.189 32.7411 24.728 35.168 24.728V20.728C32.219 20.728 29.3433 21.291 26.5532 22.407L28.0388 26.121ZM35.168 24.728C41.4105 24.728 45.848 26.5722 48.8279 29.9936L51.8442 27.3664C47.912 22.8517 42.2375 20.728 35.168 20.728V24.728ZM48.8385 30.0057C51.8518 33.4096 53.52 38.5849 53.52 45.864H57.52C57.52 38.0391 55.7322 31.7584 51.8335 27.3543L48.8385 30.0057ZM53.52 45.864C53.52 46.5766 53.4903 47.3253 53.4299 48.1106L57.4181 48.4174C57.4857 47.5387 57.52 46.6874 57.52 45.864H53.52ZM53.424 48.264C53.424 49.0566 53.3929 49.6364 53.3434 50.0319L57.3126 50.5281C57.3911 49.8996 57.424 49.1354 57.424 48.264H53.424ZM55.328 48.28H26.048V52.28H55.328V48.28ZM24.048 50.28C24.048 53.8819 25.5861 56.8212 28.5376 58.9184L30.8544 55.6576C28.942 54.2988 28.048 52.5661 28.048 50.28H24.048ZM28.5666 58.9386C31.4188 60.8901 34.982 61.784 39.104 61.784V57.784C35.546 57.784 32.8372 57.0139 30.8254 55.6374L28.5666 58.9386ZM39.104 61.784C41.6167 61.784 44.0158 61.5123 46.2952 60.9597L45.3528 57.0723C43.4082 57.5437 41.3273 57.784 39.104 57.784V61.784ZM46.2821 60.9628C48.4992 60.4412 50.3945 59.9111 51.953 59.369L50.639 55.591C49.2535 56.0729 47.5009 56.5668 45.3659 57.0692L46.2821 60.9628ZM49.3217 57.7996L50.9537 67.8796L54.9023 67.2404L53.2703 57.1604L49.3217 57.7996ZM52.2778 65.6686C50.3245 66.3401 48.2387 66.893 46.0183 67.3248L46.7817 71.2512C49.1693 70.787 51.4355 70.1879 53.5782 69.4514L52.2778 65.6686ZM45.9661 67.3356C43.8317 67.81 41.3887 68.056 38.624 68.056V72.056C41.6193 72.056 44.3603 71.7901 46.8339 71.2404L45.9661 67.3356ZM38.624 68.056C34.9485 68.056 31.6984 67.5964 28.8526 66.707L27.6595 70.525C30.9576 71.5556 34.6195 72.056 38.624 72.056V68.056ZM28.9005 66.7227C26.1187 65.7757 23.7631 64.4296 21.8032 62.7003L19.1568 65.6997C21.5489 67.8103 24.3773 69.4083 27.6115 70.5093L28.9005 66.7227ZM21.8494 62.7423C19.9649 60.972 18.4923 58.7896 17.441 56.1612L13.7271 57.6468C14.9797 60.7784 16.7711 63.46 19.1107 65.6577L21.8494 62.7423ZM17.441 56.1612C16.403 53.5663 15.856 50.4681 15.856 46.824H11.856C11.856 50.8599 12.461 54.4817 13.7271 57.6468L17.441 56.1612ZM46.096 42.12C46.096 40.7267 45.9124 39.3837 45.5347 38.0997L41.6973 39.2283C41.9596 40.1203 42.096 41.0813 42.096 42.12H46.096ZM45.543 38.1287C45.1559 36.7349 44.5279 35.4703 43.6526 34.3564L40.5074 36.8276C41.0401 37.5057 41.4361 38.2891 41.689 39.1993L45.543 38.1287ZM43.6526 34.3564C42.7456 33.202 41.5974 32.3074 40.2436 31.6704L38.5404 35.2896C39.3627 35.6766 40.0064 36.19 40.5074 36.8276L43.6526 34.3564ZM40.3278 31.7124C38.878 30.9449 37.1915 30.616 35.36 30.616V34.616C36.7285 34.616 37.73 34.8631 38.4562 35.2476L40.3278 31.7124ZM35.36 30.616C33.6039 30.616 31.9729 30.9087 30.5157 31.5564L32.1403 35.2116C32.9871 34.8353 34.0441 34.616 35.36 34.616V30.616ZM30.4764 31.5744C29.1377 32.2043 27.981 33.0797 27.0255 34.1944L30.0625 36.7976C30.6431 36.1203 31.3423 35.5877 32.1796 35.1936L30.4764 31.5744ZM26.9714 34.2604C26.1358 35.3239 25.4654 36.5229 24.952 37.8431L28.68 39.2929C29.0626 38.3091 29.5443 37.4601 30.1166 36.7316L26.9714 34.2604ZM24.9186 37.9355C24.4886 39.2258 24.202 40.5517 24.059 41.9106L28.037 42.3294C28.15 41.2563 28.3755 40.2142 28.7134 39.2005L24.9186 37.9355ZM26.048 44.12H44.096V40.12H26.048V44.12ZM82.784 69L80.9992 69.9024L81.5541 71H82.784V69ZM73.952 49.032L72.0845 49.7479L72.0881 49.7573L72.0918 49.7667L73.952 49.032ZM65.504 23.88V21.88H62.8268L63.5861 24.4473L65.504 23.88ZM77.888 23.88L79.8342 23.4191L79.4697 21.88H77.888V23.88ZM79.904 31.656L77.9776 32.1936L77.9834 32.2142L77.9896 32.2348L79.904 31.656ZM82.496 40.008L80.5901 40.6144L80.5943 40.6272L82.496 40.008ZM85.184 48.072L83.2913 48.7183L83.2983 48.7388L83.3058 48.7592L85.184 48.072ZM87.872 55.272L86.0039 55.9863L87.872 60.8721L89.7401 55.9863L87.872 55.272ZM90.656 48.072L88.7928 47.3449L90.656 48.072ZM93.632 40.008L91.7524 39.3245L91.7479 39.3369L91.7436 39.3493L93.632 40.008ZM96.512 31.656L94.6236 30.9973L94.6167 31.017L94.6103 31.0368L96.512 31.656ZM98.816 23.88V21.88H97.2344L96.8698 23.4191L98.816 23.88ZM110.816 23.88L112.734 24.4473L113.493 21.88H110.816V23.88ZM101.888 49.032L103.726 49.8198L103.729 49.8143L101.888 49.032ZM92.672 69V71H93.9019L94.4568 69.9024L92.672 69ZM84.5688 68.0976C81.7229 62.469 78.8036 55.8713 75.8122 48.2973L72.0918 49.7667C75.1164 57.4247 78.0851 64.139 80.9992 69.9024L84.5688 68.0976ZM75.8195 48.3161C72.8968 40.6917 70.0972 32.3579 67.4219 23.3127L63.5861 24.4473C66.2868 33.5781 69.1192 42.0123 72.0845 49.7479L75.8195 48.3161ZM65.504 25.88H77.888V21.88H65.504V25.88ZM75.9418 24.3409C76.5247 26.8019 77.2035 29.4197 77.9776 32.1936L81.8304 31.1184C81.0685 28.3883 80.4033 25.8221 79.8342 23.4191L75.9418 24.3409ZM77.9896 32.2348C78.8244 34.9963 79.6913 37.7895 80.5901 40.6144L84.4019 39.4016C83.5087 36.5945 82.6476 33.8197 81.8184 31.0772L77.9896 32.2348ZM80.5943 40.6272C81.4931 43.3878 82.3921 46.0849 83.2913 48.7183L87.0767 47.4257C86.1839 44.8111 85.2909 42.1322 84.3978 39.3888L80.5943 40.6272ZM83.3058 48.7592C84.2684 51.3905 85.1679 53.7997 86.0039 55.9863L89.7401 54.5577C88.9122 52.3923 88.0196 50.0015 87.0623 47.3848L83.3058 48.7592ZM89.7401 55.9863C90.5702 53.8153 91.4965 51.4197 92.5192 48.7991L88.7928 47.3449C87.7675 49.9723 86.8378 52.3767 86.0039 54.5577L89.7401 55.9863ZM92.5192 48.7991C93.5523 46.1517 94.5527 43.4409 95.5204 40.6667L91.7436 39.3493C90.7913 42.0791 89.8077 44.7443 88.7928 47.3449L92.5192 48.7991ZM95.5116 40.6915C96.5431 37.8549 97.5105 35.0495 98.4137 32.2752L94.6103 31.0368C93.7215 33.7665 92.7689 36.5291 91.7524 39.3245L95.5116 40.6915ZM98.4004 32.3147C99.3794 29.5082 100.168 26.8497 100.762 24.3409L96.8698 23.4191C96.312 25.7743 95.5646 28.2998 94.6236 30.9973L98.4004 32.3147ZM98.816 25.88H110.816V21.88H98.816V25.88ZM108.898 23.3127C106.229 32.3373 103.278 40.6485 100.047 48.2497L103.729 49.8143C107.026 42.0555 110.027 33.5987 112.734 24.4473L108.898 23.3127ZM100.05 48.2442C96.7977 55.8321 93.7435 62.4483 90.8872 68.0976L94.4568 69.9024C97.3605 64.1597 100.45 57.4639 103.726 49.8198L100.05 48.2442ZM92.672 67H82.784V71H92.672V67ZM130.784 69H128.784V71H130.784V69ZM130.784 33.672H132.784V31.672H130.784V33.672ZM120.896 33.672H118.896V35.672H120.896V33.672ZM120.896 23.88V21.88H118.896V23.88H120.896ZM130.784 23.88V25.88H132.784V23.88H130.784ZM132.32 12.264L130.494 11.4473L130.489 11.4587L130.484 11.4702L132.32 12.264ZM136.64 6.504L137.876 8.07663L137.893 8.06323L137.909 8.04945L136.64 6.504ZM142.784 3.432L143.269 5.37228L143.294 5.36598L143.319 5.35903L142.784 3.432ZM157.568 3.144L157.905 1.17252V1.17252L157.568 3.144ZM164.672 5.352L166.629 5.76303L166.95 4.23399L165.545 3.55237L164.672 5.352ZM162.656 14.952L161.999 16.841L164.146 17.5878L164.613 15.363L162.656 14.952ZM157.088 13.416L156.576 15.3494L156.609 15.3581L156.642 15.3657L157.088 13.416ZM147.68 12.84L147.311 10.8743L147.3 10.8765L147.288 10.8788L147.68 12.84ZM145.088 14.088L143.808 12.5516L143.775 12.5791L143.743 12.6081L145.088 14.088ZM143.36 16.872L145.224 17.5969L145.23 17.5802L145.237 17.5634L143.36 16.872ZM142.688 23.88H140.688V25.88H142.688V23.88ZM161.216 23.88H163.216V21.88H161.216V23.88ZM161.216 33.672V35.672H163.216V33.672H161.216ZM142.688 33.672V31.672H140.688V33.672H142.688ZM142.688 69V71H144.688V69H142.688ZM132.784 69V33.672H128.784V69H132.784ZM130.784 31.672H120.896V35.672H130.784V31.672ZM122.896 33.672V23.88H118.896V33.672H122.896ZM120.896 25.88H130.784V21.88H120.896V25.88ZM132.784 23.88V21.288H128.784V23.88H132.784ZM132.784 21.288C132.784 17.8082 133.275 15.0941 134.156 13.0578L130.484 11.4702C129.317 14.1699 128.784 17.4718 128.784 21.288H132.784ZM134.146 13.0807C135.124 10.8947 136.379 9.25286 137.876 8.07663L135.404 4.93136C133.317 6.57114 131.692 8.76931 130.494 11.4473L134.146 13.0807ZM137.909 8.04945C139.467 6.77017 141.245 5.87819 143.269 5.37228L142.299 1.49171C139.715 2.1378 137.397 3.29383 135.371 4.95855L137.909 8.04945ZM143.319 5.35903C145.446 4.76828 147.634 4.472 149.888 4.472V0.471998C147.278 0.471998 144.73 0.815717 142.249 1.50496L143.319 5.35903ZM149.888 4.472C152.264 4.472 154.711 4.68521 157.231 5.11547L157.905 1.17252C155.177 0.706788 152.504 0.471998 149.888 0.471998V4.472ZM157.231 5.11547C159.694 5.53591 161.878 6.22005 163.799 7.15162L165.545 3.55237C163.242 2.43594 160.69 1.64808 157.905 1.17252L157.231 5.11547ZM162.715 4.94096L160.699 14.541L164.613 15.363L166.629 5.76303L162.715 4.94096ZM163.313 13.063C161.748 12.5185 159.815 11.9877 157.534 11.4663L156.642 15.3657C158.841 15.8682 160.62 16.3615 161.999 16.841L163.313 13.063ZM157.6 11.4826C155.279 10.8682 153.026 10.552 150.848 10.552V14.552C152.638 14.552 154.545 14.8118 156.576 15.3494L157.6 11.4826ZM150.848 10.552C149.642 10.552 148.462 10.6585 147.311 10.8743L148.049 14.8057C148.946 14.6375 149.878 14.552 150.848 14.552V10.552ZM147.288 10.8788C145.994 11.1376 144.826 11.7029 143.808 12.5516L146.368 15.6244C146.886 15.1931 147.446 14.9264 148.072 14.8012L147.288 10.8788ZM143.743 12.6081C142.73 13.5283 142.004 14.7668 141.483 16.1806L145.237 17.5634C145.612 16.5452 146.038 15.9277 146.433 15.5679L143.743 12.6081ZM141.496 16.1471C140.923 17.6218 140.688 19.4342 140.688 21.48H144.688C144.688 19.6858 144.902 18.4262 145.224 17.5969L141.496 16.1471ZM140.688 21.48V23.88H144.688V21.48H140.688ZM142.688 25.88H161.216V21.88H142.688V25.88ZM159.216 23.88V33.672H163.216V23.88H159.216ZM161.216 31.672H142.688V35.672H161.216V31.672ZM140.688 33.672V69H144.688V33.672H140.688ZM142.688 67H130.784V71H142.688V67ZM195.776 16.392L194.427 14.915V14.915L195.776 16.392ZM185.216 16.392L183.835 17.8387L183.851 17.854L183.867 17.869L185.216 16.392ZM185.216 5.352L183.867 3.87502L183.851 3.88997L183.835 3.90529L185.216 5.352ZM195.776 5.352L197.125 3.87503V3.87502L195.776 5.352ZM215.552 67.08L216.408 68.8875L217.766 68.2442L217.526 66.7609L215.552 67.08ZM208.64 69.384L208.292 67.4144L208.259 67.4204L208.225 67.4275L208.64 69.384ZM195.008 68.712L194.206 70.5443L194.217 70.5488L194.227 70.5532L195.008 68.712ZM190.016 64.872L188.38 66.023L188.405 66.0577L188.431 66.0914L190.016 64.872ZM187.424 58.632L185.467 59.044L187.424 58.632ZM186.656 33.672H188.656V31.672H186.656V33.672ZM174.176 33.672H172.176V35.672H174.176V33.672ZM174.176 23.88V21.88H172.176V23.88H174.176ZM198.464 23.88H200.464V21.88H198.464V23.88ZM199.904 57.864L198.277 59.0265L198.308 59.0708L198.342 59.1134L199.904 57.864ZM208.832 59.4L209.161 61.3728L209.201 61.3662L209.24 61.358L208.832 59.4ZM214.016 57.576L215.99 57.2569L215.568 54.6446L213.17 55.7636L214.016 57.576ZM195.984 10.92C195.984 12.7583 195.418 14.0103 194.427 14.915L197.125 17.869C199.078 16.0857 199.984 13.6897 199.984 10.92H195.984ZM194.427 14.915C193.335 15.9125 192.06 16.408 190.496 16.408V20.408C193.028 20.408 195.273 19.5595 197.125 17.869L194.427 14.915ZM190.496 16.408C188.932 16.408 187.657 15.9125 186.565 14.915L183.867 17.869C185.719 19.5595 187.964 20.408 190.496 20.408V16.408ZM186.597 14.9453C185.657 14.0477 185.104 12.7861 185.104 10.92H181.104C181.104 13.6619 181.959 16.0483 183.835 17.8387L186.597 14.9453ZM185.104 10.92C185.104 8.9715 185.668 7.68575 186.597 6.79871L183.835 3.90529C181.948 5.70624 181.104 8.1325 181.104 10.92H185.104ZM186.565 6.82897C187.657 5.83151 188.932 5.336 190.496 5.336V1.336C187.964 1.336 185.719 2.18449 183.867 3.87502L186.565 6.82897ZM190.496 5.336C192.06 5.336 193.335 5.83151 194.427 6.82897L197.125 3.87502C195.273 2.18449 193.028 1.336 190.496 1.336V5.336ZM194.427 6.82897C195.406 7.72281 195.984 8.99887 195.984 10.92H199.984C199.984 8.10513 199.09 5.66919 197.125 3.87503L194.427 6.82897ZM214.696 65.2725C212.392 66.364 210.259 67.0674 208.292 67.4144L208.988 71.3536C211.373 70.9326 213.848 70.1 216.408 68.8875L214.696 65.2725ZM208.225 67.4275C206.223 67.8523 204.412 68.056 202.784 68.056V72.056C204.74 72.056 206.833 71.8117 209.055 71.3405L208.225 67.4275ZM202.784 68.056C199.894 68.056 197.586 67.633 195.789 66.8708L194.227 70.5532C196.654 71.583 199.53 72.056 202.784 72.056V68.056ZM195.81 66.8797C194.05 66.1097 192.663 65.0322 191.601 63.6526L188.431 66.0914C189.929 68.0398 191.87 69.5223 194.206 70.5443L195.81 66.8797ZM191.652 63.721C190.617 62.2505 189.847 60.4326 189.381 58.22L185.467 59.044C186.025 61.6954 186.983 64.0375 188.38 66.023L191.652 63.721ZM189.381 58.22C188.904 55.9533 188.656 53.3117 188.656 50.28H184.656C184.656 53.5203 184.92 56.4467 185.467 59.044L189.381 58.22ZM188.656 50.28V33.672H184.656V50.28H188.656ZM186.656 31.672H174.176V35.672H186.656V31.672ZM176.176 33.672V23.88H172.176V33.672H176.176ZM174.176 25.88H198.464V21.88H174.176V25.88ZM196.464 23.88V51.816H200.464V23.88H196.464ZM196.464 51.816C196.464 54.6817 196.965 57.1901 198.277 59.0265L201.531 56.7015C200.923 55.8499 200.464 54.3263 200.464 51.816H196.464ZM198.342 59.1134C199.883 61.0387 202.243 61.784 204.896 61.784V57.784C202.94 57.784 201.973 57.2493 201.466 56.6146L198.342 59.1134ZM204.896 61.784C206.13 61.784 207.558 61.6399 209.161 61.3728L208.503 57.4272C207.034 57.6721 205.838 57.784 204.896 57.784V61.784ZM209.24 61.358C210.969 60.9977 212.847 60.3285 214.862 59.3884L213.17 55.7636C211.345 56.6155 209.767 57.1623 208.424 57.442L209.24 61.358ZM212.042 57.8951L213.578 67.3991L217.526 66.7609L215.99 57.2569L212.042 57.8951ZM265.952 35.88L265.467 37.8203L267.516 38.3325L267.916 36.259L265.952 35.88ZM263.168 35.304L262.799 37.2697L262.81 37.2717L262.82 37.2736L263.168 35.304ZM260 34.824L259.652 36.7936L259.709 36.8036L259.766 36.8103L260 34.824ZM256.832 34.44L256.707 36.4361L256.832 34.44ZM249.344 34.632L249.503 36.6256L249.543 36.6225L249.582 36.6178L249.344 34.632ZM244.448 35.496L243.928 33.5648L242.448 33.9632V35.496H244.448ZM244.448 69V71H246.448V69H244.448ZM232.544 69H230.544V71H232.544V69ZM232.544 26.856L231.854 24.9787L230.544 25.46V26.856H232.544ZM242.144 24.072L241.73 22.1153L241.722 22.117L242.144 24.072ZM256.448 23.112L256.337 25.1089L256.343 25.1092L256.448 23.112ZM260.288 23.496L260.005 25.4759L260.052 25.4825L260.098 25.487L260.288 23.496ZM264.32 24.072L263.946 26.0367L263.998 26.0465L264.05 26.0537L264.32 24.072ZM268.064 24.936L270.028 25.315L270.354 23.6234L268.73 23.05L268.064 24.936ZM266.437 33.9397C265.61 33.7329 264.633 33.5317 263.516 33.3344L262.82 37.2736C263.879 37.4603 264.758 37.6431 265.467 37.8203L266.437 33.9397ZM263.537 33.3383C262.466 33.1375 261.365 32.9707 260.234 32.8377L259.766 36.8103C260.811 36.9333 261.822 37.0865 262.799 37.2697L263.537 33.3383ZM260.348 32.8544C259.191 32.6504 258.061 32.5129 256.957 32.4439L256.707 36.4361C257.651 36.4951 258.633 36.6136 259.652 36.7936L260.348 32.8544ZM256.957 32.4439C255.908 32.3784 255 32.344 254.24 32.344V36.344C254.888 36.344 255.708 36.3736 256.707 36.4361L256.957 32.4439ZM254.24 32.344C252.499 32.344 250.787 32.4445 249.106 32.6462L249.582 36.6178C251.101 36.4355 252.653 36.344 254.24 36.344V32.344ZM249.185 32.6384C247.454 32.7768 245.701 33.0873 243.928 33.5648L244.968 37.4272C246.523 37.0087 248.034 36.7432 249.503 36.6256L249.185 32.6384ZM242.448 35.496V69H246.448V35.496H242.448ZM244.448 67H232.544V71H244.448V67ZM234.544 69V26.856H230.544V69H234.544ZM233.234 28.7333C236.282 27.6134 239.393 26.7114 242.566 26.027L241.722 22.117C238.367 22.8406 235.078 23.7946 231.854 24.9787L233.234 28.7333ZM242.558 26.0287C245.717 25.3605 249.444 25.016 253.76 25.016V21.016C249.244 21.016 245.227 21.3755 241.73 22.1153L242.558 26.0287ZM253.76 25.016C254.345 25.016 255.198 25.0456 256.337 25.1089L256.559 21.1151C255.394 21.0504 254.455 21.016 253.76 21.016V25.016ZM256.343 25.1092C257.493 25.1698 258.714 25.2914 260.005 25.4759L260.571 21.5161C259.174 21.3166 257.835 21.1822 256.553 21.1148L256.343 25.1092ZM260.098 25.487C261.38 25.609 262.662 25.7922 263.946 26.0367L264.694 22.1073C263.29 21.8398 261.884 21.639 260.478 21.505L260.098 25.487ZM264.05 26.0537C265.353 26.2313 266.464 26.4922 267.398 26.822L268.73 23.05C267.488 22.6118 266.103 22.2967 264.59 22.0903L264.05 26.0537ZM266.1 24.557L263.988 35.501L267.916 36.259L270.028 25.315L266.1 24.557ZM282.08 36.36L283.934 37.1096L282.08 36.36ZM286.88 28.872L288.294 30.2862L288.305 30.275L288.316 30.2636L286.88 28.872ZM293.696 24.264L292.953 22.407L293.696 24.264ZM316.736 28.68L315.228 29.9936L315.233 29.9996L315.238 30.0057L316.736 28.68ZM321.824 48.264L319.83 48.1106L319.824 48.1872V48.264H321.824ZM321.728 50.28V52.28H323.494L323.713 50.5281L321.728 50.28ZM292.448 50.28V48.28H290.448V50.28H292.448ZM296.096 57.288L294.938 58.9184L294.952 58.9286L294.967 58.9386L296.096 57.288ZM312.224 59.016L311.766 57.0691L311.753 57.0723L312.224 59.016ZM317.696 57.48L319.67 57.1604L319.289 54.8082L317.039 55.591L317.696 57.48ZM319.328 67.56L319.978 69.4514L321.572 68.9036L321.302 67.2404L319.328 67.56ZM312.8 69.288L312.418 67.3248L312.392 67.3298L312.366 67.3356L312.8 69.288ZM294.656 68.616L294.011 70.5093L294.035 70.5174L294.059 70.525L294.656 68.616ZM286.88 64.2L285.511 65.6577L285.533 65.679L285.557 65.6997L286.88 64.2ZM281.984 56.904L283.841 56.1612L281.984 56.904ZM310.496 42.12V44.12H312.496V42.12H310.496ZM310.016 38.664L308.089 39.1993L308.093 39.2138L308.097 39.2283L310.016 38.664ZM305.792 33.48L304.856 35.2476L304.898 35.2696L304.94 35.2896L305.792 33.48ZM297.728 33.384L296.916 31.5564L296.896 31.5652L296.876 31.5744L297.728 33.384ZM294.944 35.496L293.425 34.1944L293.398 34.2268L293.371 34.2604L294.944 35.496ZM293.216 38.568L291.352 37.8431L291.334 37.8889L291.319 37.9355L293.216 38.568ZM292.448 42.12L290.459 41.9106L290.226 44.12H292.448V42.12ZM282.256 46.824C282.256 43.0573 282.833 39.8327 283.934 37.1096L280.226 35.6104C278.895 38.9033 278.256 42.6547 278.256 46.824H282.256ZM283.934 37.1096C285.065 34.3119 286.527 32.0531 288.294 30.2862L285.466 27.4578C283.265 29.6589 281.527 32.3921 280.226 35.6104L283.934 37.1096ZM288.316 30.2636C290.111 28.4107 292.149 27.0368 294.439 26.121L292.953 22.407C290.123 23.5392 287.617 25.2373 285.444 27.4804L288.316 30.2636ZM294.439 26.121C296.769 25.189 299.141 24.728 301.568 24.728V20.728C298.619 20.728 295.743 21.291 292.953 22.407L294.439 26.121ZM301.568 24.728C307.811 24.728 312.248 26.5722 315.228 29.9936L318.244 27.3664C314.312 22.8517 308.637 20.728 301.568 20.728V24.728ZM315.238 30.0057C318.252 33.4096 319.92 38.5849 319.92 45.864H323.92C323.92 38.0391 322.132 31.7584 318.234 27.3543L315.238 30.0057ZM319.92 45.864C319.92 46.5766 319.89 47.3253 319.83 48.1106L323.818 48.4174C323.886 47.5387 323.92 46.6874 323.92 45.864H319.92ZM319.824 48.264C319.824 49.0566 319.793 49.6364 319.743 50.0319L323.713 50.5281C323.791 49.8996 323.824 49.1354 323.824 48.264H319.824ZM321.728 48.28H292.448V52.28H321.728V48.28ZM290.448 50.28C290.448 53.8819 291.986 56.8212 294.938 58.9184L297.254 55.6576C295.342 54.2988 294.448 52.5661 294.448 50.28H290.448ZM294.967 58.9386C297.819 60.8901 301.382 61.784 305.504 61.784V57.784C301.946 57.784 299.237 57.0139 297.225 55.6374L294.967 58.9386ZM305.504 61.784C308.017 61.784 310.416 61.5123 312.695 60.9597L311.753 57.0723C309.808 57.5437 307.727 57.784 305.504 57.784V61.784ZM312.682 60.9628C314.899 60.4412 316.794 59.9111 318.353 59.369L317.039 55.591C315.654 56.0729 313.901 56.5668 311.766 57.0692L312.682 60.9628ZM315.722 57.7996L317.354 67.8796L321.302 67.2404L319.67 57.1604L315.722 57.7996ZM318.678 65.6686C316.724 66.3401 314.639 66.893 312.418 67.3248L313.182 71.2512C315.569 70.787 317.836 70.1879 319.978 69.4514L318.678 65.6686ZM312.366 67.3356C310.232 67.81 307.789 68.056 305.024 68.056V72.056C308.019 72.056 310.76 71.7901 313.234 71.2404L312.366 67.3356ZM305.024 68.056C301.348 68.056 298.098 67.5964 295.253 66.707L294.059 70.525C297.358 71.5556 301.02 72.056 305.024 72.056V68.056ZM295.301 66.7227C292.519 65.7757 290.163 64.4296 288.203 62.7003L285.557 65.6997C287.949 67.8103 290.777 69.4083 294.011 70.5093L295.301 66.7227ZM288.249 62.7423C286.365 60.972 284.892 58.7896 283.841 56.1612L280.127 57.6468C281.38 60.7784 283.171 63.46 285.511 65.6577L288.249 62.7423ZM283.841 56.1612C282.803 53.5663 282.256 50.4681 282.256 46.824H278.256C278.256 50.8599 278.861 54.4817 280.127 57.6468L283.841 56.1612ZM312.496 42.12C312.496 40.7267 312.312 39.3837 311.935 38.0997L308.097 39.2283C308.36 40.1203 308.496 41.0813 308.496 42.12H312.496ZM311.943 38.1287C311.556 36.7349 310.928 35.4703 310.053 34.3564L306.907 36.8276C307.44 37.5057 307.836 38.2891 308.089 39.1993L311.943 38.1287ZM310.053 34.3564C309.146 33.202 307.997 32.3074 306.644 31.6704L304.94 35.2896C305.763 35.6766 306.406 36.19 306.907 36.8276L310.053 34.3564ZM306.728 31.7124C305.278 30.9449 303.592 30.616 301.76 30.616V34.616C303.128 34.616 304.13 34.8631 304.856 35.2476L306.728 31.7124ZM301.76 30.616C300.004 30.616 298.373 30.9087 296.916 31.5564L298.54 35.2116C299.387 34.8353 300.444 34.616 301.76 34.616V30.616ZM296.876 31.5744C295.538 32.2043 294.381 33.0797 293.425 34.1944L296.463 36.7976C297.043 36.1203 297.742 35.5877 298.58 35.1936L296.876 31.5744ZM293.371 34.2604C292.536 35.3239 291.865 36.5229 291.352 37.8431L295.08 39.2929C295.463 38.3091 295.944 37.4601 296.517 36.7316L293.371 34.2604ZM291.319 37.9355C290.889 39.2258 290.602 40.5517 290.459 41.9106L294.437 42.3294C294.55 41.2563 294.775 40.2142 295.113 39.2005L291.319 37.9355ZM292.448 44.12H310.496V40.12H292.448V44.12ZM375.392 67.08L376.501 68.7441L377.572 68.0306L377.366 66.7609L375.392 67.08ZM374.048 67.752L373.22 65.9313L373.187 65.9466L373.154 65.9631L374.048 67.752ZM371.456 68.808L372.02 70.7267L372.071 70.7117L372.122 70.694L371.456 68.808ZM367.424 69.672L367.108 67.6971L367.095 67.6992L367.424 69.672ZM350.24 65.256L348.651 66.4709L348.657 66.4785L348.663 66.4861L350.24 65.256ZM346.496 12.744H348.496V10.744H346.496V12.744ZM334.016 12.744H332.016V14.744H334.016V12.744ZM334.016 2.952V0.951998H332.016V2.952H334.016ZM358.304 2.952H360.304V0.951998H358.304V2.952ZM360.128 58.152L361.462 56.6615L360.128 58.152ZM370.688 58.824L369.945 56.967L370.688 58.824ZM373.856 57.576L375.83 57.2569L375.441 54.8457L373.154 55.7033L373.856 57.576ZM374.283 65.4159C374.297 65.4061 374.232 65.4477 374.018 65.5551C373.824 65.6519 373.561 65.7766 373.22 65.9313L374.876 69.5727C375.543 69.2696 376.149 68.9791 376.501 68.7441L374.283 65.4159ZM373.154 65.9631C372.619 66.2307 371.841 66.5511 370.79 66.922L372.122 70.694C373.247 70.2969 374.197 69.9133 374.942 69.5409L373.154 65.9631ZM370.892 66.8893C369.911 67.1776 368.656 67.4494 367.108 67.6971L367.74 71.6469C369.392 71.3826 370.824 71.0784 372.02 70.7267L370.892 66.8893ZM367.095 67.6992C365.693 67.933 364.046 68.056 362.144 68.056V72.056C364.21 72.056 366.083 71.923 367.753 71.6448L367.095 67.6992ZM362.144 68.056C357.095 68.056 353.814 66.5863 351.817 64.0259L348.663 66.4861C351.658 70.3257 356.313 72.056 362.144 72.056V68.056ZM351.829 64.0411C349.705 61.264 348.496 57.03 348.496 51.048H344.496C344.496 57.482 345.783 62.72 348.651 66.4709L351.829 64.0411ZM348.496 51.048V12.744H344.496V51.048H348.496ZM346.496 10.744H334.016V14.744H346.496V10.744ZM336.016 12.744V2.952H332.016V12.744H336.016ZM334.016 4.952H358.304V0.951998H334.016V4.952ZM356.304 2.952V51.912H360.304V2.952H356.304ZM356.304 51.912C356.304 55.0964 356.904 57.9511 358.794 59.6425L361.462 56.6615C360.92 56.1769 360.304 54.8716 360.304 51.912H356.304ZM358.794 59.6425C360.428 61.1039 362.46 61.784 364.736 61.784V57.784C363.3 57.784 362.26 57.3761 361.462 56.6615L358.794 59.6425ZM364.736 61.784C367.27 61.784 369.524 61.4436 371.431 60.681L369.945 56.967C368.652 57.4844 366.938 57.784 364.736 57.784V61.784ZM371.431 60.681C373.035 60.0393 374.07 59.6317 374.558 59.4487L373.154 55.7033C372.618 55.9043 371.541 56.3287 369.945 56.967L371.431 60.681ZM371.882 57.8951L373.418 67.3991L377.366 66.7609L375.83 57.2569L371.882 57.8951ZM411.68 60.552V62.552H411.733L411.785 62.5492L411.68 60.552ZM414.848 60.264L415.131 62.2439L416.848 61.9986V60.264H414.848ZM414.848 49.896H416.848V48.2017L415.177 47.9232L414.848 49.896ZM412.064 49.608L411.83 51.5943L411.888 51.6011L411.947 51.6045L412.064 49.608ZM405.536 49.704L405.757 51.6918L405.811 51.6857L405.865 51.6768L405.536 49.704ZM402.464 50.472L401.676 48.6337L401.651 48.6446L401.626 48.6561L402.464 50.472ZM400.448 52.104L398.831 50.9277L400.448 52.104ZM401.984 59.304L400.976 61.0316L401.004 61.0475L401.031 61.0626L401.984 59.304ZM416.096 24.072L415.405 25.9487L415.434 25.9595L415.464 25.9694L416.096 24.072ZM422.048 27.72L420.576 29.0741L420.59 29.0891L420.604 29.1038L422.048 27.72ZM425.216 33.48L423.289 34.0153L423.291 34.0224L423.293 34.0294L425.216 33.48ZM426.176 67.944L426.61 69.8964L428.176 69.5483V67.944H426.176ZM418.496 69.288L418.197 67.3104L418.496 69.288ZM399.2 69.288L398.766 71.2404L398.777 71.2428L399.2 69.288ZM393.248 66.792L392.068 68.4068L392.089 68.4219L392.11 68.4364L393.248 66.792ZM389.408 62.184L387.596 63.0298L387.601 63.0417L387.607 63.0535L389.408 62.184ZM389.6 48.552L387.864 47.5597L387.863 47.5597L389.6 48.552ZM393.728 44.232L392.662 42.5395L393.728 44.232ZM399.68 41.928L400.072 43.8892L400.099 43.8838L400.126 43.8777L399.68 41.928ZM414.848 41.928L414.425 43.8828L416.848 44.4066V41.928H414.848ZM412.736 34.92L411.262 36.2715L411.276 36.2871L411.291 36.3024L412.736 34.92ZM398.912 33.096L398.612 31.1185L398.603 31.12L398.912 33.096ZM393.92 34.248L391.949 34.5865L392.349 36.9168L394.581 36.1357L393.92 34.248ZM392.288 24.744L391.631 22.855L390.03 23.4119L390.317 25.0825L392.288 24.744ZM398.528 23.4L398.811 25.3799L398.834 25.3766L398.857 25.3728L398.528 23.4ZM407.936 62.552C407.939 62.552 407.941 62.552 407.944 62.552C407.946 62.552 407.948 62.552 407.951 62.552C407.953 62.552 407.956 62.552 407.958 62.552C407.961 62.552 407.964 62.552 407.966 62.552C407.969 62.552 407.971 62.552 407.973 62.552C407.976 62.552 407.978 62.552 407.981 62.552C407.983 62.552 407.986 62.552 407.988 62.552C407.991 62.552 407.993 62.552 407.996 62.552C407.998 62.552 408.001 62.552 408.003 62.552C408.006 62.552 408.008 62.552 408.011 62.552C408.013 62.552 408.016 62.552 408.018 62.552C408.021 62.552 408.023 62.552 408.026 62.552C408.028 62.552 408.031 62.552 408.033 62.552C408.036 62.552 408.038 62.552 408.041 62.552C408.043 62.552 408.046 62.552 408.048 62.552C408.051 62.552 408.053 62.552 408.056 62.552C408.058 62.552 408.061 62.552 408.063 62.552C408.066 62.552 408.068 62.552 408.071 62.552C408.073 62.552 408.076 62.552 408.078 62.552C408.081 62.552 408.083 62.552 408.086 62.552C408.088 62.552 408.091 62.552 408.093 62.552C408.096 62.552 408.098 62.552 408.101 62.552C408.103 62.552 408.106 62.552 408.108 62.552C408.111 62.552 408.113 62.552 408.116 62.552C408.118 62.552 408.121 62.552 408.123 62.552C408.126 62.552 408.128 62.552 408.131 62.552C408.133 62.552 408.136 62.552 408.138 62.552C408.141 62.552 408.143 62.552 408.146 62.552C408.148 62.552 408.151 62.552 408.153 62.552C408.156 62.552 408.158 62.552 408.161 62.552C408.163 62.552 408.166 62.552 408.168 62.552C408.171 62.552 408.173 62.552 408.176 62.552C408.178 62.552 408.181 62.552 408.183 62.552C408.186 62.552 408.188 62.552 408.191 62.552C408.193 62.552 408.196 62.552 408.198 62.552C408.201 62.552 408.203 62.552 408.206 62.552C408.208 62.552 408.211 62.552 408.213 62.552C408.215 62.552 408.218 62.552 408.22 62.552C408.223 62.552 408.225 62.552 408.228 62.552C408.23 62.552 408.233 62.552 408.235 62.552C408.238 62.552 408.24 62.552 408.243 62.552C408.245 62.552 408.248 62.552 408.25 62.552C408.253 62.552 408.255 62.552 408.258 62.552C408.26 62.552 408.263 62.552 408.265 62.552C408.268 62.552 408.27 62.552 408.273 62.552C408.275 62.552 408.278 62.552 408.28 62.552C408.283 62.552 408.285 62.552 408.288 62.552C408.29 62.552 408.293 62.552 408.295 62.552C408.298 62.552 408.3 62.552 408.303 62.552C408.305 62.552 408.308 62.552 408.31 62.552C408.313 62.552 408.315 62.552 408.318 62.552C408.32 62.552 408.323 62.552 408.325 62.552C408.327 62.552 408.33 62.552 408.332 62.552C408.335 62.552 408.337 62.552 408.34 62.552C408.342 62.552 408.345 62.552 408.347 62.552C408.35 62.552 408.352 62.552 408.355 62.552C408.357 62.552 408.36 62.552 408.362 62.552C408.365 62.552 408.367 62.552 408.37 62.552C408.372 62.552 408.375 62.552 408.377 62.552C408.38 62.552 408.382 62.552 408.385 62.552C408.387 62.552 408.39 62.552 408.392 62.552C408.395 62.552 408.397 62.552 408.4 62.552C408.402 62.552 408.405 62.552 408.407 62.552C408.41 62.552 408.412 62.552 408.414 62.552C408.417 62.552 408.419 62.552 408.422 62.552C408.424 62.552 408.427 62.552 408.429 62.552C408.432 62.552 408.434 62.552 408.437 62.552C408.439 62.552 408.442 62.552 408.444 62.552C408.447 62.552 408.449 62.552 408.452 62.552C408.454 62.552 408.457 62.552 408.459 62.552C408.462 62.552 408.464 62.552 408.467 62.552C408.469 62.552 408.472 62.552 408.474 62.552C408.477 62.552 408.479 62.552 408.482 62.552C408.484 62.552 408.487 62.552 408.489 62.552C408.491 62.552 408.494 62.552 408.496 62.552C408.499 62.552 408.501 62.552 408.504 62.552C408.506 62.552 408.509 62.552 408.511 62.552C408.514 62.552 408.516 62.552 408.519 62.552C408.521 62.552 408.524 62.552 408.526 62.552C408.529 62.552 408.531 62.552 408.534 62.552C408.536 62.552 408.539 62.552 408.541 62.552C408.544 62.552 408.546 62.552 408.549 62.552C408.551 62.552 408.553 62.552 408.556 62.552C408.558 62.552 408.561 62.552 408.563 62.552C408.566 62.552 408.568 62.552 408.571 62.552C408.573 62.552 408.576 62.552 408.578 62.552C408.581 62.552 408.583 62.552 408.586 62.552C408.588 62.552 408.591 62.552 408.593 62.552C408.596 62.552 408.598 62.552 408.601 62.552C408.603 62.552 408.606 62.552 408.608 62.552C408.611 62.552 408.613 62.552 408.615 62.552C408.618 62.552 408.62 62.552 408.623 62.552C408.625 62.552 408.628 62.552 408.63 62.552C408.633 62.552 408.635 62.552 408.638 62.552C408.64 62.552 408.643 62.552 408.645 62.552C408.648 62.552 408.65 62.552 408.653 62.552C408.655 62.552 408.658 62.552 408.66 62.552C408.663 62.552 408.665 62.552 408.667 62.552C408.67 62.552 408.672 62.552 408.675 62.552C408.677 62.552 408.68 62.552 408.682 62.552C408.685 62.552 408.687 62.552 408.69 62.552C408.692 62.552 408.695 62.552 408.697 62.552C408.7 62.552 408.702 62.552 408.705 62.552C408.707 62.552 408.71 62.552 408.712 62.552C408.715 62.552 408.717 62.552 408.719 62.552C408.722 62.552 408.724 62.552 408.727 62.552C408.729 62.552 408.732 62.552 408.734 62.552C408.737 62.552 408.739 62.552 408.742 62.552C408.744 62.552 408.747 62.552 408.749 62.552C408.752 62.552 408.754 62.552 408.757 62.552C408.759 62.552 408.762 62.552 408.764 62.552C408.766 62.552 408.769 62.552 408.771 62.552C408.774 62.552 408.776 62.552 408.779 62.552C408.781 62.552 408.784 62.552 408.786 62.552C408.789 62.552 408.791 62.552 408.794 62.552C408.796 62.552 408.799 62.552 408.801 62.552C408.804 62.552 408.806 62.552 408.808 62.552C408.811 62.552 408.813 62.552 408.816 62.552C408.818 62.552 408.821 62.552 408.823 62.552C408.826 62.552 408.828 62.552 408.831 62.552C408.833 62.552 408.836 62.552 408.838 62.552C408.841 62.552 408.843 62.552 408.846 62.552C408.848 62.552 408.85 62.552 408.853 62.552C408.855 62.552 408.858 62.552 408.86 62.552C408.863 62.552 408.865 62.552 408.868 62.552C408.87 62.552 408.873 62.552 408.875 62.552C408.878 62.552 408.88 62.552 408.883 62.552C408.885 62.552 408.888 62.552 408.89 62.552C408.892 62.552 408.895 62.552 408.897 62.552C408.9 62.552 408.902 62.552 408.905 62.552C408.907 62.552 408.91 62.552 408.912 62.552C408.915 62.552 408.917 62.552 408.92 62.552C408.922 62.552 408.925 62.552 408.927 62.552C408.929 62.552 408.932 62.552 408.934 62.552C408.937 62.552 408.939 62.552 408.942 62.552C408.944 62.552 408.947 62.552 408.949 62.552C408.952 62.552 408.954 62.552 408.957 62.552C408.959 62.552 408.962 62.552 408.964 62.552C408.966 62.552 408.969 62.552 408.971 62.552C408.974 62.552 408.976 62.552 408.979 62.552C408.981 62.552 408.984 62.552 408.986 62.552C408.989 62.552 408.991 62.552 408.994 62.552C408.996 62.552 408.999 62.552 409.001 62.552C409.003 62.552 409.006 62.552 409.008 62.552C409.011 62.552 409.013 62.552 409.016 62.552C409.018 62.552 409.021 62.552 409.023 62.552C409.026 62.552 409.028 62.552 409.031 62.552C409.033 62.552 409.036 62.552 409.038 62.552C409.04 62.552 409.043 62.552 409.045 62.552C409.048 62.552 409.05 62.552 409.053 62.552C409.055 62.552 409.058 62.552 409.06 62.552C409.063 62.552 409.065 62.552 409.068 62.552C409.07 62.552 409.072 62.552 409.075 62.552C409.077 62.552 409.08 62.552 409.082 62.552C409.085 62.552 409.087 62.552 409.09 62.552C409.092 62.552 409.095 62.552 409.097 62.552C409.1 62.552 409.102 62.552 409.104 62.552C409.107 62.552 409.109 62.552 409.112 62.552C409.114 62.552 409.117 62.552 409.119 62.552C409.122 62.552 409.124 62.552 409.127 62.552C409.129 62.552 409.132 62.552 409.134 62.552C409.136 62.552 409.139 62.552 409.141 62.552C409.144 62.552 409.146 62.552 409.149 62.552C409.151 62.552 409.154 62.552 409.156 62.552C409.159 62.552 409.161 62.552 409.164 62.552C409.166 62.552 409.168 62.552 409.171 62.552C409.173 62.552 409.176 62.552 409.178 62.552C409.181 62.552 409.183 62.552 409.186 62.552C409.188 62.552 409.191 62.552 409.193 62.552C409.195 62.552 409.198 62.552 409.2 62.552C409.203 62.552 409.205 62.552 409.208 62.552C409.21 62.552 409.213 62.552 409.215 62.552C409.218 62.552 409.22 62.552 409.223 62.552C409.225 62.552 409.227 62.552 409.23 62.552C409.232 62.552 409.235 62.552 409.237 62.552C409.24 62.552 409.242 62.552 409.245 62.552C409.247 62.552 409.25 62.552 409.252 62.552C409.254 62.552 409.257 62.552 409.259 62.552C409.262 62.552 409.264 62.552 409.267 62.552C409.269 62.552 409.272 62.552 409.274 62.552C409.277 62.552 409.279 62.552 409.281 62.552C409.284 62.552 409.286 62.552 409.289 62.552C409.291 62.552 409.294 62.552 409.296 62.552C409.299 62.552 409.301 62.552 409.304 62.552C409.306 62.552 409.309 62.552 409.311 62.552C409.313 62.552 409.316 62.552 409.318 62.552C409.321 62.552 409.323 62.552 409.326 62.552C409.328 62.552 409.331 62.552 409.333 62.552C409.336 62.552 409.338 62.552 409.34 62.552C409.343 62.552 409.345 62.552 409.348 62.552C409.35 62.552 409.353 62.552 409.355 62.552C409.358 62.552 409.36 62.552 409.362 62.552C409.365 62.552 409.367 62.552 409.37 62.552C409.372 62.552 409.375 62.552 409.377 62.552C409.38 62.552 409.382 62.552 409.385 62.552C409.387 62.552 409.389 62.552 409.392 62.552C409.394 62.552 409.397 62.552 409.399 62.552C409.402 62.552 409.404 62.552 409.407 62.552C409.409 62.552 409.412 62.552 409.414 62.552C409.416 62.552 409.419 62.552 409.421 62.552C409.424 62.552 409.426 62.552 409.429 62.552C409.431 62.552 409.434 62.552 409.436 62.552C409.439 62.552 409.441 62.552 409.443 62.552C409.446 62.552 409.448 62.552 409.451 62.552C409.453 62.552 409.456 62.552 409.458 62.552C409.461 62.552 409.463 62.552 409.465 62.552C409.468 62.552 409.47 62.552 409.473 62.552C409.475 62.552 409.478 62.552 409.48 62.552C409.483 62.552 409.485 62.552 409.487 62.552C409.49 62.552 409.492 62.552 409.495 62.552C409.497 62.552 409.5 62.552 409.502 62.552C409.505 62.552 409.507 62.552 409.51 62.552C409.512 62.552 409.514 62.552 409.517 62.552C409.519 62.552 409.522 62.552 409.524 62.552C409.527 62.552 409.529 62.552 409.532 62.552C409.534 62.552 409.536 62.552 409.539 62.552C409.541 62.552 409.544 62.552 409.546 62.552C409.549 62.552 409.551 62.552 409.554 62.552C409.556 62.552 409.559 62.552 409.561 62.552C409.563 62.552 409.566 62.552 409.568 62.552C409.571 62.552 409.573 62.552 409.576 62.552C409.578 62.552 409.581 62.552 409.583 62.552C409.585 62.552 409.588 62.552 409.59 62.552C409.593 62.552 409.595 62.552 409.598 62.552C409.6 62.552 409.603 62.552 409.605 62.552C409.607 62.552 409.61 62.552 409.612 62.552C409.615 62.552 409.617 62.552 409.62 62.552C409.622 62.552 409.625 62.552 409.627 62.552C409.629 62.552 409.632 62.552 409.634 62.552C409.637 62.552 409.639 62.552 409.642 62.552C409.644 62.552 409.647 62.552 409.649 62.552C409.651 62.552 409.654 62.552 409.656 62.552C409.659 62.552 409.661 62.552 409.664 62.552C409.666 62.552 409.669 62.552 409.671 62.552C409.673 62.552 409.676 62.552 409.678 62.552C409.681 62.552 409.683 62.552 409.686 62.552C409.688 62.552 409.69 62.552 409.693 62.552C409.695 62.552 409.698 62.552 409.7 62.552C409.703 62.552 409.705 62.552 409.708 62.552C409.71 62.552 409.712 62.552 409.715 62.552C409.717 62.552 409.72 62.552 409.722 62.552C409.725 62.552 409.727 62.552 409.73 62.552C409.732 62.552 409.734 62.552 409.737 62.552C409.739 62.552 409.742 62.552 409.744 62.552C409.747 62.552 409.749 62.552 409.752 62.552C409.754 62.552 409.756 62.552 409.759 62.552C409.761 62.552 409.764 62.552 409.766 62.552C409.769 62.552 409.771 62.552 409.773 62.552C409.776 62.552 409.778 62.552 409.781 62.552C409.783 62.552 409.786 62.552 409.788 62.552C409.791 62.552 409.793 62.552 409.795 62.552C409.798 62.552 409.8 62.552 409.803 62.552C409.805 62.552 409.808 62.552 409.81 62.552C409.812 62.552 409.815 62.552 409.817 62.552C409.82 62.552 409.822 62.552 409.825 62.552C409.827 62.552 409.83 62.552 409.832 62.552C409.834 62.552 409.837 62.552 409.839 62.552C409.842 62.552 409.844 62.552 409.847 62.552C409.849 62.552 409.852 62.552 409.854 62.552C409.856 62.552 409.859 62.552 409.861 62.552C409.864 62.552 409.866 62.552 409.869 62.552C409.871 62.552 409.873 62.552 409.876 62.552C409.878 62.552 409.881 62.552 409.883 62.552C409.886 62.552 409.888 62.552 409.89 62.552C409.893 62.552 409.895 62.552 409.898 62.552C409.9 62.552 409.903 62.552 409.905 62.552C409.908 62.552 409.91 62.552 409.912 62.552C409.915 62.552 409.917 62.552 409.92 62.552C409.922 62.552 409.925 62.552 409.927 62.552C409.929 62.552 409.932 62.552 409.934 62.552C409.937 62.552 409.939 62.552 409.942 62.552C409.944 62.552 409.946 62.552 409.949 62.552C409.951 62.552 409.954 62.552 409.956 62.552C409.959 62.552 409.961 62.552 409.964 62.552C409.966 62.552 409.968 62.552 409.971 62.552C409.973 62.552 409.976 62.552 409.978 62.552C409.981 62.552 409.983 62.552 409.985 62.552C409.988 62.552 409.99 62.552 409.993 62.552C409.995 62.552 409.998 62.552 410 62.552C410.002 62.552 410.005 62.552 410.007 62.552C410.01 62.552 410.012 62.552 410.015 62.552C410.017 62.552 410.019 62.552 410.022 62.552C410.024 62.552 410.027 62.552 410.029 62.552C410.032 62.552 410.034 62.552 410.036 62.552C410.039 62.552 410.041 62.552 410.044 62.552C410.046 62.552 410.049 62.552 410.051 62.552C410.053 62.552 410.056 62.552 410.058 62.552C410.061 62.552 410.063 62.552 410.066 62.552C410.068 62.552 410.07 62.552 410.073 62.552C410.075 62.552 410.078 62.552 410.08 62.552C410.083 62.552 410.085 62.552 410.087 62.552C410.09 62.552 410.092 62.552 410.095 62.552C410.097 62.552 410.1 62.552 410.102 62.552C410.104 62.552 410.107 62.552 410.109 62.552C410.112 62.552 410.114 62.552 410.117 62.552C410.119 62.552 410.121 62.552 410.124 62.552C410.126 62.552 410.129 62.552 410.131 62.552C410.134 62.552 410.136 62.552 410.138 62.552C410.141 62.552 410.143 62.552 410.146 62.552C410.148 62.552 410.151 62.552 410.153 62.552C410.155 62.552 410.158 62.552 410.16 62.552C410.163 62.552 410.165 62.552 410.168 62.552C410.17 62.552 410.172 62.552 410.175 62.552C410.177 62.552 410.18 62.552 410.182 62.552C410.185 62.552 410.187 62.552 410.189 62.552C410.192 62.552 410.194 62.552 410.197 62.552C410.199 62.552 410.202 62.552 410.204 62.552C410.206 62.552 410.209 62.552 410.211 62.552C410.214 62.552 410.216 62.552 410.219 62.552C410.221 62.552 410.223 62.552 410.226 62.552C410.228 62.552 410.231 62.552 410.233 62.552C410.236 62.552 410.238 62.552 410.24 62.552C410.243 62.552 410.245 62.552 410.248 62.552C410.25 62.552 410.252 62.552 410.255 62.552C410.257 62.552 410.26 62.552 410.262 62.552C410.265 62.552 410.267 62.552 410.269 62.552C410.272 62.552 410.274 62.552 410.277 62.552C410.279 62.552 410.282 62.552 410.284 62.552C410.286 62.552 410.289 62.552 410.291 62.552C410.294 62.552 410.296 62.552 410.298 62.552C410.301 62.552 410.303 62.552 410.306 62.552C410.308 62.552 410.311 62.552 410.313 62.552C410.315 62.552 410.318 62.552 410.32 62.552C410.323 62.552 410.325 62.552 410.328 62.552C410.33 62.552 410.332 62.552 410.335 62.552C410.337 62.552 410.34 62.552 410.342 62.552C410.345 62.552 410.347 62.552 410.349 62.552C410.352 62.552 410.354 62.552 410.357 62.552C410.359 62.552 410.361 62.552 410.364 62.552C410.366 62.552 410.369 62.552 410.371 62.552C410.374 62.552 410.376 62.552 410.378 62.552C410.381 62.552 410.383 62.552 410.386 62.552C410.388 62.552 410.39 62.552 410.393 62.552C410.395 62.552 410.398 62.552 410.4 62.552C410.403 62.552 410.405 62.552 410.407 62.552C410.41 62.552 410.412 62.552 410.415 62.552C410.417 62.552 410.419 62.552 410.422 62.552C410.424 62.552 410.427 62.552 410.429 62.552C410.432 62.552 410.434 62.552 410.436 62.552C410.439 62.552 410.441 62.552 410.444 62.552C410.446 62.552 410.448 62.552 410.451 62.552C410.453 62.552 410.456 62.552 410.458 62.552C410.461 62.552 410.463 62.552 410.465 62.552C410.468 62.552 410.47 62.552 410.473 62.552C410.475 62.552 410.478 62.552 410.48 62.552C410.482 62.552 410.485 62.552 410.487 62.552C410.49 62.552 410.492 62.552 410.494 62.552C410.497 62.552 410.499 62.552 410.502 62.552C410.504 62.552 410.506 62.552 410.509 62.552C410.511 62.552 410.514 62.552 410.516 62.552C410.519 62.552 410.521 62.552 410.523 62.552C410.526 62.552 410.528 62.552 410.531 62.552C410.533 62.552 410.535 62.552 410.538 62.552C410.54 62.552 410.543 62.552 410.545 62.552C410.548 62.552 410.55 62.552 410.552 62.552C410.555 62.552 410.557 62.552 410.56 62.552C410.562 62.552 410.564 62.552 410.567 62.552C410.569 62.552 410.572 62.552 410.574 62.552C410.576 62.552 410.579 62.552 410.581 62.552C410.584 62.552 410.586 62.552 410.589 62.552C410.591 62.552 410.593 62.552 410.596 62.552C410.598 62.552 410.601 62.552 410.603 62.552C410.605 62.552 410.608 62.552 410.61 62.552C410.613 62.552 410.615 62.552 410.617 62.552C410.62 62.552 410.622 62.552 410.625 62.552C410.627 62.552 410.63 62.552 410.632 62.552C410.634 62.552 410.637 62.552 410.639 62.552C410.642 62.552 410.644 62.552 410.646 62.552C410.649 62.552 410.651 62.552 410.654 62.552C410.656 62.552 410.658 62.552 410.661 62.552C410.663 62.552 410.666 62.552 410.668 62.552C410.671 62.552 410.673 62.552 410.675 62.552C410.678 62.552 410.68 62.552 410.683 62.552C410.685 62.552 410.687 62.552 410.69 62.552C410.692 62.552 410.695 62.552 410.697 62.552C410.699 62.552 410.702 62.552 410.704 62.552C410.707 62.552 410.709 62.552 410.711 62.552C410.714 62.552 410.716 62.552 410.719 62.552C410.721 62.552 410.723 62.552 410.726 62.552C410.728 62.552 410.731 62.552 410.733 62.552C410.736 62.552 410.738 62.552 410.74 62.552C410.743 62.552 410.745 62.552 410.748 62.552C410.75 62.552 410.752 62.552 410.755 62.552C410.757 62.552 410.76 62.552 410.762 62.552C410.764 62.552 410.767 62.552 410.769 62.552C410.772 62.552 410.774 62.552 410.776 62.552C410.779 62.552 410.781 62.552 410.784 62.552C410.786 62.552 410.788 62.552 410.791 62.552C410.793 62.552 410.796 62.552 410.798 62.552C410.8 62.552 410.803 62.552 410.805 62.552C410.808 62.552 410.81 62.552 410.812 62.552C410.815 62.552 410.817 62.552 410.82 62.552C410.822 62.552 410.825 62.552 410.827 62.552C410.829 62.552 410.832 62.552 410.834 62.552C410.837 62.552 410.839 62.552 410.841 62.552C410.844 62.552 410.846 62.552 410.849 62.552C410.851 62.552 410.853 62.552 410.856 62.552C410.858 62.552 410.861 62.552 410.863 62.552C410.865 62.552 410.868 62.552 410.87 62.552C410.873 62.552 410.875 62.552 410.877 62.552C410.88 62.552 410.882 62.552 410.885 62.552C410.887 62.552 410.889 62.552 410.892 62.552C410.894 62.552 410.897 62.552 410.899 62.552C410.901 62.552 410.904 62.552 410.906 62.552C410.909 62.552 410.911 62.552 410.913 62.552C410.916 62.552 410.918 62.552 410.921 62.552C410.923 62.552 410.925 62.552 410.928 62.552C410.93 62.552 410.933 62.552 410.935 62.552C410.937 62.552 410.94 62.552 410.942 62.552C410.945 62.552 410.947 62.552 410.949 62.552C410.952 62.552 410.954 62.552 410.957 62.552C410.959 62.552 410.961 62.552 410.964 62.552C410.966 62.552 410.969 62.552 410.971 62.552C410.973 62.552 410.976 62.552 410.978 62.552C410.981 62.552 410.983 62.552 410.985 62.552C410.988 62.552 410.99 62.552 410.993 62.552C410.995 62.552 410.997 62.552 411 62.552C411.002 62.552 411.005 62.552 411.007 62.552C411.009 62.552 411.012 62.552 411.014 62.552C411.017 62.552 411.019 62.552 411.021 62.552C411.024 62.552 411.026 62.552 411.029 62.552C411.031 62.552 411.033 62.552 411.036 62.552C411.038 62.552 411.041 62.552 411.043 62.552C411.045 62.552 411.048 62.552 411.05 62.552C411.053 62.552 411.055 62.552 411.057 62.552C411.06 62.552 411.062 62.552 411.065 62.552C411.067 62.552 411.069 62.552 411.072 62.552C411.074 62.552 411.077 62.552 411.079 62.552C411.081 62.552 411.084 62.552 411.086 62.552C411.089 62.552 411.091 62.552 411.093 62.552C411.096 62.552 411.098 62.552 411.1 62.552C411.103 62.552 411.105 62.552 411.108 62.552C411.11 62.552 411.112 62.552 411.115 62.552C411.117 62.552 411.12 62.552 411.122 62.552C411.124 62.552 411.127 62.552 411.129 62.552C411.132 62.552 411.134 62.552 411.136 62.552C411.139 62.552 411.141 62.552 411.144 62.552C411.146 62.552 411.148 62.552 411.151 62.552C411.153 62.552 411.156 62.552 411.158 62.552C411.16 62.552 411.163 62.552 411.165 62.552C411.167 62.552 411.17 62.552 411.172 62.552C411.175 62.552 411.177 62.552 411.179 62.552C411.182 62.552 411.184 62.552 411.187 62.552C411.189 62.552 411.191 62.552 411.194 62.552C411.196 62.552 411.199 62.552 411.201 62.552C411.203 62.552 411.206 62.552 411.208 62.552C411.211 62.552 411.213 62.552 411.215 62.552C411.218 62.552 411.22 62.552 411.223 62.552C411.225 62.552 411.227 62.552 411.23 62.552C411.232 62.552 411.234 62.552 411.237 62.552C411.239 62.552 411.242 62.552 411.244 62.552C411.246 62.552 411.249 62.552 411.251 62.552C411.254 62.552 411.256 62.552 411.258 62.552C411.261 62.552 411.263 62.552 411.266 62.552C411.268 62.552 411.27 62.552 411.273 62.552C411.275 62.552 411.277 62.552 411.28 62.552C411.282 62.552 411.285 62.552 411.287 62.552C411.289 62.552 411.292 62.552 411.294 62.552C411.297 62.552 411.299 62.552 411.301 62.552C411.304 62.552 411.306 62.552 411.309 62.552C411.311 62.552 411.313 62.552 411.316 62.552C411.318 62.552 411.32 62.552 411.323 62.552C411.325 62.552 411.328 62.552 411.33 62.552C411.332 62.552 411.335 62.552 411.337 62.552C411.34 62.552 411.342 62.552 411.344 62.552C411.347 62.552 411.349 62.552 411.351 62.552C411.354 62.552 411.356 62.552 411.359 62.552C411.361 62.552 411.363 62.552 411.366 62.552C411.368 62.552 411.371 62.552 411.373 62.552C411.375 62.552 411.378 62.552 411.38 62.552C411.382 62.552 411.385 62.552 411.387 62.552C411.39 62.552 411.392 62.552 411.394 62.552C411.397 62.552 411.399 62.552 411.402 62.552C411.404 62.552 411.406 62.552 411.409 62.552C411.411 62.552 411.413 62.552 411.416 62.552C411.418 62.552 411.421 62.552 411.423 62.552C411.425 62.552 411.428 62.552 411.43 62.552C411.433 62.552 411.435 62.552 411.437 62.552C411.44 62.552 411.442 62.552 411.444 62.552C411.447 62.552 411.449 62.552 411.452 62.552C411.454 62.552 411.456 62.552 411.459 62.552C411.461 62.552 411.464 62.552 411.466 62.552C411.468 62.552 411.471 62.552 411.473 62.552C411.475 62.552 411.478 62.552 411.48 62.552C411.483 62.552 411.485 62.552 411.487 62.552C411.49 62.552 411.492 62.552 411.495 62.552C411.497 62.552 411.499 62.552 411.502 62.552C411.504 62.552 411.506 62.552 411.509 62.552C411.511 62.552 411.514 62.552 411.516 62.552C411.518 62.552 411.521 62.552 411.523 62.552C411.525 62.552 411.528 62.552 411.53 62.552C411.533 62.552 411.535 62.552 411.537 62.552C411.54 62.552 411.542 62.552 411.544 62.552C411.547 62.552 411.549 62.552 411.552 62.552C411.554 62.552 411.556 62.552 411.559 62.552C411.561 62.552 411.564 62.552 411.566 62.552C411.568 62.552 411.571 62.552 411.573 62.552C411.575 62.552 411.578 62.552 411.58 62.552C411.583 62.552 411.585 62.552 411.587 62.552C411.59 62.552 411.592 62.552 411.594 62.552C411.597 62.552 411.599 62.552 411.602 62.552C411.604 62.552 411.606 62.552 411.609 62.552C411.611 62.552 411.613 62.552 411.616 62.552C411.618 62.552 411.621 62.552 411.623 62.552C411.625 62.552 411.628 62.552 411.63 62.552C411.632 62.552 411.635 62.552 411.637 62.552C411.64 62.552 411.642 62.552 411.644 62.552C411.647 62.552 411.649 62.552 411.651 62.552C411.654 62.552 411.656 62.552 411.659 62.552C411.661 62.552 411.663 62.552 411.666 62.552C411.668 62.552 411.671 62.552 411.673 62.552C411.675 62.552 411.678 62.552 411.68 62.552V58.552C411.678 58.552 411.675 58.552 411.673 58.552C411.671 58.552 411.668 58.552 411.666 58.552C411.663 58.552 411.661 58.552 411.659 58.552C411.656 58.552 411.654 58.552 411.651 58.552C411.649 58.552 411.647 58.552 411.644 58.552C411.642 58.552 411.64 58.552 411.637 58.552C411.635 58.552 411.632 58.552 411.63 58.552C411.628 58.552 411.625 58.552 411.623 58.552C411.621 58.552 411.618 58.552 411.616 58.552C411.613 58.552 411.611 58.552 411.609 58.552C411.606 58.552 411.604 58.552 411.602 58.552C411.599 58.552 411.597 58.552 411.594 58.552C411.592 58.552 411.59 58.552 411.587 58.552C411.585 58.552 411.583 58.552 411.58 58.552C411.578 58.552 411.575 58.552 411.573 58.552C411.571 58.552 411.568 58.552 411.566 58.552C411.564 58.552 411.561 58.552 411.559 58.552C411.556 58.552 411.554 58.552 411.552 58.552C411.549 58.552 411.547 58.552 411.544 58.552C411.542 58.552 411.54 58.552 411.537 58.552C411.535 58.552 411.533 58.552 411.53 58.552C411.528 58.552 411.525 58.552 411.523 58.552C411.521 58.552 411.518 58.552 411.516 58.552C411.514 58.552 411.511 58.552 411.509 58.552C411.506 58.552 411.504 58.552 411.502 58.552C411.499 58.552 411.497 58.552 411.495 58.552C411.492 58.552 411.49 58.552 411.487 58.552C411.485 58.552 411.483 58.552 411.48 58.552C411.478 58.552 411.475 58.552 411.473 58.552C411.471 58.552 411.468 58.552 411.466 58.552C411.464 58.552 411.461 58.552 411.459 58.552C411.456 58.552 411.454 58.552 411.452 58.552C411.449 58.552 411.447 58.552 411.444 58.552C411.442 58.552 411.44 58.552 411.437 58.552C411.435 58.552 411.433 58.552 411.43 58.552C411.428 58.552 411.425 58.552 411.423 58.552C411.421 58.552 411.418 58.552 411.416 58.552C411.413 58.552 411.411 58.552 411.409 58.552C411.406 58.552 411.404 58.552 411.402 58.552C411.399 58.552 411.397 58.552 411.394 58.552C411.392 58.552 411.39 58.552 411.387 58.552C411.385 58.552 411.382 58.552 411.38 58.552C411.378 58.552 411.375 58.552 411.373 58.552C411.371 58.552 411.368 58.552 411.366 58.552C411.363 58.552 411.361 58.552 411.359 58.552C411.356 58.552 411.354 58.552 411.351 58.552C411.349 58.552 411.347 58.552 411.344 58.552C411.342 58.552 411.34 58.552 411.337 58.552C411.335 58.552 411.332 58.552 411.33 58.552C411.328 58.552 411.325 58.552 411.323 58.552C411.32 58.552 411.318 58.552 411.316 58.552C411.313 58.552 411.311 58.552 411.309 58.552C411.306 58.552 411.304 58.552 411.301 58.552C411.299 58.552 411.297 58.552 411.294 58.552C411.292 58.552 411.289 58.552 411.287 58.552C411.285 58.552 411.282 58.552 411.28 58.552C411.277 58.552 411.275 58.552 411.273 58.552C411.27 58.552 411.268 58.552 411.266 58.552C411.263 58.552 411.261 58.552 411.258 58.552C411.256 58.552 411.254 58.552 411.251 58.552C411.249 58.552 411.246 58.552 411.244 58.552C411.242 58.552 411.239 58.552 411.237 58.552C411.234 58.552 411.232 58.552 411.23 58.552C411.227 58.552 411.225 58.552 411.223 58.552C411.22 58.552 411.218 58.552 411.215 58.552C411.213 58.552 411.211 58.552 411.208 58.552C411.206 58.552 411.203 58.552 411.201 58.552C411.199 58.552 411.196 58.552 411.194 58.552C411.191 58.552 411.189 58.552 411.187 58.552C411.184 58.552 411.182 58.552 411.179 58.552C411.177 58.552 411.175 58.552 411.172 58.552C411.17 58.552 411.167 58.552 411.165 58.552C411.163 58.552 411.16 58.552 411.158 58.552C411.156 58.552 411.153 58.552 411.151 58.552C411.148 58.552 411.146 58.552 411.144 58.552C411.141 58.552 411.139 58.552 411.136 58.552C411.134 58.552 411.132 58.552 411.129 58.552C411.127 58.552 411.124 58.552 411.122 58.552C411.12 58.552 411.117 58.552 411.115 58.552C411.112 58.552 411.11 58.552 411.108 58.552C411.105 58.552 411.103 58.552 411.1 58.552C411.098 58.552 411.096 58.552 411.093 58.552C411.091 58.552 411.089 58.552 411.086 58.552C411.084 58.552 411.081 58.552 411.079 58.552C411.077 58.552 411.074 58.552 411.072 58.552C411.069 58.552 411.067 58.552 411.065 58.552C411.062 58.552 411.06 58.552 411.057 58.552C411.055 58.552 411.053 58.552 411.05 58.552C411.048 58.552 411.045 58.552 411.043 58.552C411.041 58.552 411.038 58.552 411.036 58.552C411.033 58.552 411.031 58.552 411.029 58.552C411.026 58.552 411.024 58.552 411.021 58.552C411.019 58.552 411.017 58.552 411.014 58.552C411.012 58.552 411.009 58.552 411.007 58.552C411.005 58.552 411.002 58.552 411 58.552C410.997 58.552 410.995 58.552 410.993 58.552C410.99 58.552 410.988 58.552 410.985 58.552C410.983 58.552 410.981 58.552 410.978 58.552C410.976 58.552 410.973 58.552 410.971 58.552C410.969 58.552 410.966 58.552 410.964 58.552C410.961 58.552 410.959 58.552 410.957 58.552C410.954 58.552 410.952 58.552 410.949 58.552C410.947 58.552 410.945 58.552 410.942 58.552C410.94 58.552 410.937 58.552 410.935 58.552C410.933 58.552 410.93 58.552 410.928 58.552C410.925 58.552 410.923 58.552 410.921 58.552C410.918 58.552 410.916 58.552 410.913 58.552C410.911 58.552 410.909 58.552 410.906 58.552C410.904 58.552 410.901 58.552 410.899 58.552C410.897 58.552 410.894 58.552 410.892 58.552C410.889 58.552 410.887 58.552 410.885 58.552C410.882 58.552 410.88 58.552 410.877 58.552C410.875 58.552 410.873 58.552 410.87 58.552C410.868 58.552 410.865 58.552 410.863 58.552C410.861 58.552 410.858 58.552 410.856 58.552C410.853 58.552 410.851 58.552 410.849 58.552C410.846 58.552 410.844 58.552 410.841 58.552C410.839 58.552 410.837 58.552 410.834 58.552C410.832 58.552 410.829 58.552 410.827 58.552C410.825 58.552 410.822 58.552 410.82 58.552C410.817 58.552 410.815 58.552 410.812 58.552C410.81 58.552 410.808 58.552 410.805 58.552C410.803 58.552 410.8 58.552 410.798 58.552C410.796 58.552 410.793 58.552 410.791 58.552C410.788 58.552 410.786 58.552 410.784 58.552C410.781 58.552 410.779 58.552 410.776 58.552C410.774 58.552 410.772 58.552 410.769 58.552C410.767 58.552 410.764 58.552 410.762 58.552C410.76 58.552 410.757 58.552 410.755 58.552C410.752 58.552 410.75 58.552 410.748 58.552C410.745 58.552 410.743 58.552 410.74 58.552C410.738 58.552 410.736 58.552 410.733 58.552C410.731 58.552 410.728 58.552 410.726 58.552C410.723 58.552 410.721 58.552 410.719 58.552C410.716 58.552 410.714 58.552 410.711 58.552C410.709 58.552 410.707 58.552 410.704 58.552C410.702 58.552 410.699 58.552 410.697 58.552C410.695 58.552 410.692 58.552 410.69 58.552C410.687 58.552 410.685 58.552 410.683 58.552C410.68 58.552 410.678 58.552 410.675 58.552C410.673 58.552 410.671 58.552 410.668 58.552C410.666 58.552 410.663 58.552 410.661 58.552C410.658 58.552 410.656 58.552 410.654 58.552C410.651 58.552 410.649 58.552 410.646 58.552C410.644 58.552 410.642 58.552 410.639 58.552C410.637 58.552 410.634 58.552 410.632 58.552C410.63 58.552 410.627 58.552 410.625 58.552C410.622 58.552 410.62 58.552 410.617 58.552C410.615 58.552 410.613 58.552 410.61 58.552C410.608 58.552 410.605 58.552 410.603 58.552C410.601 58.552 410.598 58.552 410.596 58.552C410.593 58.552 410.591 58.552 410.589 58.552C410.586 58.552 410.584 58.552 410.581 58.552C410.579 58.552 410.576 58.552 410.574 58.552C410.572 58.552 410.569 58.552 410.567 58.552C410.564 58.552 410.562 58.552 410.56 58.552C410.557 58.552 410.555 58.552 410.552 58.552C410.55 58.552 410.548 58.552 410.545 58.552C410.543 58.552 410.54 58.552 410.538 58.552C410.535 58.552 410.533 58.552 410.531 58.552C410.528 58.552 410.526 58.552 410.523 58.552C410.521 58.552 410.519 58.552 410.516 58.552C410.514 58.552 410.511 58.552 410.509 58.552C410.506 58.552 410.504 58.552 410.502 58.552C410.499 58.552 410.497 58.552 410.494 58.552C410.492 58.552 410.49 58.552 410.487 58.552C410.485 58.552 410.482 58.552 410.48 58.552C410.478 58.552 410.475 58.552 410.473 58.552C410.47 58.552 410.468 58.552 410.465 58.552C410.463 58.552 410.461 58.552 410.458 58.552C410.456 58.552 410.453 58.552 410.451 58.552C410.448 58.552 410.446 58.552 410.444 58.552C410.441 58.552 410.439 58.552 410.436 58.552C410.434 58.552 410.432 58.552 410.429 58.552C410.427 58.552 410.424 58.552 410.422 58.552C410.419 58.552 410.417 58.552 410.415 58.552C410.412 58.552 410.41 58.552 410.407 58.552C410.405 58.552 410.403 58.552 410.4 58.552C410.398 58.552 410.395 58.552 410.393 58.552C410.39 58.552 410.388 58.552 410.386 58.552C410.383 58.552 410.381 58.552 410.378 58.552C410.376 58.552 410.374 58.552 410.371 58.552C410.369 58.552 410.366 58.552 410.364 58.552C410.361 58.552 410.359 58.552 410.357 58.552C410.354 58.552 410.352 58.552 410.349 58.552C410.347 58.552 410.345 58.552 410.342 58.552C410.34 58.552 410.337 58.552 410.335 58.552C410.332 58.552 410.33 58.552 410.328 58.552C410.325 58.552 410.323 58.552 410.32 58.552C410.318 58.552 410.315 58.552 410.313 58.552C410.311 58.552 410.308 58.552 410.306 58.552C410.303 58.552 410.301 58.552 410.298 58.552C410.296 58.552 410.294 58.552 410.291 58.552C410.289 58.552 410.286 58.552 410.284 58.552C410.282 58.552 410.279 58.552 410.277 58.552C410.274 58.552 410.272 58.552 410.269 58.552C410.267 58.552 410.265 58.552 410.262 58.552C410.26 58.552 410.257 58.552 410.255 58.552C410.252 58.552 410.25 58.552 410.248 58.552C410.245 58.552 410.243 58.552 410.24 58.552C410.238 58.552 410.236 58.552 410.233 58.552C410.231 58.552 410.228 58.552 410.226 58.552C410.223 58.552 410.221 58.552 410.219 58.552C410.216 58.552 410.214 58.552 410.211 58.552C410.209 58.552 410.206 58.552 410.204 58.552C410.202 58.552 410.199 58.552 410.197 58.552C410.194 58.552 410.192 58.552 410.189 58.552C410.187 58.552 410.185 58.552 410.182 58.552C410.18 58.552 410.177 58.552 410.175 58.552C410.172 58.552 410.17 58.552 410.168 58.552C410.165 58.552 410.163 58.552 410.16 58.552C410.158 58.552 410.155 58.552 410.153 58.552C410.151 58.552 410.148 58.552 410.146 58.552C410.143 58.552 410.141 58.552 410.138 58.552C410.136 58.552 410.134 58.552 410.131 58.552C410.129 58.552 410.126 58.552 410.124 58.552C410.121 58.552 410.119 58.552 410.117 58.552C410.114 58.552 410.112 58.552 410.109 58.552C410.107 58.552 410.104 58.552 410.102 58.552C410.1 58.552 410.097 58.552 410.095 58.552C410.092 58.552 410.09 58.552 410.087 58.552C410.085 58.552 410.083 58.552 410.08 58.552C410.078 58.552 410.075 58.552 410.073 58.552C410.07 58.552 410.068 58.552 410.066 58.552C410.063 58.552 410.061 58.552 410.058 58.552C410.056 58.552 410.053 58.552 410.051 58.552C410.049 58.552 410.046 58.552 410.044 58.552C410.041 58.552 410.039 58.552 410.036 58.552C410.034 58.552 410.032 58.552 410.029 58.552C410.027 58.552 410.024 58.552 410.022 58.552C410.019 58.552 410.017 58.552 410.015 58.552C410.012 58.552 410.01 58.552 410.007 58.552C410.005 58.552 410.002 58.552 410 58.552C409.998 58.552 409.995 58.552 409.993 58.552C409.99 58.552 409.988 58.552 409.985 58.552C409.983 58.552 409.981 58.552 409.978 58.552C409.976 58.552 409.973 58.552 409.971 58.552C409.968 58.552 409.966 58.552 409.964 58.552C409.961 58.552 409.959 58.552 409.956 58.552C409.954 58.552 409.951 58.552 409.949 58.552C409.946 58.552 409.944 58.552 409.942 58.552C409.939 58.552 409.937 58.552 409.934 58.552C409.932 58.552 409.929 58.552 409.927 58.552C409.925 58.552 409.922 58.552 409.92 58.552C409.917 58.552 409.915 58.552 409.912 58.552C409.91 58.552 409.908 58.552 409.905 58.552C409.903 58.552 409.9 58.552 409.898 58.552C409.895 58.552 409.893 58.552 409.89 58.552C409.888 58.552 409.886 58.552 409.883 58.552C409.881 58.552 409.878 58.552 409.876 58.552C409.873 58.552 409.871 58.552 409.869 58.552C409.866 58.552 409.864 58.552 409.861 58.552C409.859 58.552 409.856 58.552 409.854 58.552C409.852 58.552 409.849 58.552 409.847 58.552C409.844 58.552 409.842 58.552 409.839 58.552C409.837 58.552 409.834 58.552 409.832 58.552C409.83 58.552 409.827 58.552 409.825 58.552C409.822 58.552 409.82 58.552 409.817 58.552C409.815 58.552 409.812 58.552 409.81 58.552C409.808 58.552 409.805 58.552 409.803 58.552C409.8 58.552 409.798 58.552 409.795 58.552C409.793 58.552 409.791 58.552 409.788 58.552C409.786 58.552 409.783 58.552 409.781 58.552C409.778 58.552 409.776 58.552 409.773 58.552C409.771 58.552 409.769 58.552 409.766 58.552C409.764 58.552 409.761 58.552 409.759 58.552C409.756 58.552 409.754 58.552 409.752 58.552C409.749 58.552 409.747 58.552 409.744 58.552C409.742 58.552 409.739 58.552 409.737 58.552C409.734 58.552 409.732 58.552 409.73 58.552C409.727 58.552 409.725 58.552 409.722 58.552C409.72 58.552 409.717 58.552 409.715 58.552C409.712 58.552 409.71 58.552 409.708 58.552C409.705 58.552 409.703 58.552 409.7 58.552C409.698 58.552 409.695 58.552 409.693 58.552C409.69 58.552 409.688 58.552 409.686 58.552C409.683 58.552 409.681 58.552 409.678 58.552C409.676 58.552 409.673 58.552 409.671 58.552C409.669 58.552 409.666 58.552 409.664 58.552C409.661 58.552 409.659 58.552 409.656 58.552C409.654 58.552 409.651 58.552 409.649 58.552C409.647 58.552 409.644 58.552 409.642 58.552C409.639 58.552 409.637 58.552 409.634 58.552C409.632 58.552 409.629 58.552 409.627 58.552C409.625 58.552 409.622 58.552 409.62 58.552C409.617 58.552 409.615 58.552 409.612 58.552C409.61 58.552 409.607 58.552 409.605 58.552C409.603 58.552 409.6 58.552 409.598 58.552C409.595 58.552 409.593 58.552 409.59 58.552C409.588 58.552 409.585 58.552 409.583 58.552C409.581 58.552 409.578 58.552 409.576 58.552C409.573 58.552 409.571 58.552 409.568 58.552C409.566 58.552 409.563 58.552 409.561 58.552C409.559 58.552 409.556 58.552 409.554 58.552C409.551 58.552 409.549 58.552 409.546 58.552C409.544 58.552 409.541 58.552 409.539 58.552C409.536 58.552 409.534 58.552 409.532 58.552C409.529 58.552 409.527 58.552 409.524 58.552C409.522 58.552 409.519 58.552 409.517 58.552C409.514 58.552 409.512 58.552 409.51 58.552C409.507 58.552 409.505 58.552 409.502 58.552C409.5 58.552 409.497 58.552 409.495 58.552C409.492 58.552 409.49 58.552 409.487 58.552C409.485 58.552 409.483 58.552 409.48 58.552C409.478 58.552 409.475 58.552 409.473 58.552C409.47 58.552 409.468 58.552 409.465 58.552C409.463 58.552 409.461 58.552 409.458 58.552C409.456 58.552 409.453 58.552 409.451 58.552C409.448 58.552 409.446 58.552 409.443 58.552C409.441 58.552 409.439 58.552 409.436 58.552C409.434 58.552 409.431 58.552 409.429 58.552C409.426 58.552 409.424 58.552 409.421 58.552C409.419 58.552 409.416 58.552 409.414 58.552C409.412 58.552 409.409 58.552 409.407 58.552C409.404 58.552 409.402 58.552 409.399 58.552C409.397 58.552 409.394 58.552 409.392 58.552C409.389 58.552 409.387 58.552 409.385 58.552C409.382 58.552 409.38 58.552 409.377 58.552C409.375 58.552 409.372 58.552 409.37 58.552C409.367 58.552 409.365 58.552 409.362 58.552C409.36 58.552 409.358 58.552 409.355 58.552C409.353 58.552 409.35 58.552 409.348 58.552C409.345 58.552 409.343 58.552 409.34 58.552C409.338 58.552 409.336 58.552 409.333 58.552C409.331 58.552 409.328 58.552 409.326 58.552C409.323 58.552 409.321 58.552 409.318 58.552C409.316 58.552 409.313 58.552 409.311 58.552C409.309 58.552 409.306 58.552 409.304 58.552C409.301 58.552 409.299 58.552 409.296 58.552C409.294 58.552 409.291 58.552 409.289 58.552C409.286 58.552 409.284 58.552 409.281 58.552C409.279 58.552 409.277 58.552 409.274 58.552C409.272 58.552 409.269 58.552 409.267 58.552C409.264 58.552 409.262 58.552 409.259 58.552C409.257 58.552 409.254 58.552 409.252 58.552C409.25 58.552 409.247 58.552 409.245 58.552C409.242 58.552 409.24 58.552 409.237 58.552C409.235 58.552 409.232 58.552 409.23 58.552C409.227 58.552 409.225 58.552 409.223 58.552C409.22 58.552 409.218 58.552 409.215 58.552C409.213 58.552 409.21 58.552 409.208 58.552C409.205 58.552 409.203 58.552 409.2 58.552C409.198 58.552 409.195 58.552 409.193 58.552C409.191 58.552 409.188 58.552 409.186 58.552C409.183 58.552 409.181 58.552 409.178 58.552C409.176 58.552 409.173 58.552 409.171 58.552C409.168 58.552 409.166 58.552 409.164 58.552C409.161 58.552 409.159 58.552 409.156 58.552C409.154 58.552 409.151 58.552 409.149 58.552C409.146 58.552 409.144 58.552 409.141 58.552C409.139 58.552 409.136 58.552 409.134 58.552C409.132 58.552 409.129 58.552 409.127 58.552C409.124 58.552 409.122 58.552 409.119 58.552C409.117 58.552 409.114 58.552 409.112 58.552C409.109 58.552 409.107 58.552 409.104 58.552C409.102 58.552 409.1 58.552 409.097 58.552C409.095 58.552 409.092 58.552 409.09 58.552C409.087 58.552 409.085 58.552 409.082 58.552C409.08 58.552 409.077 58.552 409.075 58.552C409.072 58.552 409.07 58.552 409.068 58.552C409.065 58.552 409.063 58.552 409.06 58.552C409.058 58.552 409.055 58.552 409.053 58.552C409.05 58.552 409.048 58.552 409.045 58.552C409.043 58.552 409.04 58.552 409.038 58.552C409.036 58.552 409.033 58.552 409.031 58.552C409.028 58.552 409.026 58.552 409.023 58.552C409.021 58.552 409.018 58.552 409.016 58.552C409.013 58.552 409.011 58.552 409.008 58.552C409.006 58.552 409.003 58.552 409.001 58.552C408.999 58.552 408.996 58.552 408.994 58.552C408.991 58.552 408.989 58.552 408.986 58.552C408.984 58.552 408.981 58.552 408.979 58.552C408.976 58.552 408.974 58.552 408.971 58.552C408.969 58.552 408.966 58.552 408.964 58.552C408.962 58.552 408.959 58.552 408.957 58.552C408.954 58.552 408.952 58.552 408.949 58.552C408.947 58.552 408.944 58.552 408.942 58.552C408.939 58.552 408.937 58.552 408.934 58.552C408.932 58.552 408.929 58.552 408.927 58.552C408.925 58.552 408.922 58.552 408.92 58.552C408.917 58.552 408.915 58.552 408.912 58.552C408.91 58.552 408.907 58.552 408.905 58.552C408.902 58.552 408.9 58.552 408.897 58.552C408.895 58.552 408.892 58.552 408.89 58.552C408.888 58.552 408.885 58.552 408.883 58.552C408.88 58.552 408.878 58.552 408.875 58.552C408.873 58.552 408.87 58.552 408.868 58.552C408.865 58.552 408.863 58.552 408.86 58.552C408.858 58.552 408.855 58.552 408.853 58.552C408.85 58.552 408.848 58.552 408.846 58.552C408.843 58.552 408.841 58.552 408.838 58.552C408.836 58.552 408.833 58.552 408.831 58.552C408.828 58.552 408.826 58.552 408.823 58.552C408.821 58.552 408.818 58.552 408.816 58.552C408.813 58.552 408.811 58.552 408.808 58.552C408.806 58.552 408.804 58.552 408.801 58.552C408.799 58.552 408.796 58.552 408.794 58.552C408.791 58.552 408.789 58.552 408.786 58.552C408.784 58.552 408.781 58.552 408.779 58.552C408.776 58.552 408.774 58.552 408.771 58.552C408.769 58.552 408.766 58.552 408.764 58.552C408.762 58.552 408.759 58.552 408.757 58.552C408.754 58.552 408.752 58.552 408.749 58.552C408.747 58.552 408.744 58.552 408.742 58.552C408.739 58.552 408.737 58.552 408.734 58.552C408.732 58.552 408.729 58.552 408.727 58.552C408.724 58.552 408.722 58.552 408.719 58.552C408.717 58.552 408.715 58.552 408.712 58.552C408.71 58.552 408.707 58.552 408.705 58.552C408.702 58.552 408.7 58.552 408.697 58.552C408.695 58.552 408.692 58.552 408.69 58.552C408.687 58.552 408.685 58.552 408.682 58.552C408.68 58.552 408.677 58.552 408.675 58.552C408.672 58.552 408.67 58.552 408.667 58.552C408.665 58.552 408.663 58.552 408.66 58.552C408.658 58.552 408.655 58.552 408.653 58.552C408.65 58.552 408.648 58.552 408.645 58.552C408.643 58.552 408.64 58.552 408.638 58.552C408.635 58.552 408.633 58.552 408.63 58.552C408.628 58.552 408.625 58.552 408.623 58.552C408.62 58.552 408.618 58.552 408.615 58.552C408.613 58.552 408.611 58.552 408.608 58.552C408.606 58.552 408.603 58.552 408.601 58.552C408.598 58.552 408.596 58.552 408.593 58.552C408.591 58.552 408.588 58.552 408.586 58.552C408.583 58.552 408.581 58.552 408.578 58.552C408.576 58.552 408.573 58.552 408.571 58.552C408.568 58.552 408.566 58.552 408.563 58.552C408.561 58.552 408.558 58.552 408.556 58.552C408.553 58.552 408.551 58.552 408.549 58.552C408.546 58.552 408.544 58.552 408.541 58.552C408.539 58.552 408.536 58.552 408.534 58.552C408.531 58.552 408.529 58.552 408.526 58.552C408.524 58.552 408.521 58.552 408.519 58.552C408.516 58.552 408.514 58.552 408.511 58.552C408.509 58.552 408.506 58.552 408.504 58.552C408.501 58.552 408.499 58.552 408.496 58.552C408.494 58.552 408.491 58.552 408.489 58.552C408.487 58.552 408.484 58.552 408.482 58.552C408.479 58.552 408.477 58.552 408.474 58.552C408.472 58.552 408.469 58.552 408.467 58.552C408.464 58.552 408.462 58.552 408.459 58.552C408.457 58.552 408.454 58.552 408.452 58.552C408.449 58.552 408.447 58.552 408.444 58.552C408.442 58.552 408.439 58.552 408.437 58.552C408.434 58.552 408.432 58.552 408.429 58.552C408.427 58.552 408.424 58.552 408.422 58.552C408.419 58.552 408.417 58.552 408.414 58.552C408.412 58.552 408.41 58.552 408.407 58.552C408.405 58.552 408.402 58.552 408.4 58.552C408.397 58.552 408.395 58.552 408.392 58.552C408.39 58.552 408.387 58.552 408.385 58.552C408.382 58.552 408.38 58.552 408.377 58.552C408.375 58.552 408.372 58.552 408.37 58.552C408.367 58.552 408.365 58.552 408.362 58.552C408.36 58.552 408.357 58.552 408.355 58.552C408.352 58.552 408.35 58.552 408.347 58.552C408.345 58.552 408.342 58.552 408.34 58.552C408.337 58.552 408.335 58.552 408.332 58.552C408.33 58.552 408.327 58.552 408.325 58.552C408.323 58.552 408.32 58.552 408.318 58.552C408.315 58.552 408.313 58.552 408.31 58.552C408.308 58.552 408.305 58.552 408.303 58.552C408.3 58.552 408.298 58.552 408.295 58.552C408.293 58.552 408.29 58.552 408.288 58.552C408.285 58.552 408.283 58.552 408.28 58.552C408.278 58.552 408.275 58.552 408.273 58.552C408.27 58.552 408.268 58.552 408.265 58.552C408.263 58.552 408.26 58.552 408.258 58.552C408.255 58.552 408.253 58.552 408.25 58.552C408.248 58.552 408.245 58.552 408.243 58.552C408.24 58.552 408.238 58.552 408.235 58.552C408.233 58.552 408.23 58.552 408.228 58.552C408.225 58.552 408.223 58.552 408.22 58.552C408.218 58.552 408.215 58.552 408.213 58.552C408.211 58.552 408.208 58.552 408.206 58.552C408.203 58.552 408.201 58.552 408.198 58.552C408.196 58.552 408.193 58.552 408.191 58.552C408.188 58.552 408.186 58.552 408.183 58.552C408.181 58.552 408.178 58.552 408.176 58.552C408.173 58.552 408.171 58.552 408.168 58.552C408.166 58.552 408.163 58.552 408.161 58.552C408.158 58.552 408.156 58.552 408.153 58.552C408.151 58.552 408.148 58.552 408.146 58.552C408.143 58.552 408.141 58.552 408.138 58.552C408.136 58.552 408.133 58.552 408.131 58.552C408.128 58.552 408.126 58.552 408.123 58.552C408.121 58.552 408.118 58.552 408.116 58.552C408.113 58.552 408.111 58.552 408.108 58.552C408.106 58.552 408.103 58.552 408.101 58.552C408.098 58.552 408.096 58.552 408.093 58.552C408.091 58.552 408.088 58.552 408.086 58.552C408.083 58.552 408.081 58.552 408.078 58.552C408.076 58.552 408.073 58.552 408.071 58.552C408.068 58.552 408.066 58.552 408.063 58.552C408.061 58.552 408.058 58.552 408.056 58.552C408.053 58.552 408.051 58.552 408.048 58.552C408.046 58.552 408.043 58.552 408.041 58.552C408.038 58.552 408.036 58.552 408.033 58.552C408.031 58.552 408.028 58.552 408.026 58.552C408.023 58.552 408.021 58.552 408.018 58.552C408.016 58.552 408.013 58.552 408.011 58.552C408.008 58.552 408.006 58.552 408.003 58.552C408.001 58.552 407.998 58.552 407.996 58.552C407.993 58.552 407.991 58.552 407.988 58.552C407.986 58.552 407.983 58.552 407.981 58.552C407.978 58.552 407.976 58.552 407.973 58.552C407.971 58.552 407.969 58.552 407.966 58.552C407.964 58.552 407.961 58.552 407.958 58.552C407.956 58.552 407.953 58.552 407.951 58.552C407.948 58.552 407.946 58.552 407.944 58.552C407.941 58.552 407.939 58.552 407.936 58.552V62.552ZM411.785 62.5492C413.042 62.4831 414.16 62.3826 415.131 62.2439L414.565 58.2841C413.744 58.4014 412.75 58.4929 411.575 58.5548L411.785 62.5492ZM416.848 60.264V49.896H412.848V60.264H416.848ZM415.177 47.9232C414.317 47.78 413.315 47.6781 412.181 47.6115L411.947 51.6045C412.989 51.6659 413.843 51.756 414.519 51.8688L415.177 47.9232ZM412.298 47.6217C411.148 47.4865 410.077 47.416 409.088 47.416V51.416C409.891 51.416 410.804 51.4735 411.83 51.5943L412.298 47.6217ZM409.088 47.416C407.766 47.416 406.472 47.5204 405.207 47.7312L405.865 51.6768C406.904 51.5036 407.978 51.416 409.088 51.416V47.416ZM405.315 47.7162C404.004 47.862 402.783 48.1593 401.676 48.6337L403.252 52.3103C403.937 52.0167 404.764 51.802 405.757 51.6918L405.315 47.7162ZM401.626 48.6561C400.501 49.1754 399.554 49.9327 398.831 50.9277L402.065 53.2803C402.366 52.8673 402.763 52.5366 403.302 52.2879L401.626 48.6561ZM398.831 50.9277C398.001 52.0689 397.68 53.4489 397.68 54.888H401.68C401.68 54.0231 401.871 53.5471 402.065 53.2803L398.831 50.9277ZM397.68 54.888C397.68 57.5185 398.722 59.7166 400.976 61.0316L402.992 57.5764C402.174 57.0993 401.68 56.3535 401.68 54.888H397.68ZM401.031 61.0626C402.952 62.103 405.295 62.552 407.936 62.552V58.552C405.713 58.552 404.088 58.169 402.937 57.5454L401.031 61.0626ZM406.88 24.728C410.449 24.728 413.267 25.1613 415.405 25.9487L416.787 22.1953C414.061 21.1907 410.734 20.728 406.88 20.728V24.728ZM415.464 25.9694C417.705 26.7167 419.377 27.7707 420.576 29.0741L423.52 26.3659C421.775 24.4693 419.479 23.0913 416.728 22.1746L415.464 25.9694ZM420.604 29.1038C421.82 30.3729 422.726 31.9896 423.289 34.0153L427.143 32.9447C426.426 30.3624 425.22 28.1391 423.492 26.3362L420.604 29.1038ZM423.293 34.0294C423.873 36.0581 424.176 38.3965 424.176 41.064H428.176C428.176 38.0995 427.839 35.3819 427.139 32.9306L423.293 34.0294ZM424.176 41.064V67.944H428.176V41.064H424.176ZM425.742 65.9916C424.083 66.3603 421.578 66.8002 418.197 67.3104L418.794 71.2656C422.198 70.7518 424.813 70.2957 426.61 69.8964L425.742 65.9916ZM418.197 67.3104C414.924 67.8045 411.218 68.056 407.072 68.056V72.056C411.374 72.056 415.284 71.7955 418.794 71.2656L418.197 67.3104ZM407.072 68.056C404.308 68.056 401.829 67.8101 399.623 67.3332L398.777 71.2428C401.307 71.7899 404.076 72.056 407.072 72.056V68.056ZM399.634 67.3356C397.541 66.8706 395.805 66.13 394.386 65.1476L392.11 68.4364C394.019 69.758 396.251 70.6814 398.766 71.2404L399.634 67.3356ZM394.428 65.1772C393.029 64.1549 391.962 62.8749 391.209 61.3145L387.607 63.0535C388.646 65.2051 390.139 66.9971 392.068 68.4068L394.428 65.1772ZM391.22 61.3382C390.479 59.7498 390.064 57.7196 390.064 55.176H386.064C386.064 58.1364 386.545 60.7782 387.596 63.0298L391.22 61.3382ZM390.064 55.176C390.064 52.8073 390.526 50.9627 391.336 49.5443L387.863 47.5597C386.626 49.7253 386.064 52.2967 386.064 55.176H390.064ZM391.336 49.5443C392.2 48.034 393.346 46.8357 394.794 45.9245L392.662 42.5395C390.654 43.8043 389.048 45.486 387.864 47.5597L391.336 49.5443ZM394.794 45.9245C396.292 44.9808 398.043 44.295 400.072 43.8892L399.288 39.9668C396.837 40.457 394.62 41.3072 392.662 42.5395L394.794 45.9245ZM400.126 43.8777C402.211 43.401 404.397 43.16 406.688 43.16V39.16C404.115 39.16 401.629 39.431 399.234 39.9783L400.126 43.8777ZM406.688 43.16C409.654 43.16 412.227 43.4076 414.425 43.8828L415.271 39.9732C412.733 39.4244 409.866 39.16 406.688 39.16V43.16ZM416.848 41.928V40.488H412.848V41.928H416.848ZM416.848 40.488C416.848 37.789 415.982 35.4204 414.181 33.5376L411.291 36.3024C412.306 37.3636 412.848 38.707 412.848 40.488H416.848ZM414.21 33.5685C412.237 31.4154 409.102 30.616 405.44 30.616V34.616C408.69 34.616 410.419 35.3526 411.262 36.2715L414.21 33.5685ZM405.44 30.616C403.105 30.616 400.828 30.7828 398.612 31.1186L399.212 35.0734C401.22 34.7692 403.295 34.616 405.44 34.616V30.616ZM398.603 31.12C396.491 31.45 394.697 31.8572 393.259 32.3603L394.581 36.1357C395.703 35.7428 397.237 35.382 399.221 35.072L398.603 31.12ZM395.891 33.9095L394.259 24.4055L390.317 25.0825L391.949 34.5865L395.891 33.9095ZM392.945 26.633C394.238 26.1832 396.171 25.757 398.811 25.3799L398.245 21.4201C395.509 21.811 393.282 22.2808 391.631 22.855L392.945 26.633ZM398.857 25.3728C401.43 24.9439 404.104 24.728 406.88 24.728V20.728C403.896 20.728 401.002 20.9601 398.199 21.4272L398.857 25.3728ZM468.128 36.456L466.413 37.485L466.424 37.5028L466.435 37.5203L468.128 36.456ZM458.048 33.672L458.557 35.6061L458.59 35.5975L458.623 35.5877L458.048 33.672ZM454.88 34.92L453.888 33.1835L452.88 33.7593V34.92H454.88ZM454.88 59.4H452.88V61.0168L454.461 61.3556L454.88 59.4ZM457.664 59.784L457.531 61.7796L457.539 61.7801L457.664 59.784ZM467.552 56.808L469.057 58.125L469.067 58.1136L469.077 58.102L467.552 56.808ZM480.8 56.232L482.697 56.8645L482.701 56.852L480.8 56.232ZM476.576 63.624L475.094 62.281L476.576 63.624ZM469.76 68.424L470.51 70.2779L470.529 70.2703L470.548 70.2623L469.76 68.424ZM451.136 69.384L451.413 67.4033L451.136 69.384ZM443.072 67.656H441.072V69.111L442.456 69.5589L443.072 67.656ZM443.072 4.392L442.735 2.42052L441.072 2.70452V4.392H443.072ZM454.88 2.376H456.88V0.00559676L454.543 0.404526L454.88 2.376ZM454.88 24.936H452.88V28.0618L455.718 26.7519L454.88 24.936ZM459.68 23.4L460.009 25.3728L460.049 25.3662L460.088 25.358L459.68 23.4ZM472.064 24.648L471.149 26.4266L471.17 26.437L471.19 26.447L472.064 24.648ZM477.632 29.448L475.991 30.5916L476.011 30.6201L476.032 30.648L477.632 29.448ZM481.088 36.84L483.02 36.3247L481.088 36.84ZM472.24 46.152C472.24 41.7558 471.516 38.0879 469.821 35.3917L466.435 37.5203C467.556 39.3041 468.24 42.1002 468.24 46.152H472.24ZM469.843 35.427C468.105 32.5298 465.34 31.096 461.888 31.096V35.096C464.068 35.096 465.463 35.9022 466.413 37.485L469.843 35.427ZM461.888 31.096C460.405 31.096 458.932 31.3189 457.473 31.7563L458.623 35.5877C459.724 35.2571 460.811 35.096 461.888 35.096V31.096ZM457.539 31.7379C456.189 32.093 454.964 32.5683 453.888 33.1835L455.872 36.6565C456.588 36.2477 457.475 35.891 458.557 35.6061L457.539 31.7379ZM452.88 34.92V59.4H456.88V34.92H452.88ZM454.461 61.3556C455.456 61.5688 456.48 61.7095 457.531 61.7796L457.797 57.7884C456.928 57.7305 456.096 57.6152 455.299 57.4444L454.461 61.3556ZM457.539 61.7801C458.588 61.8456 459.496 61.88 460.256 61.88V57.88C459.608 57.88 458.788 57.8504 457.789 57.7879L457.539 61.7801ZM460.256 61.88C463.822 61.88 466.834 60.6657 469.057 58.125L466.047 55.491C464.686 57.0463 462.834 57.88 460.256 57.88V61.88ZM469.077 58.102C471.34 55.4345 472.24 51.2787 472.24 46.152H468.24C468.24 51.0093 467.348 53.9575 466.027 55.514L469.077 58.102ZM480.24 46.44C480.24 49.8459 479.784 52.8968 478.899 55.612L482.701 56.852C483.736 53.6792 484.24 50.2021 484.24 46.44H480.24ZM478.903 55.5995C478.022 58.2425 476.746 60.4579 475.094 62.281L478.058 64.967C480.118 62.6941 481.658 59.9815 482.697 56.8645L478.903 55.5995ZM475.094 62.281C473.442 64.1036 471.412 65.5403 468.972 66.5857L470.548 70.2623C473.484 69.0037 475.998 67.2404 478.058 64.967L475.094 62.281ZM469.01 66.5701C466.601 67.545 463.791 68.056 460.544 68.056V72.056C464.209 72.056 467.543 71.479 470.51 70.2779L469.01 66.5701ZM460.544 68.056C457.569 68.056 454.526 67.8391 451.413 67.4033L450.859 71.3647C454.146 71.8249 457.375 72.056 460.544 72.056V68.056ZM451.413 67.4033C448.285 66.9654 445.719 66.4102 443.688 65.7531L442.456 69.5589C444.777 70.3098 447.587 70.9066 450.859 71.3647L451.413 67.4033ZM445.072 67.656V4.392H441.072V67.656H445.072ZM443.409 6.36347L455.217 4.34747L454.543 0.404526L442.735 2.42052L443.409 6.36347ZM452.88 2.376V24.936H456.88V2.376H452.88ZM455.718 26.7519C457.248 26.0459 458.677 25.5948 460.009 25.3728L459.351 21.4272C457.611 21.7172 455.84 22.2901 454.042 23.1201L455.718 26.7519ZM460.088 25.358C461.493 25.0653 462.892 24.92 464.288 24.92V20.92C462.612 20.92 460.939 21.0947 459.272 21.442L460.088 25.358ZM464.288 24.92C466.968 24.92 469.236 25.4428 471.149 26.4266L472.979 22.8694C470.412 21.5492 467.496 20.92 464.288 20.92V24.92ZM471.19 26.447C473.112 27.3805 474.708 28.7501 475.991 30.5916L479.273 28.3044C477.612 25.9218 475.496 24.0915 472.938 22.849L471.19 26.447ZM476.032 30.648C477.391 32.4604 478.443 34.6826 479.156 37.3553L483.02 36.3247C482.197 33.2374 480.945 30.5316 479.232 28.248L476.032 30.648ZM479.156 37.3553C479.871 40.0401 480.24 43.0635 480.24 46.44H484.24C484.24 42.7765 483.841 39.3999 483.02 36.3247L479.156 37.3553ZM518.912 59.496L519.397 61.4363L519.435 61.4269L519.472 61.416L518.912 59.496ZM520.448 54.792L518.869 56.0199L518.91 56.0717L518.953 56.1207L520.448 54.792ZM518.432 53.352L517.484 55.1129L517.562 55.1552L517.644 55.1903L518.432 53.352ZM515.456 52.104L514.79 53.99L514.807 53.9958L514.824 54.0014L515.456 52.104ZM512 50.952L512.602 49.0448L512.585 49.0395L512.568 49.0344L512 50.952ZM506.72 49.224L505.989 51.0855L506.018 51.097L506.047 51.1075L506.72 49.224ZM498.176 42.792L496.461 43.821L496.47 43.8366L496.48 43.852L498.176 42.792ZM497.792 31.464L495.964 30.6517L495.957 30.6682L495.95 30.6847L497.792 31.464ZM501.248 26.952L502.528 28.4885L502.534 28.4834L501.248 26.952ZM507.296 23.88L507.852 25.8011L507.875 25.7944L507.898 25.7872L507.296 23.88ZM524.192 23.4L523.839 25.3686L523.847 25.3701L524.192 23.4ZM530.816 25.32L532.783 25.6794L533.065 24.1366L531.634 23.495L530.816 25.32ZM528.992 35.304L528.428 37.2227L530.56 37.8499L530.959 35.6634L528.992 35.304ZM523.904 33.768L523.272 35.6654L523.295 35.6733L523.32 35.6807L523.904 33.768ZM509.984 33.768L511.117 35.4161L511.127 35.4091L511.137 35.4019L509.984 33.768ZM509.12 37.992L507.541 39.2199L507.618 39.3182L507.706 39.4062L509.12 37.992ZM511.04 39.432L510.032 41.1596L510.062 41.1768L510.092 41.1929L511.04 39.432ZM513.824 40.776L513.022 42.6083L513.089 42.6376L513.158 42.662L513.824 40.776ZM517.28 41.928L517.912 40.0306L517.897 40.0256L517.882 40.0208L517.28 41.928ZM522.656 43.848L523.365 41.978V41.978L522.656 43.848ZM527.648 46.536L526.459 48.1444L526.498 48.1732L526.539 48.2001L527.648 46.536ZM531.392 50.568L529.66 51.5674L529.668 51.5823L529.677 51.597L531.392 50.568ZM528.224 66.12L527.044 64.5052L527.029 64.5163L527.014 64.5277L528.224 66.12ZM502.208 68.712L501.589 70.6137L502.208 68.712ZM495.584 66.312L493.617 65.9492L493.326 67.5283L494.805 68.1539L495.584 66.312ZM497.408 56.424L498.151 54.567L495.884 53.6604L495.441 56.0612L497.408 56.424ZM504.512 58.92L503.924 60.8316L503.937 60.8357L504.512 58.92ZM512.288 62.072C515.222 62.072 517.623 61.8799 519.397 61.4363L518.427 57.5557C517.129 57.8801 515.115 58.072 512.288 58.072V62.072ZM519.472 61.416C520.468 61.1256 521.423 60.6421 522.135 59.8407C522.88 59.0024 523.216 57.9772 523.216 56.904H519.216C519.216 57.0224 519.199 57.0851 519.189 57.1115C519.181 57.1349 519.17 57.1556 519.145 57.1833C519.09 57.2459 518.892 57.4184 518.352 57.576L519.472 61.416ZM523.216 56.904C523.216 55.6245 522.807 54.4358 521.943 53.4633L518.953 56.1207C519.113 56.3002 519.216 56.5195 519.216 56.904H523.216ZM522.027 53.5641C521.313 52.6462 520.326 51.9879 519.22 51.5137L517.644 55.1903C518.33 55.4841 518.687 55.7858 518.869 56.0199L522.027 53.5641ZM519.38 51.5911C518.423 51.0758 517.32 50.6173 516.089 50.2066L514.824 54.0014C515.896 54.3587 516.777 54.7322 517.484 55.1129L519.38 51.5911ZM516.122 50.218C515.011 49.8259 513.837 49.4349 512.602 49.0448L511.398 52.8592C512.595 53.2371 513.725 53.6141 514.79 53.99L516.122 50.218ZM512.568 49.0344C510.877 48.5334 509.152 47.9689 507.393 47.3405L506.047 51.1075C507.872 51.7591 509.667 52.3466 511.432 52.8696L512.568 49.0344ZM507.451 47.3625C505.794 46.7113 504.301 45.9189 502.966 44.9902L500.682 48.2738C502.291 49.3931 504.062 50.3287 505.989 51.0855L507.451 47.3625ZM502.966 44.9902C501.719 44.1223 500.69 43.041 499.872 41.732L496.48 43.852C497.582 45.615 498.986 47.0937 500.682 48.2738L502.966 44.9902ZM499.891 41.763C499.161 40.5471 498.736 38.9417 498.736 36.84H494.736C494.736 39.4743 495.271 41.8369 496.461 43.821L499.891 41.763ZM498.736 36.84C498.736 35.1707 499.041 33.6455 499.634 32.2433L495.95 30.6847C495.135 32.6105 494.736 34.6693 494.736 36.84H498.736ZM499.62 32.2763C500.256 30.8444 501.214 29.5837 502.528 28.4884L499.968 25.4156C498.21 26.8803 496.864 28.6276 495.964 30.6517L499.62 32.2763ZM502.534 28.4834C503.881 27.3526 505.633 26.4436 507.852 25.8011L506.74 21.9589C504.096 22.7244 501.815 23.8634 499.962 25.4206L502.534 28.4834ZM507.898 25.7872C510.083 25.0972 512.781 24.728 516.032 24.728V20.728C512.499 20.728 509.373 21.1268 506.694 21.9728L507.898 25.7872ZM516.032 24.728C518.876 24.728 521.476 24.9445 523.839 25.3685L524.545 21.4315C521.916 20.9595 519.076 20.728 516.032 20.728V24.728ZM523.847 25.3701C526.287 25.797 528.328 26.3965 529.998 27.145L531.634 23.495C529.592 22.5795 527.217 21.899 524.537 21.4299L523.847 25.3701ZM528.849 24.9606L527.025 34.9446L530.959 35.6634L532.783 25.6794L528.849 24.9606ZM529.556 33.3853C528.479 33.0684 526.791 32.559 524.488 31.8553L523.32 35.6807C525.625 36.385 527.329 36.8996 528.428 37.2227L529.556 33.3853ZM524.536 31.8706C521.995 31.0234 519.184 30.616 516.128 30.616V34.616C518.832 34.616 521.205 34.9766 523.272 35.6654L524.536 31.8706ZM516.128 30.616C514.55 30.616 513.153 30.7159 511.967 30.9383C510.804 31.1564 509.705 31.5172 508.831 32.1341L511.137 35.4019C511.352 35.2508 511.82 35.0356 512.705 34.8697C513.567 34.7081 514.698 34.616 516.128 34.616V30.616ZM508.851 32.1199C507.567 33.0028 506.448 34.3002 506.448 36.072H510.448C510.448 36.071 510.448 36.0717 510.448 36.0729C510.448 36.0742 510.448 36.0733 510.449 36.0695C510.451 36.0631 510.461 36.0339 510.496 35.9814C510.571 35.8686 510.746 35.6709 511.117 35.4161L508.851 32.1199ZM506.448 36.072C506.448 37.2379 506.831 38.3066 507.541 39.2199L510.699 36.7641C510.513 36.5254 510.448 36.3141 510.448 36.072H506.448ZM507.706 39.4062C508.363 40.0636 509.148 40.6438 510.032 41.1596L512.048 37.7044C511.396 37.3242 510.901 36.9444 510.534 36.5778L507.706 39.4062ZM510.092 41.1929C510.979 41.6709 511.957 42.1423 513.022 42.6083L514.626 38.9437C513.643 38.5137 512.765 38.0891 511.988 37.6711L510.092 41.1929ZM513.158 42.662C514.269 43.0541 515.443 43.4451 516.678 43.8352L517.882 40.0208C516.685 39.6429 515.555 39.2659 514.49 38.89L513.158 42.662ZM516.648 43.8254C518.348 44.392 520.114 45.0228 521.947 45.718L523.365 41.978C521.486 41.2652 519.668 40.616 517.912 40.0306L516.648 43.8254ZM521.947 45.718C523.646 46.3626 525.146 47.1738 526.459 48.1444L528.837 44.9276C527.206 43.7222 525.378 42.7414 523.365 41.978L521.947 45.718ZM526.539 48.2001C527.808 49.0464 528.847 50.1588 529.66 51.5674L533.124 49.5686C532.017 47.6492 530.56 46.0736 528.757 44.8719L526.539 48.2001ZM529.677 51.597C530.407 52.8129 530.832 54.4183 530.832 56.52H534.832C534.832 53.8857 534.297 51.5231 533.107 49.539L529.677 51.597ZM530.832 56.52C530.832 58.1157 530.531 59.6101 529.934 61.0207L533.618 62.5793C534.429 60.6619 534.832 58.6363 534.832 56.52H530.832ZM529.934 61.0207C529.39 62.3067 528.458 63.4721 527.044 64.5052L529.404 67.7348C531.318 66.3359 532.754 64.6213 533.618 62.5793L529.934 61.0207ZM527.014 64.5277C525.679 65.5421 523.826 66.4093 521.37 67.0683L522.406 70.9317C525.198 70.1827 527.569 69.1299 529.434 67.7123L527.014 64.5277ZM521.37 67.0683C518.968 67.7126 515.923 68.056 512.192 68.056V72.056C516.141 72.056 519.56 71.6954 522.406 70.9317L521.37 67.0683ZM512.192 68.056C508.43 68.056 505.323 67.6229 502.827 66.8103L501.589 70.6137C504.597 71.5931 508.146 72.056 512.192 72.056V68.056ZM502.827 66.8103C500.101 65.9228 497.953 65.1428 496.363 64.4701L494.805 68.1539C496.543 68.8892 498.811 69.7092 501.589 70.6137L502.827 66.8103ZM497.551 66.6748L499.375 56.7868L495.441 56.0612L493.617 65.9492L497.551 66.6748ZM496.665 58.281C498.96 59.1988 501.38 60.0488 503.924 60.8316L505.1 57.0084C502.652 56.2552 500.336 55.4412 498.151 54.567L496.665 58.281ZM503.937 60.8357C506.68 61.6585 509.466 62.072 512.288 62.072V58.072C509.862 58.072 507.464 57.7175 505.087 57.0043L503.937 60.8357Z" fill="#555555"/>
</svg>
