<svg width="27" height="27" viewBox="0 0 27 27" fill="none" xmlns="http://www.w3.org/2000/svg">
<path d="M13.5 1.125V2.5V1.125ZM13.5 24.5V25.875V24.5ZM25.875 13.5H24.5H25.875ZM2.5 13.5H1.125H2.5ZM22.2505 22.2505L21.2784 21.2784L22.2505 22.2505ZM5.72162 5.72162L4.7495 4.7495L5.72162 5.72162ZM22.2505 4.7495L21.2784 5.72162L22.2505 4.7495ZM5.72162 21.2784L4.7495 22.2505L5.72162 21.2784ZM19 13.5C19 14.9587 18.4205 16.3576 17.3891 17.3891C16.3576 18.4205 14.9587 19 13.5 19C12.0413 19 10.6424 18.4205 9.61091 17.3891C8.57946 16.3576 8 14.9587 8 13.5C8 12.0413 8.57946 10.6424 9.61091 9.61091C10.6424 8.57946 12.0413 8 13.5 8C14.9587 8 16.3576 8.57946 17.3891 9.61091C18.4205 10.6424 19 12.0413 19 13.5V13.5Z" stroke="white" stroke-width="2" stroke-linecap="round" stroke-linejoin="round"/>
</svg>
