<svg width="33" height="33" viewBox="0 0 33 33" fill="none" xmlns="http://www.w3.org/2000/svg">
<path d="M32.5512 5.22108C32.5246 5.12928 32.4738 5.04633 32.4041 4.98093C32.3344 4.91553 32.2484 4.87008 32.1551 4.84936L28.8874 4.1111L28.1491 0.843331C28.1281 0.750273 28.0826 0.664552 28.0171 0.595116C27.9517 0.525681 27.8689 0.475077 27.7772 0.448587C27.6856 0.422096 27.5885 0.420691 27.4962 0.444518C27.4038 0.468344 27.3195 0.516529 27.2521 0.584042L23.4938 4.34297C20.3134 2.42387 16.5407 1.73522 12.8874 2.40697C9.23415 3.07873 5.95311 5.06443 3.66348 7.98934C1.37385 10.9143 0.233986 14.5761 0.459006 18.2838C0.684025 21.9914 2.25836 25.4885 4.88491 28.1151C7.51146 30.7416 11.0086 32.316 14.7162 32.541C18.4239 32.766 22.0857 31.6262 25.0107 29.3365C27.9356 27.0469 29.9213 23.7659 30.593 20.1126C31.2648 16.4593 30.5761 12.6865 28.657 9.50621L32.4169 5.74636C32.4842 5.6788 32.5321 5.59444 32.5558 5.50206C32.5794 5.40968 32.5778 5.31265 32.5512 5.22108ZM29.7767 17.3644C29.7763 20.4773 28.7486 23.503 26.8531 25.9723C24.9576 28.4415 22.3002 30.2162 19.2932 31.021C16.2861 31.8258 13.0975 31.6159 10.222 30.4236C7.34648 29.2314 4.94478 27.1235 3.38946 24.427C1.83414 21.7305 1.21215 18.5961 1.61997 15.5101C2.02778 12.424 3.44262 9.55878 5.64499 7.35887C7.84736 5.15895 10.7142 3.74731 13.8007 3.34293C16.8872 2.93855 20.0209 3.56404 22.7156 5.12236L20.9896 6.84842C20.9747 6.8653 20.961 6.88311 20.9484 6.90174C18.4562 5.63289 15.593 5.29461 12.8737 5.9477C10.1543 6.60078 7.75705 8.2024 6.11281 10.4647C4.46856 12.727 3.68515 15.5015 3.90338 18.2897C4.12162 21.0778 5.32718 23.6967 7.30339 25.6756C9.2796 27.6545 11.8968 28.8637 14.6847 29.0857C17.4726 29.3077 20.2482 28.5281 22.5127 26.8869C24.7772 25.2457 26.3821 22.8507 27.0389 20.1322C27.6957 17.4137 27.3613 14.5501 26.0958 12.0561C26.1154 12.0423 26.1341 12.0271 26.1516 12.0107L27.8776 10.2847C29.1241 12.4357 29.7793 14.8783 29.7767 17.3644ZM24.8305 11.9672C26.1399 14.2025 26.5899 16.8385 26.0962 19.3817C25.6025 21.9249 24.1989 24.201 22.1482 25.7841C20.0975 27.3672 17.5402 28.1487 14.9548 27.9824C12.3695 27.8161 9.93336 26.7134 8.10235 24.8806C6.27135 23.0479 5.17097 20.6107 5.00716 18.0252C4.84335 15.4397 5.62734 12.8831 7.21239 10.8339C8.79745 8.78472 11.0749 7.38336 13.6186 6.8921C16.1623 6.40084 18.7978 6.85336 21.0319 8.16497L21.5935 10.6524L21.0548 11.1911C19.4483 9.78047 17.3563 9.04982 15.2209 9.15368C13.0855 9.25753 11.0742 10.1877 9.61229 11.7476C8.15034 13.3075 7.35231 15.3748 7.38694 17.5124C7.42157 19.6501 8.28614 21.6904 9.79786 23.2021C11.3096 24.7139 13.3499 25.5784 15.4876 25.6131C17.6252 25.6477 19.6925 24.8497 21.2524 23.3877C22.8123 21.9257 23.7425 19.9145 23.8463 17.7791C23.9502 15.6437 23.2195 13.5517 21.8089 11.9452L22.3476 11.4065L24.8305 11.9672ZM17.9284 17.3644C17.9303 17.8741 17.7629 18.37 17.4525 18.7743C17.1421 19.1786 16.7062 19.4684 16.2133 19.5983C15.7204 19.7281 15.1984 19.6907 14.7291 19.4918C14.2597 19.2929 13.8698 18.9438 13.6203 18.4993C13.3708 18.0548 13.2759 17.5401 13.3506 17.0358C13.4253 16.5316 13.6652 16.0665 14.0328 15.7133C14.4003 15.3602 14.8748 15.1391 15.3816 15.0847C15.8884 15.0304 16.3989 15.1458 16.833 15.4129L15.2584 16.9875C15.2075 17.0367 15.1669 17.0955 15.1389 17.1606C15.111 17.2257 15.0963 17.2956 15.0957 17.3664C15.0951 17.4372 15.1086 17.5074 15.1354 17.573C15.1623 17.6385 15.2019 17.698 15.2519 17.7481C15.302 17.7981 15.3616 17.8377 15.4271 17.8645C15.4926 17.8913 15.5628 17.9048 15.6336 17.9041C15.7044 17.9035 15.7744 17.8888 15.8394 17.8608C15.9045 17.8329 15.9633 17.7922 16.0125 17.7413L17.5871 16.1667C17.8101 16.5264 17.9282 16.9412 17.9284 17.3644ZM17.6005 14.6454C16.9136 14.1478 16.0643 13.9273 15.222 14.0279C14.3798 14.1284 13.6063 14.5427 13.0558 15.188C12.5053 15.8334 12.2182 16.6625 12.2517 17.5101C12.2852 18.3577 12.6368 19.1615 13.2365 19.7615C13.8361 20.3614 14.6399 20.7133 15.4874 20.7472C16.335 20.781 17.1642 20.4942 17.8098 19.944C18.4554 19.3937 18.87 18.6204 18.9709 17.7782C19.0718 16.936 18.8516 16.0866 18.3543 15.3995L21.0532 12.7005C22.2625 14.1055 22.8801 15.9245 22.7763 17.7752C22.6724 19.626 21.8551 21.3645 20.4962 22.6252C19.1373 23.886 17.3425 24.5709 15.4892 24.536C13.6358 24.5011 11.8681 23.7492 10.5576 22.4381C9.24713 21.1271 8.49586 19.3591 8.46172 17.5057C8.42757 15.6524 9.11321 13.8579 10.3745 12.4995C11.6358 11.1411 13.3746 10.3245 15.2255 10.2214C17.0763 10.1182 18.895 10.7366 20.2994 11.9464L17.6005 14.6454ZM27.6077 9.04643L25.6065 11.0473L25.3064 10.9797L25.2948 10.9769L22.6242 10.3758L21.9512 7.39503L27.3234 2.02186L27.9227 4.67447C27.9449 4.77281 27.9946 4.86284 28.0659 4.93413C28.1372 5.00542 28.2272 5.05505 28.3255 5.07727L30.9781 5.67659L27.6077 9.04643Z" fill="black"/>
</svg>
