<svg width="33" height="33" viewBox="0 0 33 33" fill="none" xmlns="http://www.w3.org/2000/svg">
<g clip-path="url(#clip0)">
<path d="M25.9884 2.36163C24.7524 2.36163 23.7469 3.36716 23.7469 4.60318C23.7469 4.87014 23.9633 5.08657 24.2303 5.08657C24.4973 5.08657 24.7137 4.87014 24.7137 4.60318C24.7137 3.90025 25.2855 3.32842 25.9884 3.32842C26.6913 3.32842 27.2632 3.90025 27.2632 4.60318C27.2632 5.3061 26.6913 5.87793 25.9884 5.87793H25.6816C25.4146 5.87793 25.1982 6.09436 25.1982 6.36133V8.01513C25.1982 8.2821 25.4146 8.49853 25.6816 8.49853C25.9486 8.49853 26.165 8.2821 26.165 8.01513V6.83783C27.3187 6.74747 28.23 5.7797 28.23 4.60318C28.23 3.36716 27.2244 2.36163 25.9884 2.36163Z" fill="black"/>
<path d="M25.6816 9.2351C25.4146 9.2351 25.1982 9.45153 25.1982 9.7185V9.8601C25.1982 10.1271 25.4146 10.3435 25.6816 10.3435C25.9486 10.3435 26.165 10.1271 26.165 9.8601V9.7185C26.165 9.45153 25.9486 9.2351 25.6816 9.2351Z" fill="black"/>
<path d="M30.2297 0H21.7465C20.5825 0 19.6357 0.946881 19.6357 2.11084V5.93587C18.0449 3.65082 15.3996 2.15209 12.4105 2.15209H10.2493C7.7222 2.15209 5.36857 3.48247 4.05895 5.63707C2.28165 6.19433 1.0941 7.84981 1.14811 9.73223L1.27019 13.9504C0.894234 14.3031 0.658722 14.8037 0.658722 15.3586V15.8123C0.658722 16.8771 1.52523 17.7434 2.59038 17.7434H3.88621C4.21608 18.5593 4.69606 19.3205 5.31855 20.0141C4.97592 20.4886 3.21545 22.9266 3.10742 23.0763C3.07243 23.1248 3.04671 23.1795 3.03163 23.2374L0.802001 31.8148C0.727687 32.1007 0.788659 32.3987 0.969386 32.6324C1.15005 32.866 1.42314 33.0001 1.71846 33.0001H19.7008C20.0231 33.0001 20.3339 32.8647 20.5535 32.6287C20.7732 32.3927 20.886 32.0728 20.8628 31.7506L20.6798 29.2449C20.6338 28.6107 20.4655 28.0039 20.1793 27.441C20.0582 27.2031 19.7671 27.1082 19.5293 27.2293C19.2913 27.3502 19.1965 27.6413 19.3175 27.8793C19.545 28.3267 19.6789 28.8096 19.7155 29.3151L19.8986 31.8205C19.904 31.8957 19.8678 31.9466 19.8459 31.9702C19.824 31.9938 19.7758 32.0333 19.7008 32.0333H17.4711V30.0582C17.4711 29.7912 17.2548 29.5748 16.9877 29.5748C16.7207 29.5748 16.5043 29.7912 16.5043 30.0582V32.0332H5.91997L7.1534 27.2884C7.15747 27.2728 7.17152 27.2619 7.18763 27.2619H9.32341C9.75686 27.2619 10.1654 27.154 10.5245 26.9645C10.8349 27.0208 11.1529 27.0498 11.4727 27.0498C12.8284 27.0498 14.1221 26.5319 15.0693 25.6194L15.0711 25.6197C15.1654 25.6393 15.0939 25.6249 16.5259 25.8503C17.051 25.9323 17.5427 26.1192 17.9877 26.4056C18.0686 26.4578 18.1592 26.4826 18.2489 26.4826C18.4078 26.4826 18.5634 26.4044 18.6558 26.2608C18.8003 26.0364 18.7354 25.7372 18.5109 25.5927C17.9519 25.2328 17.3343 24.9981 16.6754 24.8951C15.4351 24.6872 15.3212 24.7059 15.1226 24.6295C14.7737 24.4949 14.5351 24.1627 14.5291 23.7749C15.1007 23.5295 15.5042 22.9708 15.5093 22.3223C15.5109 22.1439 15.4831 21.9701 15.429 21.8057C16.5725 21.1279 18.212 19.8451 19.0596 17.7433H19.9695C21.0343 17.7433 21.9005 16.8771 21.9005 15.8123V15.3585C21.9005 14.765 21.6313 14.2334 21.209 13.8788V12.635C21.3835 12.681 21.5642 12.705 21.7466 12.705H23.2689C23.4448 12.705 23.5879 12.8481 23.5879 13.024V14.3969C23.5879 14.7382 23.7966 15.03 24.1195 15.1404C24.2055 15.1698 24.293 15.1841 24.379 15.1841C24.6159 15.1841 24.8416 15.0759 24.9946 14.8782L26.594 12.8175C26.6496 12.746 26.7332 12.705 26.8235 12.705H30.2305C31.3944 12.705 32.3413 11.7581 32.3413 10.5942V2.11084C32.3413 0.946881 31.3941 0 30.2297 0V0ZM1.62552 15.8123V15.3585C1.62552 14.8265 2.05832 14.3937 2.59038 14.3937H3.37478C3.34152 15.2342 3.3633 15.9264 3.57323 16.7765H2.59038C2.05832 16.7765 1.62552 16.344 1.62552 15.8123ZM11.4893 26.0825C11.7517 25.6784 11.9049 25.1972 11.9049 24.6805V23.9081H13.5676C13.6043 24.3909 13.8189 24.8249 14.1519 25.1404C13.4169 25.7406 12.475 26.0787 11.4893 26.0825ZM13.881 22.9412H11.7954C11.3227 22.9412 10.9381 23.3258 10.9381 23.7985V24.6805C10.9381 25.5707 10.2138 26.2951 9.32341 26.2951H7.18763C6.73137 26.2951 6.33253 26.6035 6.21774 27.0452L4.92101 32.0332H1.74424L3.94454 23.5684C4.11502 23.3322 7.25047 18.9901 7.64596 18.4417C7.74631 18.3026 7.89474 18.211 8.06387 18.1839C8.23499 18.1564 8.40766 18.198 8.54914 18.3006L8.57273 18.3178C8.72632 18.4293 8.81713 18.6016 8.82216 18.7947C8.82654 18.9254 8.78903 19.0512 8.71317 19.1592L7.81212 20.4466C7.64422 20.6857 7.62365 20.9953 7.75836 21.2546C7.8932 21.5141 8.15868 21.6753 8.45123 21.6753H13.9095C14.0787 21.6753 14.2378 21.7412 14.3575 21.8609C14.4783 21.9817 14.5441 22.1425 14.5425 22.3141C14.5398 22.6599 14.243 22.9412 13.881 22.9412ZM20.9337 15.8123C20.9337 16.344 20.5012 16.7765 19.9695 16.7765H19.3727C19.5124 16.2109 19.584 15.6269 19.584 15.0324C19.584 14.8169 19.5795 14.6035 19.5712 14.3937H19.9695C20.5012 14.3937 20.9337 14.8265 20.9337 15.3585V15.8123ZM19.9695 13.4269H19.502C19.4454 12.8839 19.359 12.3581 19.2435 11.8589C19.0176 10.8872 18.1601 10.1692 17.1581 10.1128C15.2852 10.0078 13.3751 9.52224 11.6339 8.70846C11.1463 8.48106 10.5576 8.63807 10.2641 9.07378C10.1533 9.23839 9.92051 9.35814 9.7129 9.35344C9.37446 9.34951 9.00231 9.16356 8.54198 8.7684C8.23158 8.50143 7.91879 8.1889 7.58614 7.81327C7.34696 7.5425 7.00284 7.38704 6.64203 7.38671H6.64081C6.28213 7.38671 5.94001 7.5405 5.70192 7.80888C5.23676 8.33379 4.83322 8.93643 4.50251 9.59991C4.3834 9.83883 4.48053 10.1291 4.71946 10.2482C4.95845 10.3673 5.24862 10.2702 5.3678 10.0313C5.66073 9.44361 6.01658 8.91161 6.42541 8.45032C6.50004 8.36621 6.59228 8.35358 6.64087 8.35358C6.69076 8.35435 6.78486 8.36653 6.86201 8.45387C7.22437 8.86301 7.56771 9.20571 7.91195 9.50174C8.31633 9.84889 8.94185 10.3115 9.70143 10.3202C10.2394 10.3257 10.7728 10.0494 11.066 9.61383C11.0952 9.57045 11.1666 9.55737 11.2248 9.5845C13.0763 10.4498 15.1093 10.9662 17.1038 11.0781C17.6799 11.1106 18.1725 11.5216 18.3017 12.0774C18.4375 12.6641 18.5305 13.2925 18.578 13.9463C18.604 14.2949 18.6172 14.6604 18.6172 15.0325C18.6172 15.7461 18.5004 16.4418 18.2699 17.1004C17.5477 19.1651 15.9314 20.3985 14.8583 21.0199C14.585 20.8178 14.2556 20.7085 13.9095 20.7085H8.80888L9.50465 19.7144C9.70175 19.4339 9.79985 19.1047 9.78844 18.7661C9.77581 18.2736 9.53959 17.825 9.14101 17.5358L9.11748 17.5186C8.76609 17.2637 8.33754 17.1611 7.91079 17.2294C7.48611 17.2975 7.11364 17.5273 6.86182 17.8763C6.67993 18.1285 6.32338 18.6224 5.89934 19.2098C5.35072 18.563 4.94002 17.8556 4.67596 17.1003C4.3038 16.0372 4.28305 15.0824 4.36793 13.9455C4.4166 13.2779 4.51308 12.6353 4.65469 12.0357C4.71605 11.7758 4.55517 11.5155 4.2953 11.4541C4.03549 11.3927 3.77509 11.5536 3.71374 11.8135C3.5925 12.3269 3.50246 12.8683 3.44393 13.427H2.59038C2.46483 13.427 2.34224 13.4394 2.22326 13.4625L2.11452 9.70451C2.07147 8.20611 3.05245 6.895 4.50006 6.51608C4.62581 6.48315 4.73306 6.40097 4.79751 6.28805C5.91294 4.33318 8.00199 3.11889 10.2493 3.11889H12.4105C16.7289 3.11889 20.2422 6.63216 20.2422 10.9506V13.4465C20.153 13.4338 20.0621 13.4269 19.9695 13.4269ZM31.3745 10.5942C31.3745 11.225 30.8613 11.7382 30.2305 11.7382H26.8235C26.4328 11.7382 26.071 11.9152 25.8306 12.2242L24.5547 13.8682V13.024C24.5547 12.3151 23.9779 11.7382 23.2689 11.7382H21.7465C21.5552 11.7382 21.3728 11.6919 21.2089 11.6039V10.9506C21.2089 9.81827 20.9937 8.73533 20.6024 7.74024V2.11084C20.6024 1.47997 21.1157 0.966797 21.7465 0.966797H30.2297C30.8609 0.966797 31.3745 1.47997 31.3745 2.11084V10.5942Z" fill="black"/>
<path d="M9.03027 15.5112C9.29724 15.5112 9.51367 15.2947 9.51367 15.0278V14.488C9.51367 14.2211 9.29724 14.0046 9.03027 14.0046C8.76331 14.0046 8.54688 14.2211 8.54688 14.488V15.0278C8.54688 15.2947 8.76331 15.5112 9.03027 15.5112Z" fill="black"/>
<path d="M16.254 15.5112C16.521 15.5112 16.7374 15.2947 16.7374 15.0278V14.488C16.7374 14.2211 16.521 14.0046 16.254 14.0046C15.987 14.0046 15.7706 14.2211 15.7706 14.488V15.0278C15.7706 15.2947 15.987 15.5112 16.254 15.5112Z" fill="black"/>
<path d="M11.8084 17.8895C12.4675 17.5051 13.0813 17.5051 13.7404 17.8895C13.817 17.9342 13.9007 17.9555 13.9835 17.9554C14.1498 17.9554 14.3116 17.8695 14.4015 17.7155C14.536 17.4849 14.4581 17.1889 14.2275 17.0544C13.2768 16.4999 12.2719 16.4999 11.3213 17.0544C11.0907 17.1889 11.0127 17.485 11.1472 17.7155C11.2818 17.9462 11.5779 18.0241 11.8084 17.8895Z" fill="black"/>
</g>
<defs>
<clipPath id="clip0">
<rect width="33" height="33" fill="white"/>
</clipPath>
</defs>
</svg>
