<svg width="28" height="23" viewBox="0 0 28 23" fill="none" xmlns="http://www.w3.org/2000/svg">
<path d="M27.4439 2.63976C26.4233 3.08744 25.3358 3.38417 24.2021 3.52825C25.3684 2.83187 26.2586 1.73754 26.6772 0.418519C25.5897 1.06688 24.389 1.52485 23.1095 1.78042C22.0769 0.680951 20.6052 0 18.9997 0C15.8849 0 13.3772 2.52827 13.3772 5.62771C13.3772 6.07367 13.4149 6.50248 13.5075 6.91071C8.83007 6.68258 4.69119 4.44076 1.91078 1.02571C1.42537 1.8679 1.14064 2.83187 1.14064 3.86959C1.14064 5.8181 2.14405 7.54535 3.63974 8.54534C2.73581 8.52818 1.84903 8.26575 1.09776 7.85238C1.09776 7.86953 1.09776 7.89183 1.09776 7.91413C1.09776 10.6482 3.04799 12.9192 5.60541 13.4424C5.14744 13.5676 4.64831 13.6276 4.1303 13.6276C3.7701 13.6276 3.40647 13.607 3.06514 13.5315C3.79412 15.7596 5.8627 17.3977 8.32236 17.4509C6.40815 18.9483 3.97765 19.8505 1.34647 19.8505C0.885065 19.8505 0.442533 19.8299 0 19.7733C2.49225 21.3805 5.44589 22.2982 8.6311 22.2982C18.9843 22.2982 24.6446 13.7219 24.6446 6.28808C24.6446 6.03937 24.636 5.79923 24.624 5.56082C25.7406 4.76837 26.6789 3.77868 27.4439 2.63976Z" fill="white"/>
</svg>
