<svg width="31" height="23" viewBox="0 0 31 23" fill="none" xmlns="http://www.w3.org/2000/svg">
<path d="M20.2716 10.1415L13.423 6.47078C13.0292 6.25972 12.5637 6.2676 12.1777 6.49163C11.7915 6.7159 11.5612 7.11207 11.5612 7.55179V14.8302C11.5612 15.2678 11.7901 15.6633 12.1737 15.8878C12.374 16.005 12.5961 16.0639 12.8187 16.0639C13.0226 16.0639 13.2269 16.0145 13.4149 15.9154L20.2638 12.3079C20.6704 12.0936 20.9241 11.6796 20.926 11.2271C20.9277 10.7747 20.677 10.3588 20.2716 10.1415ZM13.3778 13.9146V8.4748L18.4964 11.2183L13.3778 13.9146Z" fill="black"/>
<path d="M30.7718 5.42843L30.7703 5.41453C30.7441 5.17011 30.4828 2.99605 29.4038 1.89026C28.1567 0.589619 26.7428 0.431615 26.0629 0.355856C26.0066 0.349601 25.955 0.343809 25.9089 0.337786L25.8547 0.332225C21.7565 0.0403119 15.5673 0.000463355 15.5053 0.000231677L15.4999 0L15.4944 0.000231677C15.4325 0.000463355 9.24326 0.0403119 5.10813 0.332225L5.0535 0.337786C5.00951 0.343578 4.96102 0.348906 4.90828 0.35493C4.23612 0.43092 2.8374 0.589155 1.58674 1.93682C0.559108 3.0308 0.262052 5.1583 0.231543 5.39739L0.227995 5.42843C0.218771 5.53014 0 7.9514 0 10.3822V12.6544C0 15.0852 0.218771 17.5065 0.227995 17.6084L0.229651 17.6237C0.255903 17.8642 0.51701 19.9984 1.591 21.1046C2.76361 22.3617 4.24629 22.5281 5.0438 22.6175C5.16986 22.6316 5.27842 22.6437 5.35244 22.6564L5.42411 22.6662C7.79038 22.8867 15.2094 22.9954 15.524 22.9998L15.5335 23L15.5429 22.9998C15.6049 22.9995 21.7939 22.9597 25.8921 22.6678L25.9463 22.6622C25.9981 22.6555 26.0562 22.6495 26.1201 22.643C26.7885 22.5735 28.1796 22.4291 29.413 21.0998C30.4407 20.0056 30.7379 17.8781 30.7682 17.6392L30.7718 17.6082C30.781 17.5062 31 15.0852 31 12.6544V10.3822C30.9998 7.9514 30.781 5.53037 30.7718 5.42843ZM29.1831 12.6544C29.1831 14.9043 28.9826 17.2213 28.9637 17.434C28.8866 18.0199 28.5732 19.3659 28.0725 19.899C27.3005 20.731 26.5075 20.8134 25.9285 20.8734C25.8585 20.8806 25.7937 20.8876 25.7351 20.8947C21.7712 21.1755 15.8156 21.2186 15.5413 21.2203C15.2336 21.2159 7.92307 21.1063 5.62892 20.8975C5.51138 20.8788 5.38437 20.8644 5.25051 20.8496C4.57149 20.7733 3.64201 20.6691 2.92728 19.899L2.91049 19.8814C2.41855 19.3793 2.11416 18.1206 2.03682 17.4409C2.02239 17.2801 1.81663 14.9358 1.81663 12.6544V10.3822C1.81663 8.13489 2.01672 5.82043 2.03611 5.60335C2.12811 4.91318 2.4474 3.64869 2.92728 3.13761C3.72289 2.2804 4.56179 2.18541 5.11664 2.12263C5.16962 2.1166 5.21905 2.11104 5.2647 2.10525C9.28631 1.82307 15.2847 1.78114 15.4999 1.77951C15.7151 1.7809 21.7113 1.82307 25.6972 2.10525C25.7462 2.11128 25.7996 2.1173 25.8571 2.12379C26.4278 2.1875 27.2903 2.28388 28.0819 3.11096L28.0893 3.11861C28.5812 3.62065 28.8856 4.90137 28.9629 5.59478C28.9767 5.74652 29.1831 8.09596 29.1831 10.3822V12.6544Z" fill="black"/>
</svg>
