<svg width="19" height="20" viewBox="0 0 19 20" fill="none" xmlns="http://www.w3.org/2000/svg">
<path d="M10.9999 9C10.9999 8.44772 10.5522 8 9.99987 8C9.44759 8 8.99987 8.44772 8.99987 9H10.9999ZM6.40062 18.0387C6.10655 18.5062 6.24712 19.1236 6.7146 19.4177C7.18209 19.7117 7.79945 19.5712 8.09352 19.1037L6.40062 18.0387ZM3.8613 16.4413L3.01485 15.9089L3.01485 15.9089L3.8613 16.4413ZM2.94708 16.0197C2.66507 16.4946 2.8214 17.1081 3.29625 17.3902C3.7711 17.6722 4.38467 17.5159 4.66668 17.041L2.94708 16.0197ZM10.7851 18.3957C10.5378 18.8895 10.7375 19.4903 11.2313 19.7377C11.7251 19.9851 12.3259 19.7853 12.5733 19.2915L10.7851 18.3957ZM14.1329 15.2723C14.2833 14.7409 13.9744 14.1882 13.443 14.0378C12.9116 13.8874 12.3589 14.1963 12.2085 14.7277L14.1329 15.2723ZM12.8058 11.8647C12.7311 12.4119 13.1141 12.9161 13.6613 12.9908C14.2085 13.0655 14.7127 12.6825 14.7874 12.1353L12.8058 11.8647ZM16.0479 15.8582C15.8967 16.3894 16.2047 16.9426 16.7359 17.0938C17.2671 17.2449 17.8203 16.9369 17.9715 16.4057L16.0479 15.8582ZM0.100523 12.9272C-0.140808 13.4239 0.0662645 14.0223 0.563032 14.2636C1.0598 14.5049 1.65815 14.2979 1.89948 13.8011L0.100523 12.9272ZM5.49927 1.20465C5.02121 1.4812 4.85785 2.09292 5.13439 2.57098C5.41094 3.04904 6.02267 3.21241 6.50073 2.93586L5.49927 1.20465ZM3.93586 5.50073C4.21241 5.02267 4.04904 4.41094 3.57098 4.13439C3.09292 3.85785 2.4812 4.02121 2.20465 4.49927L3.93586 5.50073ZM8.99987 9C8.99987 12.3233 8.04726 15.4211 6.40062 18.0387L8.09352 19.1037C9.93491 16.1765 10.9999 12.7111 10.9999 9H8.99987ZM14.9999 9C14.9999 6.23858 12.7613 4 9.99991 4V6C11.6568 6 12.9999 7.34315 12.9999 9H14.9999ZM4.99991 9C4.99991 11.5479 4.27194 13.9105 3.01485 15.9089L4.70775 16.9738C6.15965 14.6658 6.99991 11.9356 6.99991 9H4.99991ZM9.99991 4C7.23848 4 4.99991 6.23858 4.99991 9H6.99991C6.99991 7.34315 8.34305 6 9.99991 6V4ZM3.01485 15.9089C2.99173 15.9456 2.96914 15.9826 2.94708 16.0197L4.66668 17.041C4.68004 17.0185 4.69373 16.9961 4.70776 16.9738L3.01485 15.9089ZM12.5733 19.2915C13.2129 18.0149 13.7373 16.6704 14.1329 15.2723L12.2085 14.7277C11.8475 16.0034 11.3689 17.2304 10.7851 18.3957L12.5733 19.2915ZM14.7874 12.1353C14.9276 11.1092 14.9999 10.0625 14.9999 9H12.9999C12.9999 9.9716 12.9338 10.9279 12.8058 11.8647L14.7874 12.1353ZM19 9C19 4.02944 14.9706 0 10 0V2C13.866 2 17 5.13401 17 9H19ZM17.9715 16.4057C18.6416 14.0513 19 11.5667 19 9H17C17 11.3797 16.6678 13.6801 16.0479 15.8582L17.9715 16.4057ZM1 9C1 10.41 0.67647 11.7416 0.100523 12.9272L1.89948 13.8011C2.60485 12.3491 3 10.7193 3 9H1ZM10 0C8.36237 0 6.82407 0.438297 5.49927 1.20465L6.50073 2.93586C7.52931 2.34086 8.72333 2 10 2V0ZM2.20465 4.49927C1.4383 5.82407 1 7.36237 1 9H3C3 7.72333 3.34086 6.52931 3.93586 5.50073L2.20465 4.49927Z" fill="#111827"/>
</svg>
