<svg width="27" height="27" viewBox="0 0 27 27" fill="none" xmlns="http://www.w3.org/2000/svg">
<path d="M13.5045 6.56775C9.6761 6.56775 6.57672 9.6705 6.57672 13.4955C6.57672 17.3239 9.67947 20.4232 13.5045 20.4232C17.3328 20.4232 20.4322 17.3205 20.4322 13.4955C20.4322 9.66712 17.3295 6.56775 13.5045 6.56775ZM13.5045 17.9921C11.0193 17.9921 9.00785 15.9795 9.00785 13.4955C9.00785 11.0115 11.0205 8.99887 13.5045 8.99887C15.9885 8.99887 18.0011 11.0115 18.0011 13.4955C18.0022 15.9795 15.9896 17.9921 13.5045 17.9921Z" fill="white"/>
<path d="M19.0663 0.0859086C16.5823 -0.0299664 10.4297 -0.0243414 7.94345 0.0859086C5.7587 0.188284 3.83158 0.715908 2.27795 2.26953C-0.318547 4.86603 0.0133284 8.36478 0.0133284 13.4959C0.0133284 18.7474 -0.279172 22.1652 2.27795 24.7223C4.88458 27.3278 8.43395 26.9869 13.5043 26.9869C18.7063 26.9869 20.5018 26.9903 22.3412 26.2782C24.8421 25.3073 26.7298 23.0719 26.9143 19.0568C27.0313 16.5717 27.0246 10.4202 26.9143 7.93391C26.6916 3.19428 24.148 0.319909 19.0663 0.0859086ZM22.9982 23.0044C21.2961 24.7065 18.9347 24.5547 13.4717 24.5547C7.8467 24.5547 5.59108 24.6379 3.9452 22.9875C2.04958 21.1009 2.3927 18.0713 2.3927 13.4779C2.3927 7.26228 1.75483 2.78591 7.99295 2.46641C9.4262 2.41578 9.84808 2.39891 13.456 2.39891L13.5066 2.43266C19.5017 2.43266 24.2053 1.80491 24.4877 8.04191C24.5518 9.46503 24.5665 9.89253 24.5665 13.4948C24.5653 19.0545 24.6711 21.3237 22.9982 23.0044Z" fill="white"/>
<path d="M20.7067 7.91322C21.6008 7.91322 22.3256 7.18843 22.3256 6.29435C22.3256 5.40027 21.6008 4.67548 20.7067 4.67548C19.8126 4.67548 19.0878 5.40027 19.0878 6.29435C19.0878 7.18843 19.8126 7.91322 20.7067 7.91322Z" fill="white"/>
</svg>
