<svg width="162" height="47" viewBox="0 0 162 47" fill="none" xmlns="http://www.w3.org/2000/svg">
<path d="M42.56 31.24C42.56 32.08 42.7133 32.7667 43.02 33.3C43.34 33.8333 43.8467 34.1 44.54 34.1C44.74 34.1 44.9267 34.0933 45.1 34.08C45.2733 34.0667 45.4533 34.0467 45.64 34.02V28.9C45.4533 28.7933 45.24 28.7067 45 28.64C44.76 28.56 44.5067 28.52 44.24 28.52C43.6533 28.52 43.2267 28.7533 42.96 29.22C42.6933 29.6867 42.56 30.36 42.56 31.24ZM48.1 35.72C47.6467 35.8667 47.0933 35.9867 46.44 36.08C45.7867 36.1733 45.1467 36.22 44.52 36.22C43.0533 36.22 41.94 35.7867 41.18 34.92C40.4333 34.0533 40.06 32.8667 40.06 31.36C40.06 29.8267 40.3733 28.62 41 27.74C41.64 26.8467 42.58 26.4 43.82 26.4C44.1533 26.4 44.48 26.44 44.8 26.52C45.12 26.5867 45.4 26.6867 45.64 26.82V22.54L48.1 22.12V35.72ZM51.22 31.38C51.22 30.5533 51.3467 29.8267 51.6 29.2C51.8533 28.5733 52.1867 28.0533 52.6 27.64C53.0133 27.2133 53.4867 26.8933 54.02 26.68C54.5533 26.4667 55.1 26.36 55.66 26.36C57.0467 26.36 58.1 26.7733 58.82 27.6C59.54 28.4133 59.9 29.6067 59.9 31.18C59.9 31.34 59.8933 31.5067 59.88 31.68C59.88 31.8533 59.8733 31.9933 59.86 32.1H53.76C53.76 32.7133 54.0133 33.2 54.52 33.56C55.0267 33.9067 55.68 34.08 56.48 34.08C56.9733 34.08 57.44 34.0267 57.88 33.92C58.3333 33.8133 58.7133 33.7067 59.02 33.6L59.36 35.7C58.9333 35.8467 58.48 35.9667 58 36.06C57.52 36.1667 56.98 36.22 56.38 36.22C55.58 36.22 54.86 36.12 54.22 35.92C53.5933 35.7067 53.0533 35.4 52.6 35C52.16 34.5867 51.82 34.08 51.58 33.48C51.34 32.88 51.22 32.18 51.22 31.38ZM57.52 30.4C57.52 30.1467 57.4867 29.9067 57.42 29.68C57.3533 29.44 57.2467 29.2267 57.1 29.04C56.9533 28.8533 56.7667 28.7067 56.54 28.6C56.3133 28.48 56.0333 28.42 55.7 28.42C55.38 28.42 55.1 28.4733 54.86 28.58C54.6333 28.6867 54.44 28.8333 54.28 29.02C54.1333 29.2067 54.0133 29.42 53.92 29.66C53.84 29.9 53.7867 30.1467 53.76 30.4H57.52ZM65.58 36C64.98 34.8133 64.3667 33.4267 63.74 31.84C63.1267 30.24 62.54 28.4933 61.98 26.6H64.56C64.68 27.1067 64.82 27.6467 64.98 28.22C65.1533 28.7933 65.3333 29.3733 65.52 29.96C65.7067 30.5333 65.8933 31.0933 66.08 31.64C66.28 32.1867 66.4667 32.6867 66.64 33.14C66.8133 32.6867 67.0067 32.1867 67.22 31.64C67.4333 31.0933 67.64 30.5333 67.84 29.96C68.0533 29.3733 68.2533 28.7933 68.44 28.22C68.64 27.6467 68.8 27.1067 68.92 26.6H71.42C70.86 28.4933 70.24 30.24 69.56 31.84C68.88 33.4267 68.24 34.8133 67.64 36H65.58ZM75.58 36V28.64H73.52V26.6H75.58V26.06C75.58 25.3 75.6867 24.6733 75.9 24.18C76.1267 23.6733 76.4267 23.2733 76.8 22.98C77.1733 22.6733 77.6 22.46 78.08 22.34C78.56 22.2067 79.0533 22.14 79.56 22.14C80.08 22.14 80.6133 22.1867 81.16 22.28C81.7067 22.3733 82.2 22.5267 82.64 22.74L82.22 24.74C81.9133 24.6333 81.5267 24.5267 81.06 24.42C80.6067 24.3 80.1733 24.24 79.76 24.24C79.5333 24.24 79.3133 24.26 79.1 24.3C78.9 24.34 78.72 24.4267 78.56 24.56C78.4133 24.6933 78.2933 24.8867 78.2 25.14C78.1067 25.38 78.06 25.7 78.06 26.1V26.6H81.92V28.64H78.06V36H75.58ZM89.58 23.9C89.58 24.38 89.4267 24.76 89.12 25.04C88.8133 25.32 88.4467 25.46 88.02 25.46C87.5933 25.46 87.2267 25.32 86.92 25.04C86.6267 24.76 86.48 24.38 86.48 23.9C86.48 23.4067 86.6267 23.02 86.92 22.74C87.2267 22.46 87.5933 22.32 88.02 22.32C88.4467 22.32 88.8133 22.46 89.12 22.74C89.4267 23.02 89.58 23.4067 89.58 23.9ZM93.24 35.6C92.7333 35.84 92.2533 36 91.8 36.08C91.36 36.1733 90.9533 36.22 90.58 36.22C89.94 36.22 89.4 36.1267 88.96 35.94C88.5333 35.7533 88.1867 35.4867 87.92 35.14C87.6667 34.78 87.4867 34.3467 87.38 33.84C87.2733 33.3333 87.22 32.7533 87.22 32.1V28.64H84.62V26.6H89.68V32.42C89.68 32.98 89.78 33.4 89.98 33.68C90.1933 33.9467 90.54 34.08 91.02 34.08C91.2467 34.08 91.52 34.0533 91.84 34C92.16 33.9333 92.52 33.8067 92.92 33.62L93.24 35.6ZM103.74 29.1C103.58 29.06 103.387 29.02 103.16 28.98C102.947 28.94 102.727 28.9067 102.5 28.88C102.273 28.84 102.053 28.8133 101.84 28.8C101.627 28.7867 101.447 28.78 101.3 28.78C100.953 28.78 100.613 28.8 100.28 28.84C99.9467 28.8667 99.6067 28.9267 99.26 29.02V36H96.78V27.22C97.4333 26.98 98.1 26.7867 98.78 26.64C99.4733 26.4933 100.28 26.42 101.2 26.42C101.333 26.42 101.52 26.4267 101.76 26.44C102.013 26.4533 102.28 26.48 102.56 26.52C102.84 26.5467 103.12 26.5867 103.4 26.64C103.693 26.68 103.953 26.74 104.18 26.82L103.74 29.1ZM106.72 31.38C106.72 30.5533 106.847 29.8267 107.1 29.2C107.353 28.5733 107.687 28.0533 108.1 27.64C108.513 27.2133 108.987 26.8933 109.52 26.68C110.053 26.4667 110.6 26.36 111.16 26.36C112.547 26.36 113.6 26.7733 114.32 27.6C115.04 28.4133 115.4 29.6067 115.4 31.18C115.4 31.34 115.393 31.5067 115.38 31.68C115.38 31.8533 115.373 31.9933 115.36 32.1H109.26C109.26 32.7133 109.513 33.2 110.02 33.56C110.527 33.9067 111.18 34.08 111.98 34.08C112.473 34.08 112.94 34.0267 113.38 33.92C113.833 33.8133 114.213 33.7067 114.52 33.6L114.86 35.7C114.433 35.8467 113.98 35.9667 113.5 36.06C113.02 36.1667 112.48 36.22 111.88 36.22C111.08 36.22 110.36 36.12 109.72 35.92C109.093 35.7067 108.553 35.4 108.1 35C107.66 34.5867 107.32 34.08 107.08 33.48C106.84 32.88 106.72 32.18 106.72 31.38ZM113.02 30.4C113.02 30.1467 112.987 29.9067 112.92 29.68C112.853 29.44 112.747 29.2267 112.6 29.04C112.453 28.8533 112.267 28.7067 112.04 28.6C111.813 28.48 111.533 28.42 111.2 28.42C110.88 28.42 110.6 28.4733 110.36 28.58C110.133 28.6867 109.94 28.8333 109.78 29.02C109.633 29.2067 109.513 29.42 109.42 29.66C109.34 29.9 109.287 30.1467 109.26 30.4H113.02ZM126.54 35.6C126.5 35.6267 126.407 35.6733 126.26 35.74C126.127 35.8067 125.947 35.88 125.72 35.96C125.493 36.0267 125.213 36.0867 124.88 36.14C124.56 36.1933 124.193 36.22 123.78 36.22C122.647 36.22 121.82 35.8867 121.3 35.22C120.78 34.54 120.52 33.5533 120.52 32.26V24.28H117.92V22.24H122.98V32.44C122.98 33.08 123.107 33.5133 123.36 33.74C123.613 33.9667 123.933 34.08 124.32 34.08C124.813 34.08 125.227 34.0133 125.56 33.88C125.893 33.7467 126.113 33.66 126.22 33.62L126.54 35.6ZM133.32 34.24C133.587 34.24 133.847 34.24 134.1 34.24C134.353 34.2267 134.573 34.2067 134.76 34.18V32.02C134.6 31.9933 134.407 31.9733 134.18 31.96C133.953 31.9333 133.747 31.92 133.56 31.92C133.307 31.92 133.06 31.94 132.82 31.98C132.58 32.0067 132.367 32.06 132.18 32.14C132.007 32.22 131.867 32.3333 131.76 32.48C131.653 32.6267 131.6 32.82 131.6 33.06C131.6 33.4867 131.76 33.7933 132.08 33.98C132.4 34.1533 132.813 34.24 133.32 34.24ZM133.1 26.36C133.873 26.36 134.513 26.4533 135.02 26.64C135.54 26.8133 135.953 27.0667 136.26 27.4C136.567 27.72 136.787 28.12 136.92 28.6C137.053 29.0667 137.12 29.5933 137.12 30.18V35.78C136.76 35.86 136.227 35.9533 135.52 36.06C134.813 36.1667 134.02 36.22 133.14 36.22C132.54 36.22 131.993 36.1667 131.5 36.06C131.02 35.9533 130.607 35.78 130.26 35.54C129.913 35.2867 129.647 34.9667 129.46 34.58C129.273 34.18 129.18 33.6933 129.18 33.12C129.18 32.5733 129.287 32.1133 129.5 31.74C129.713 31.3667 130 31.0667 130.36 30.84C130.72 30.6133 131.133 30.4533 131.6 30.36C132.067 30.2533 132.553 30.2 133.06 30.2C133.7 30.2 134.267 30.2533 134.76 30.36V30.06C134.76 29.5933 134.613 29.2067 134.32 28.9C134.027 28.58 133.52 28.42 132.8 28.42C132.333 28.42 131.88 28.4533 131.44 28.52C131.013 28.5867 130.667 28.6667 130.4 28.76L130.06 26.78C130.367 26.6733 130.8 26.58 131.36 26.5C131.92 26.4067 132.5 26.36 133.1 26.36ZM146.3 31.24C146.3 30.36 146.153 29.6867 145.86 29.22C145.58 28.7533 145.147 28.52 144.56 28.52C144.293 28.52 144.027 28.56 143.76 28.64C143.507 28.7067 143.287 28.7933 143.1 28.9V34C143.287 34.04 143.48 34.0667 143.68 34.08C143.893 34.0933 144.073 34.1 144.22 34.1C144.86 34.1 145.367 33.8867 145.74 33.46C146.113 33.02 146.3 32.28 146.3 31.24ZM148.8 31.3C148.8 32.0467 148.7 32.7267 148.5 33.34C148.3 33.94 148.007 34.4533 147.62 34.88C147.233 35.3067 146.76 35.64 146.2 35.88C145.64 36.1067 145 36.22 144.28 36.22C143.64 36.22 142.987 36.1733 142.32 36.08C141.653 35.9867 141.093 35.8667 140.64 35.72V22.54L143.1 22.12V26.82C143.447 26.66 143.78 26.5533 144.1 26.5C144.42 26.4333 144.74 26.4 145.06 26.4C145.673 26.4 146.213 26.52 146.68 26.76C147.147 26.9867 147.533 27.32 147.84 27.76C148.16 28.1867 148.4 28.7 148.56 29.3C148.72 29.9 148.8 30.5667 148.8 31.3ZM155.06 34.14C155.66 34.14 156.12 34.1 156.44 34.02C156.76 33.9267 156.92 33.7467 156.92 33.48C156.92 33.3067 156.867 33.16 156.76 33.04C156.667 32.92 156.527 32.82 156.34 32.74C156.167 32.6467 155.96 32.56 155.72 32.48C155.493 32.4 155.253 32.32 155 32.24C154.64 32.1333 154.273 32.0133 153.9 31.88C153.527 31.7333 153.187 31.5533 152.88 31.34C152.573 31.1267 152.32 30.86 152.12 30.54C151.92 30.2067 151.82 29.7933 151.82 29.3C151.82 28.9 151.893 28.5267 152.04 28.18C152.2 27.82 152.44 27.5067 152.76 27.24C153.093 26.96 153.513 26.7467 154.02 26.6C154.527 26.44 155.133 26.36 155.84 26.36C156.453 26.36 157.02 26.4067 157.54 26.5C158.073 26.5933 158.533 26.7267 158.92 26.9L158.54 28.98C158.313 28.9133 157.96 28.8067 157.48 28.66C157 28.5 156.46 28.42 155.86 28.42C155.233 28.42 154.807 28.5 154.58 28.66C154.367 28.8067 154.26 28.9667 154.26 29.14C154.26 29.2867 154.307 29.42 154.4 29.54C154.507 29.6467 154.64 29.7467 154.8 29.84C154.973 29.9333 155.167 30.0267 155.38 30.12C155.607 30.2 155.847 30.28 156.1 30.36C156.46 30.48 156.833 30.6133 157.22 30.76C157.607 30.9067 157.953 31.0933 158.26 31.32C158.58 31.5333 158.84 31.8133 159.04 32.16C159.24 32.4933 159.34 32.9067 159.34 33.4C159.34 33.7867 159.267 34.1533 159.12 34.5C158.973 34.8467 158.727 35.1467 158.38 35.4C158.047 35.6533 157.607 35.8533 157.06 36C156.513 36.1467 155.84 36.22 155.04 36.22C154.227 36.22 153.533 36.1267 152.96 35.94C152.387 35.7533 151.927 35.5867 151.58 35.44L151.96 33.38C152.427 33.5667 152.92 33.74 153.44 33.9C153.973 34.06 154.513 34.14 155.06 34.14Z" fill="white"/>
<path d="M32.6737 24.1938C31.7302 19.9409 29.9703 15.9114 27.4917 12.329L27.4668 12.293C27.3322 12.1002 27.1528 11.943 26.944 11.8347C26.7353 11.7264 26.5034 11.6702 26.2682 11.6711C25.9361 11.6783 25.6161 11.7971 25.3597 12.0084C25.1034 12.2198 24.9258 12.5113 24.8555 12.836C24.8555 12.8765 24.8555 12.9238 24.8397 12.9824C24.7298 13.8934 24.2731 14.727 23.5645 15.3099C22.8888 15.8263 22.0556 16.0937 21.2055 16.0669C20.6279 16.0586 20.0636 15.8918 19.5742 15.5848C19.2101 15.3377 18.9003 15.0188 18.6639 14.6476C18.4276 14.2764 18.2696 13.8608 18.1998 13.4263L18.112 1.55698V1.2055C18.0604 0.867232 17.8884 0.558982 17.6275 0.337493C17.3667 0.116004 17.0347 -0.00381654 16.6925 9.27226e-05C16.4995 -0.000755893 16.3083 0.0368658 16.1299 0.110753C15.9516 0.184641 15.7898 0.293314 15.6539 0.430435L15.5187 0.592658C11.9192 4.79323 8.61073 9.23467 5.61634 13.8859C4.1631 16.1548 2.51608 18.8855 1.33546 22.5896C0.933535 23.8323 0.615872 25.1007 0.384649 26.3861C0.167355 27.5641 0.0430461 28.7574 0.0128829 29.955C-0.0164073 31.442 -0.0614675 33.6861 0.704584 36.0609C2.89009 42.8201 10.0121 45.6929 10.314 45.81C12.4257 46.5983 14.6616 47.0012 16.9156 46.9997C19.6672 47.0174 22.3791 46.3425 24.8014 45.0372C29.2851 42.6016 32.2749 38.1697 33.219 32.5551C33.7822 29.252 33.2167 26.6812 32.6737 24.1938ZM30.5491 32.1292C29.7379 36.9351 27.228 40.7067 23.4766 42.7458C17.9836 45.7312 12.3801 43.7935 11.3099 43.3744C11.0688 43.2776 5.08911 40.8712 3.28663 35.2836C2.65127 33.3166 2.68956 31.406 2.71659 30.0113C2.80037 27.7545 3.20472 25.5211 3.9175 23.3782C5.00799 19.967 6.49278 17.5066 7.91674 15.2806C10.2299 11.6734 12.7406 8.19684 15.4375 4.86678L15.5007 13.6223V13.7079C15.5885 14.3321 16.0369 16.468 18.076 17.7635C18.9885 18.3417 20.042 18.6589 21.1221 18.6805C22.6134 18.7271 24.0744 18.2531 25.2543 17.3399C25.7729 16.9339 26.2192 16.4433 26.5746 15.8889C28.1734 18.6397 29.3349 21.6224 30.0173 24.73C30.5491 27.0935 31.0335 29.3151 30.5491 32.1292Z" fill="#D2E568"/>
<path d="M10.1901 24.9193L5.36626 29.6553L10.3006 34.0376L11.8935 32.3613L8.62872 29.5652L11.9093 26.4536L10.1901 24.9193Z" fill="#D2E568"/>
<path d="M13.1642 35.457H15.5255L20.2772 24.6241H17.916L13.1642 35.457Z" fill="#D2E568"/>
<path d="M21.5412 26.4536L24.8195 29.5652L21.557 32.3613L23.1477 34.0376L28.0842 29.6553L23.2603 24.9193L21.5412 26.4536Z" fill="#D2E568"/>
</svg>
