<svg width="162" height="47" viewBox="0 0 162 47" fill="none" xmlns="http://www.w3.org/2000/svg">
<path d="M42.56 31.24C42.56 32.08 42.7133 32.7667 43.02 33.3C43.34 33.8333 43.8467 34.1 44.54 34.1C44.74 34.1 44.9267 34.0933 45.1 34.08C45.2733 34.0667 45.4533 34.0467 45.64 34.02V28.9C45.4533 28.7933 45.24 28.7067 45 28.64C44.76 28.56 44.5067 28.52 44.24 28.52C43.6533 28.52 43.2267 28.7533 42.96 29.22C42.6933 29.6867 42.56 30.36 42.56 31.24ZM48.1 35.72C47.6467 35.8667 47.0933 35.9867 46.44 36.08C45.7867 36.1733 45.1467 36.22 44.52 36.22C43.0533 36.22 41.94 35.7867 41.18 34.92C40.4333 34.0533 40.06 32.8667 40.06 31.36C40.06 29.8267 40.3733 28.62 41 27.74C41.64 26.8467 42.58 26.4 43.82 26.4C44.1533 26.4 44.48 26.44 44.8 26.52C45.12 26.5867 45.4 26.6867 45.64 26.82V22.54L48.1 22.12V35.72ZM51.22 31.38C51.22 30.5533 51.3467 29.8267 51.6 29.2C51.8533 28.5733 52.1867 28.0533 52.6 27.64C53.0133 27.2133 53.4867 26.8933 54.02 26.68C54.5533 26.4667 55.1 26.36 55.66 26.36C57.0467 26.36 58.1 26.7733 58.82 27.6C59.54 28.4133 59.9 29.6067 59.9 31.18C59.9 31.34 59.8933 31.5067 59.88 31.68C59.88 31.8533 59.8733 31.9933 59.86 32.1H53.76C53.76 32.7133 54.0133 33.2 54.52 33.56C55.0267 33.9067 55.68 34.08 56.48 34.08C56.9733 34.08 57.44 34.0267 57.88 33.92C58.3333 33.8133 58.7133 33.7067 59.02 33.6L59.36 35.7C58.9333 35.8467 58.48 35.9667 58 36.06C57.52 36.1667 56.98 36.22 56.38 36.22C55.58 36.22 54.86 36.12 54.22 35.92C53.5933 35.7067 53.0533 35.4 52.6 35C52.16 34.5867 51.82 34.08 51.58 33.48C51.34 32.88 51.22 32.18 51.22 31.38ZM57.52 30.4C57.52 30.1467 57.4867 29.9067 57.42 29.68C57.3533 29.44 57.2467 29.2267 57.1 29.04C56.9533 28.8533 56.7667 28.7067 56.54 28.6C56.3133 28.48 56.0333 28.42 55.7 28.42C55.38 28.42 55.1 28.4733 54.86 28.58C54.6333 28.6867 54.44 28.8333 54.28 29.02C54.1333 29.2067 54.0133 29.42 53.92 29.66C53.84 29.9 53.7867 30.1467 53.76 30.4H57.52ZM65.58 36C64.98 34.8133 64.3667 33.4267 63.74 31.84C63.1267 30.24 62.54 28.4933 61.98 26.6H64.56C64.68 27.1067 64.82 27.6467 64.98 28.22C65.1533 28.7933 65.3333 29.3733 65.52 29.96C65.7067 30.5333 65.8933 31.0933 66.08 31.64C66.28 32.1867 66.4667 32.6867 66.64 33.14C66.8133 32.6867 67.0067 32.1867 67.22 31.64C67.4333 31.0933 67.64 30.5333 67.84 29.96C68.0533 29.3733 68.2533 28.7933 68.44 28.22C68.64 27.6467 68.8 27.1067 68.92 26.6H71.42C70.86 28.4933 70.24 30.24 69.56 31.84C68.88 33.4267 68.24 34.8133 67.64 36H65.58ZM75.58 36V28.64H73.52V26.6H75.58V26.06C75.58 25.3 75.6867 24.6733 75.9 24.18C76.1267 23.6733 76.4267 23.2733 76.8 22.98C77.1733 22.6733 77.6 22.46 78.08 22.34C78.56 22.2067 79.0533 22.14 79.56 22.14C80.08 22.14 80.6133 22.1867 81.16 22.28C81.7067 22.3733 82.2 22.5267 82.64 22.74L82.22 24.74C81.9133 24.6333 81.5267 24.5267 81.06 24.42C80.6067 24.3 80.1733 24.24 79.76 24.24C79.5333 24.24 79.3133 24.26 79.1 24.3C78.9 24.34 78.72 24.4267 78.56 24.56C78.4133 24.6933 78.2933 24.8867 78.2 25.14C78.1067 25.38 78.06 25.7 78.06 26.1V26.6H81.92V28.64H78.06V36H75.58ZM89.58 23.9C89.58 24.38 89.4267 24.76 89.12 25.04C88.8133 25.32 88.4467 25.46 88.02 25.46C87.5933 25.46 87.2267 25.32 86.92 25.04C86.6267 24.76 86.48 24.38 86.48 23.9C86.48 23.4067 86.6267 23.02 86.92 22.74C87.2267 22.46 87.5933 22.32 88.02 22.32C88.4467 22.32 88.8133 22.46 89.12 22.74C89.4267 23.02 89.58 23.4067 89.58 23.9ZM93.24 35.6C92.7333 35.84 92.2533 36 91.8 36.08C91.36 36.1733 90.9533 36.22 90.58 36.22C89.94 36.22 89.4 36.1267 88.96 35.94C88.5333 35.7533 88.1867 35.4867 87.92 35.14C87.6667 34.78 87.4867 34.3467 87.38 33.84C87.2733 33.3333 87.22 32.7533 87.22 32.1V28.64H84.62V26.6H89.68V32.42C89.68 32.98 89.78 33.4 89.98 33.68C90.1933 33.9467 90.54 34.08 91.02 34.08C91.2467 34.08 91.52 34.0533 91.84 34C92.16 33.9333 92.52 33.8067 92.92 33.62L93.24 35.6ZM103.74 29.1C103.58 29.06 103.387 29.02 103.16 28.98C102.947 28.94 102.727 28.9067 102.5 28.88C102.273 28.84 102.053 28.8133 101.84 28.8C101.627 28.7867 101.447 28.78 101.3 28.78C100.953 28.78 100.613 28.8 100.28 28.84C99.9467 28.8667 99.6067 28.9267 99.26 29.02V36H96.78V27.22C97.4333 26.98 98.1 26.7867 98.78 26.64C99.4733 26.4933 100.28 26.42 101.2 26.42C101.333 26.42 101.52 26.4267 101.76 26.44C102.013 26.4533 102.28 26.48 102.56 26.52C102.84 26.5467 103.12 26.5867 103.4 26.64C103.693 26.68 103.953 26.74 104.18 26.82L103.74 29.1ZM106.72 31.38C106.72 30.5533 106.847 29.8267 107.1 29.2C107.353 28.5733 107.687 28.0533 108.1 27.64C108.513 27.2133 108.987 26.8933 109.52 26.68C110.053 26.4667 110.6 26.36 111.16 26.36C112.547 26.36 113.6 26.7733 114.32 27.6C115.04 28.4133 115.4 29.6067 115.4 31.18C115.4 31.34 115.393 31.5067 115.38 31.68C115.38 31.8533 115.373 31.9933 115.36 32.1H109.26C109.26 32.7133 109.513 33.2 110.02 33.56C110.527 33.9067 111.18 34.08 111.98 34.08C112.473 34.08 112.94 34.0267 113.38 33.92C113.833 33.8133 114.213 33.7067 114.52 33.6L114.86 35.7C114.433 35.8467 113.98 35.9667 113.5 36.06C113.02 36.1667 112.48 36.22 111.88 36.22C111.08 36.22 110.36 36.12 109.72 35.92C109.093 35.7067 108.553 35.4 108.1 35C107.66 34.5867 107.32 34.08 107.08 33.48C106.84 32.88 106.72 32.18 106.72 31.38ZM113.02 30.4C113.02 30.1467 112.987 29.9067 112.92 29.68C112.853 29.44 112.747 29.2267 112.6 29.04C112.453 28.8533 112.267 28.7067 112.04 28.6C111.813 28.48 111.533 28.42 111.2 28.42C110.88 28.42 110.6 28.4733 110.36 28.58C110.133 28.6867 109.94 28.8333 109.78 29.02C109.633 29.2067 109.513 29.42 109.42 29.66C109.34 29.9 109.287 30.1467 109.26 30.4H113.02ZM123.96 36.22C123.373 36.22 122.887 36.14 122.5 35.98C122.113 35.82 121.807 35.58 121.58 35.26C121.353 34.94 121.193 34.5467 121.1 34.08C121.007 33.6 120.96 33.0467 120.96 32.42V23.64H118.28V22.24H122.6V32.42C122.6 32.8867 122.627 33.2667 122.68 33.56C122.747 33.8533 122.84 34.0933 122.96 34.28C123.093 34.4533 123.253 34.5733 123.44 34.64C123.627 34.7067 123.847 34.74 124.1 34.74C124.487 34.74 124.847 34.6933 125.18 34.6C125.513 34.5067 125.773 34.4067 125.96 34.3L126.2 35.7C126.12 35.74 126.007 35.7933 125.86 35.86C125.713 35.9133 125.54 35.9667 125.34 36.02C125.14 36.0733 124.92 36.12 124.68 36.16C124.453 36.2 124.213 36.22 123.96 36.22ZM133.4 34.82C133.813 34.82 134.18 34.8067 134.5 34.78C134.833 34.7533 135.107 34.72 135.32 34.68V31.92C135.107 31.8533 134.847 31.8 134.54 31.76C134.247 31.72 133.933 31.7 133.6 31.7C133.293 31.7 132.993 31.7267 132.7 31.78C132.407 31.82 132.147 31.9 131.92 32.02C131.693 32.14 131.507 32.3 131.36 32.5C131.213 32.6867 131.14 32.9267 131.14 33.22C131.14 33.82 131.34 34.24 131.74 34.48C132.153 34.7067 132.707 34.82 133.4 34.82ZM133.24 26.5C133.933 26.5 134.513 26.5867 134.98 26.76C135.46 26.9333 135.847 27.1733 136.14 27.48C136.433 27.7867 136.64 28.16 136.76 28.6C136.88 29.04 136.94 29.52 136.94 30.04V35.84C136.553 35.9067 136.04 35.9867 135.4 36.08C134.773 36.1733 134.127 36.22 133.46 36.22C132.953 36.22 132.46 36.1733 131.98 36.08C131.5 36 131.073 35.8533 130.7 35.64C130.327 35.4133 130.027 35.1067 129.8 34.72C129.573 34.3333 129.46 33.84 129.46 33.24C129.46 32.7067 129.573 32.26 129.8 31.9C130.04 31.5267 130.34 31.2267 130.7 31C131.073 30.7733 131.493 30.6133 131.96 30.52C132.44 30.4133 132.92 30.36 133.4 30.36C134.053 30.36 134.693 30.4333 135.32 30.58V30.12C135.32 29.84 135.287 29.5733 135.22 29.32C135.167 29.0533 135.053 28.8133 134.88 28.6C134.72 28.3867 134.493 28.22 134.2 28.1C133.92 27.9667 133.553 27.9 133.1 27.9C132.527 27.9 132.027 27.94 131.6 28.02C131.173 28.1 130.847 28.18 130.62 28.26L130.42 26.9C130.647 26.7933 131.02 26.7 131.54 26.62C132.073 26.54 132.64 26.5 133.24 26.5ZM142.48 27.06C142.68 26.94 142.967 26.82 143.34 26.7C143.727 26.5667 144.153 26.5 144.62 26.5C145.247 26.5 145.807 26.62 146.3 26.86C146.793 27.1 147.207 27.4333 147.54 27.86C147.887 28.2867 148.147 28.8 148.32 29.4C148.507 29.9867 148.6 30.64 148.6 31.36C148.6 32.1067 148.493 32.78 148.28 33.38C148.067 33.98 147.767 34.4933 147.38 34.92C146.993 35.3333 146.527 35.6533 145.98 35.88C145.433 36.1067 144.827 36.22 144.16 36.22C143.427 36.22 142.773 36.1667 142.2 36.06C141.627 35.9533 141.167 35.8467 140.82 35.74V22.42L142.48 22.14V27.06ZM142.48 34.56C142.733 34.6267 142.987 34.68 143.24 34.72C143.493 34.7467 143.733 34.76 143.96 34.76C144.88 34.76 145.6 34.48 146.12 33.92C146.64 33.3467 146.9 32.4933 146.9 31.36C146.9 30.88 146.853 30.4333 146.76 30.02C146.667 29.5933 146.52 29.2333 146.32 28.94C146.12 28.6333 145.86 28.3933 145.54 28.22C145.233 28.0467 144.86 27.96 144.42 27.96C144.033 27.96 143.66 28.04 143.3 28.2C142.94 28.3467 142.667 28.5067 142.48 28.68V34.56ZM157.52 33.68C157.52 33.3467 157.38 33.0733 157.1 32.86C156.833 32.6467 156.493 32.46 156.08 32.3C155.68 32.14 155.24 31.9867 154.76 31.84C154.28 31.68 153.833 31.4867 153.42 31.26C153.02 31.0333 152.68 30.7533 152.4 30.42C152.133 30.0867 152 29.6533 152 29.12C152 28.3733 152.3 27.7533 152.9 27.26C153.513 26.7533 154.467 26.5 155.76 26.5C156.267 26.5 156.787 26.54 157.32 26.62C157.867 26.6867 158.333 26.78 158.72 26.9L158.42 28.38C158.313 28.3267 158.167 28.2733 157.98 28.22C157.793 28.1533 157.58 28.1 157.34 28.06C157.1 28.0067 156.84 27.9667 156.56 27.94C156.293 27.9133 156.033 27.9 155.78 27.9C154.34 27.9 153.62 28.2933 153.62 29.08C153.62 29.36 153.753 29.6 154.02 29.8C154.3 29.9867 154.647 30.16 155.06 30.32C155.473 30.48 155.92 30.6467 156.4 30.82C156.88 30.98 157.327 31.18 157.74 31.42C158.153 31.66 158.493 31.9533 158.76 32.3C159.04 32.6333 159.18 33.06 159.18 33.58C159.18 34.42 158.853 35.0733 158.2 35.54C157.547 35.9933 156.513 36.22 155.1 36.22C154.46 36.22 153.873 36.1667 153.34 36.06C152.807 35.9533 152.3 35.7933 151.82 35.58L152.14 34.08C152.607 34.2933 153.093 34.4733 153.6 34.62C154.12 34.7533 154.673 34.82 155.26 34.82C156.767 34.82 157.52 34.44 157.52 33.68Z" fill="#303030"/>
<path d="M32.6737 24.1938C31.7302 19.9409 29.9703 15.9114 27.4917 12.329L27.4668 12.293C27.3322 12.1002 27.1528 11.943 26.944 11.8347C26.7353 11.7264 26.5034 11.6702 26.2682 11.6711C25.9361 11.6783 25.6161 11.7971 25.3597 12.0084C25.1034 12.2198 24.9258 12.5113 24.8555 12.836C24.8555 12.8765 24.8555 12.9238 24.8397 12.9824C24.7298 13.8934 24.2731 14.727 23.5645 15.3099C22.8888 15.8263 22.0556 16.0937 21.2055 16.0669C20.6279 16.0586 20.0636 15.8918 19.5742 15.5848C19.2101 15.3377 18.9003 15.0188 18.6639 14.6476C18.4276 14.2764 18.2696 13.8608 18.1998 13.4263L18.112 1.55698V1.2055C18.0604 0.867232 17.8884 0.558982 17.6275 0.337493C17.3667 0.116004 17.0347 -0.00381654 16.6925 9.27226e-05C16.4995 -0.000755893 16.3083 0.0368658 16.1299 0.110753C15.9516 0.184641 15.7898 0.293314 15.6539 0.430435L15.5187 0.592658C11.9192 4.79323 8.61073 9.23467 5.61634 13.8859C4.1631 16.1548 2.51608 18.8855 1.33546 22.5896C0.933535 23.8323 0.615872 25.1007 0.384649 26.3861C0.167355 27.5641 0.0430461 28.7574 0.0128829 29.955C-0.0164073 31.442 -0.0614675 33.6861 0.704584 36.0609C2.89009 42.8201 10.0121 45.6929 10.314 45.81C12.4257 46.5983 14.6616 47.0012 16.9156 46.9997C19.6672 47.0174 22.3791 46.3425 24.8014 45.0372C29.2851 42.6016 32.2749 38.1697 33.219 32.5551C33.7822 29.252 33.2167 26.6812 32.6737 24.1938ZM30.5491 32.1292C29.7379 36.9351 27.228 40.7067 23.4766 42.7458C17.9836 45.7312 12.3801 43.7935 11.3099 43.3744C11.0688 43.2776 5.08911 40.8712 3.28663 35.2836C2.65127 33.3166 2.68956 31.406 2.71659 30.0113C2.80037 27.7545 3.20472 25.5211 3.9175 23.3782C5.00799 19.967 6.49278 17.5066 7.91674 15.2806C10.2299 11.6734 12.7406 8.19684 15.4375 4.86678L15.5007 13.6223V13.7079C15.5885 14.3321 16.0369 16.468 18.076 17.7635C18.9885 18.3417 20.042 18.6589 21.1221 18.6805C22.6134 18.7271 24.0744 18.2531 25.2543 17.3399C25.7729 16.9339 26.2192 16.4433 26.5746 15.8889C28.1734 18.6397 29.3349 21.6224 30.0173 24.73C30.5491 27.0935 31.0335 29.3151 30.5491 32.1292Z" fill="#D2E568"/>
<path d="M10.1901 24.9193L5.36621 29.6553L10.3005 34.0376L11.8934 32.3613L8.62868 29.5652L11.9092 26.4536L10.1901 24.9193Z" fill="#D2E568"/>
<path d="M13.1643 35.457H15.5255L20.2773 24.6241H17.9161L13.1643 35.457Z" fill="#D2E568"/>
<path d="M21.5413 26.4536L24.8195 29.5652L21.557 32.3613L23.1478 34.0376L28.0843 29.6553L23.2604 24.9193L21.5413 26.4536Z" fill="#D2E568"/>
</svg>
