<svg width="34" height="47" viewBox="0 0 34 47" fill="none" xmlns="http://www.w3.org/2000/svg">
<path d="M32.6737 24.1938C31.7302 19.9409 29.9703 15.9114 27.4917 12.329L27.4668 12.293C27.3322 12.1002 27.1528 11.943 26.944 11.8347C26.7353 11.7264 26.5034 11.6702 26.2682 11.6711C25.9361 11.6783 25.6161 11.7971 25.3597 12.0084C25.1034 12.2198 24.9258 12.5113 24.8555 12.836C24.8555 12.8765 24.8555 12.9238 24.8397 12.9824C24.7298 13.8934 24.2731 14.727 23.5645 15.3099C22.8888 15.8263 22.0556 16.0937 21.2055 16.0669C20.6279 16.0586 20.0636 15.8918 19.5742 15.5848C19.2101 15.3377 18.9003 15.0188 18.6639 14.6476C18.4276 14.2764 18.2696 13.8608 18.1998 13.4263L18.112 1.55698V1.2055C18.0604 0.867232 17.8884 0.558982 17.6275 0.337493C17.3667 0.116004 17.0347 -0.00381654 16.6925 9.27226e-05C16.4995 -0.000755893 16.3083 0.0368658 16.1299 0.110753C15.9516 0.184641 15.7898 0.293314 15.6539 0.430435L15.5187 0.592658C11.9192 4.79323 8.61073 9.23467 5.61634 13.8859C4.1631 16.1548 2.51608 18.8855 1.33546 22.5896C0.933535 23.8323 0.615872 25.1007 0.384649 26.3861C0.167355 27.5641 0.0430461 28.7574 0.0128829 29.955C-0.0164073 31.442 -0.0614675 33.6861 0.704584 36.0609C2.89009 42.8201 10.0121 45.6929 10.314 45.81C12.4257 46.5983 14.6616 47.0012 16.9156 46.9997C19.6672 47.0174 22.3791 46.3425 24.8014 45.0372C29.2851 42.6016 32.2749 38.1697 33.219 32.5551C33.7822 29.252 33.2167 26.6812 32.6737 24.1938ZM30.5491 32.1292C29.7379 36.9351 27.228 40.7067 23.4766 42.7458C17.9836 45.7312 12.3801 43.7935 11.3099 43.3744C11.0688 43.2776 5.08911 40.8712 3.28663 35.2836C2.65127 33.3166 2.68956 31.406 2.71659 30.0113C2.80037 27.7545 3.20472 25.5211 3.9175 23.3782C5.00799 19.967 6.49278 17.5066 7.91674 15.2806C10.2299 11.6734 12.7406 8.19684 15.4375 4.86678L15.5007 13.6223V13.7079C15.5885 14.3321 16.0369 16.468 18.076 17.7635C18.9885 18.3417 20.042 18.6589 21.1221 18.6805C22.6134 18.7271 24.0744 18.2531 25.2543 17.3399C25.7729 16.9339 26.2192 16.4433 26.5746 15.8889C28.1734 18.6397 29.3349 21.6224 30.0173 24.73C30.5491 27.0935 31.0335 29.3151 30.5491 32.1292Z" fill="#9343B4"/>
<path d="M10.1901 24.9193L5.36621 29.6553L10.3005 34.0376L11.8934 32.3613L8.62868 29.5652L11.9092 26.4536L10.1901 24.9193Z" fill="#9343B4"/>
<path d="M13.1643 35.457H15.5255L20.2773 24.6241H17.9161L13.1643 35.457Z" fill="#9343B4"/>
<path d="M21.5413 26.4536L24.8195 29.5652L21.557 32.3613L23.1478 34.0376L28.0843 29.6553L23.2604 24.9193L21.5413 26.4536Z" fill="#9343B4"/>
</svg>
